<svg width="1930" height="891" viewBox="0 0 1930 891" fill="none" xmlns="http://www.w3.org/2000/svg">
<path d="M125 0V891M250 0V891M375 0V891M500 0V891M625 0V891M750 0V891M875 0V891M1000 0V891M1125 0V891M1250 0V891M1375 0V891M0 766H1500M0 641H1500M0 516H1500M0 391H1500M0 266H1500M0 141H1500" transform="translate(214)" stroke="#D8D8D8" stroke-width="8"/>
<line y1="-3" x2="1306" y2="-3" transform="translate(338 641) rotate(-16.6866)" stroke="#333333" stroke-width="6"/>
<circle cx="25" cy="25" r="25" transform="translate(313 616)" fill="#0C6AC7"/>
<circle cx="25" cy="25" r="25" transform="translate(1564 241)" fill="#0C6AC7"/>
<path d="M28.6 114.1C20.2 99.9 16.3 84.7 16.3 68C16.3 51.3 20.6 36.2 28.6 21.9H19.3C10.2 35.9 4.9 51.9 4.9 68C4.9 87.1 11.3 101.4 19.3 114.1H28.6ZM79.532 84.8H45.432C47.432 78.6 55.932 74.3 64.032 68.7C72.032 63.1 79.632 56.2 79.632 45.1C79.632 36.1 74.232 23.6 57.132 23.6C41.532 23.6 33.032 35.1 33.032 50.6H44.432C44.732 40.8 47.432 33.1 56.432 33.1C66.232 33.1 68.332 40.5 68.232 45.5C68.032 56.4 56.232 61.9 47.132 68.5C37.732 74.8 31.832 83.5 31.732 95H79.532V84.8ZM111.198 86.9C101.198 86.9 98.3984 74.6 98.3984 60C98.3984 45.4 101.198 33.1 111.198 33.1C121.198 33.1 123.998 45.4 123.998 60C123.998 74.6 121.198 86.9 111.198 86.9ZM111.198 23.6C91.0984 23.6 86.9984 44.1 86.9984 60C86.9984 75.9 91.0984 96.4 111.198 96.4C131.298 96.4 135.398 75.9 135.398 60C135.398 44.1 131.298 23.6 111.198 23.6ZM145.865 95H152.765C152.865 99.3 150.665 103.6 146.265 104.7V110.8C154.165 109.2 159.665 103.2 159.765 95V81.5H145.865V95ZM217.429 62.5C226.429 62.1 235.729 63.5 235.729 74.4C235.729 82.4 229.929 86.9 222.329 86.9C213.429 86.9 208.829 80.5 209.129 72H197.729C198.029 86.6 206.129 96.4 222.329 96.4C235.729 96.4 247.129 88.2 247.129 75C247.129 66 242.329 59.1 234.429 57.5V57.3C241.129 54.9 244.329 49.3 244.329 42.3C244.329 29.9 233.129 23.6 222.229 23.6C208.129 23.6 199.629 33.8 199.029 47.4H210.429C210.229 40.2 214.129 33.1 222.029 33.1C228.329 33.1 232.929 37.1 232.929 43C232.929 51.6 225.029 54.3 217.429 54V62.5ZM249.395 21.9C257.795 36.2 261.695 51.4 261.695 68.1C261.695 84.8 257.395 99.9 249.395 114.1H258.695C267.795 100.2 273.095 84.2 273.095 68.1C273.095 49 266.695 34.7 258.695 21.9H249.395Z" transform="translate(-4 641)" fill="#333333"/>
<path d="M28.6 114.1C20.2 99.9 16.3 84.7 16.3 68C16.3 51.3 20.6 36.2 28.6 21.9H19.3C10.2 35.9 4.9 51.9 4.9 68C4.9 87.1 11.3 101.4 19.3 114.1H28.6ZM50.632 62.5C59.632 62.1 68.932 63.5 68.932 74.4C68.932 82.4 63.132 86.9 55.532 86.9C46.632 86.9 42.032 80.5 42.332 72H30.932C31.232 86.6 39.332 96.4 55.532 96.4C68.932 96.4 80.332 88.2 80.332 75C80.332 66 75.532 59.1 67.632 57.5V57.3C74.332 54.9 77.532 49.3 77.532 42.3C77.532 29.9 66.332 23.6 55.432 23.6C41.332 23.6 32.832 33.8 32.232 47.4H43.632C43.432 40.2 47.332 33.1 55.232 33.1C61.532 33.1 66.132 37.1 66.132 43C66.132 51.6 58.232 54.3 50.632 54V62.5ZM111.198 86.9C101.198 86.9 98.3984 74.6 98.3984 60C98.3984 45.4 101.198 33.1 111.198 33.1C121.198 33.1 123.998 45.4 123.998 60C123.998 74.6 121.198 86.9 111.198 86.9ZM111.198 23.6C91.0984 23.6 86.9984 44.1 86.9984 60C86.9984 75.9 91.0984 96.4 111.198 96.4C131.298 96.4 135.398 75.9 135.398 60C135.398 44.1 131.298 23.6 111.198 23.6ZM145.865 95H152.765C152.865 99.3 150.665 103.6 146.265 104.7V110.8C154.165 109.2 159.665 103.2 159.765 95V81.5H145.865V95ZM223.129 86.9C214.829 86.9 210.529 79.9 210.529 72.3C210.529 64.6 214.829 58 223.129 58C231.329 58 235.429 64.8 235.429 72.3C235.429 79.8 231.329 86.9 223.129 86.9ZM245.529 42.7C244.929 31.3 235.529 23.6 224.429 23.6C204.629 23.6 198.029 43.1 198.029 59.8C198.029 80.2 202.929 96.4 223.529 96.4C237.529 96.4 246.829 86.1 246.829 72.5C246.829 59.1 238.629 49 224.729 49C218.529 49 212.729 51.8 209.629 57.3L209.429 57.1C210.129 47.9 211.529 33.1 223.929 33.1C229.829 33.1 233.629 37 234.129 42.7H245.529ZM249.395 21.9C257.795 36.2 261.695 51.4 261.695 68.1C261.695 84.8 257.395 99.9 249.395 114.1H258.695C267.795 100.2 273.095 84.2 273.095 68.1C273.095 49 266.695 34.7 258.695 21.9H249.395Z" transform="translate(1656 123)" fill="#333333"/>
</svg>
