<svg width="1802" height="799" viewBox="0 0 1802 799" fill="none" xmlns="http://www.w3.org/2000/svg">
<path d="M564.372 454.006C410.583 662.229 411.583 697.619 0 697.619H886.791V0C755.083 0.000112325 634.409 359.18 564.372 454.006Z" transform="translate(28.4172 18.2706)" fill="#0C6AC7"/>
<path d="M39.0159 692.343C9.8152 703.484 0 691.851 0 691.851L39.0159 692.343C78.3073 677.352 152.697 621.129 285.5 439.851C322.825 388.902 475 -18.6489 595.346 0.664754L594.791 699.351L39.0159 692.343Z" transform="translate(1510 17.6489) scale(-1 1)" fill="#0C6AC7"/>
<path d="M236.404 438L239.67 0C155.32 203.779 43.6551 326.824 0 350.872V438H236.404Z" transform="translate(456.83 279)" fill="#3D99F6"/>
<path d="M236.404 428.424V0C152.053 203.779 43.6551 317.248 0 341.296V428.424H236.404Z" transform="translate(1375.81 288.576) scale(-1 1)" fill="#3D99F6"/>
<path d="M0 83.243V0C53.829 48.8359 182.76 76.2136 232.519 83.243H0Z" transform="translate(1375.81 633.755)" fill="#95D3FE"/>
<path d="M0 83.243V0C53.829 48.8359 182.76 76.2136 232.519 83.243H0Z" transform="translate(457.385 633.755) scale(-1 1)" fill="#95D3FE"/>
<path d="M29.0184 3.35922C29.821 3.35922 31.8584 3.35922 31.8584 1.3686C31.8584 6.20296e-07 30.6853 4.15251e-07 29.574 4.15251e-07H15.9292C6.66802 4.15251e-07 -3.69189e-08 10.3887 -3.69189e-08 17.7292C-3.69189e-08 23.0169 3.39576 27.4336 8.95249 27.4336C16.2379 27.4336 24.2025 19.5333 24.2025 10.2021C24.2025 7.77599 23.6469 5.41208 22.1651 3.35922H29.0184ZM9.0142 26.1895C5.86542 26.1895 3.58101 23.7634 3.58101 19.471C3.58101 15.7386 5.80366 3.35922 14.8796 3.35922C17.5345 3.35922 20.498 4.66559 20.498 9.4556C20.498 11.6329 19.5102 16.8583 17.3493 20.4663C15.1266 24.1366 11.7925 26.1895 9.0142 26.1895Z" transform="translate(288 753) scale(1.13)" fill="#333333"/>
<path d="M2.94 39.44H20.4V45.92H2.94V39.44ZM37.0003 34.4C38.1203 34.44 39.2403 34.36 40.3603 34.16C41.4803 33.96 42.4803 33.62 43.3603 33.14C44.2403 32.62 44.9403 31.92 45.4603 31.04C46.0203 30.16 46.3003 29.08 46.3003 27.8C46.3003 26 45.6803 24.56 44.4403 23.48C43.2403 22.4 41.6803 21.86 39.7603 21.86C38.5603 21.86 37.5203 22.1 36.6403 22.58C35.7603 23.06 35.0203 23.72 34.4203 24.56C33.8603 25.36 33.4403 26.28 33.1603 27.32C32.8803 28.32 32.7603 29.36 32.8003 30.44H25.9603C26.0403 28.4 26.4203 26.52 27.1003 24.8C27.7803 23.04 28.7003 21.52 29.8603 20.24C31.0603 18.96 32.5003 17.96 34.1803 17.24C35.8603 16.52 37.7603 16.16 39.8803 16.16C41.5203 16.16 43.1203 16.4 44.6803 16.88C46.2803 17.36 47.7003 18.06 48.9403 18.98C50.2203 19.9 51.2403 21.08 52.0003 22.52C52.7603 23.92 53.1403 25.54 53.1403 27.38C53.1403 29.5 52.6603 31.36 51.7003 32.96C50.7403 34.52 49.2403 35.66 47.2003 36.38V36.5C49.6003 36.98 51.4603 38.18 52.7803 40.1C54.1403 41.98 54.8203 44.28 54.8203 47C54.8203 49 54.4203 50.8 53.6203 52.4C52.8203 53.96 51.7403 55.3 50.3803 56.42C49.0203 57.5 47.4403 58.34 45.6403 58.94C43.8403 59.54 41.9403 59.84 39.9403 59.84C37.5003 59.84 35.3603 59.5 33.5203 58.82C31.7203 58.1 30.2003 57.1 28.9603 55.82C27.7603 54.54 26.8403 53 26.2003 51.2C25.5603 49.4 25.2203 47.4 25.1803 45.2H32.0203C31.9403 47.76 32.5603 49.9 33.8803 51.62C35.2403 53.3 37.2603 54.14 39.9403 54.14C42.2203 54.14 44.1203 53.5 45.6403 52.22C47.2003 50.9 47.9803 49.04 47.9803 46.64C47.9803 45 47.6603 43.7 47.0203 42.74C46.3803 41.78 45.5403 41.06 44.5003 40.58C43.4603 40.06 42.2803 39.74 40.9603 39.62C39.6803 39.5 38.3603 39.46 37.0003 39.5V34.4Z" transform="translate(226 725)" fill="#333333"/>
<path d="M29.0184 3.35922C29.821 3.35922 31.8584 3.35922 31.8584 1.3686C31.8584 6.20296e-07 30.6853 4.15251e-07 29.574 4.15251e-07H15.9292C6.66802 4.15251e-07 -3.69189e-08 10.3887 -3.69189e-08 17.7292C-3.69189e-08 23.0169 3.39576 27.4336 8.95249 27.4336C16.2379 27.4336 24.2025 19.5333 24.2025 10.2021C24.2025 7.77599 23.6469 5.41208 22.1651 3.35922H29.0184ZM9.0142 26.1895C5.86542 26.1895 3.58101 23.7634 3.58101 19.471C3.58101 15.7386 5.80366 3.35922 14.8796 3.35922C17.5345 3.35922 20.498 4.66559 20.498 9.4556C20.498 11.6329 19.5102 16.8583 17.3493 20.4663C15.1266 24.1366 11.7925 26.1895 9.0142 26.1895Z" transform="translate(474 753) scale(1.13)" fill="#333333"/>
<path d="M2.94 39.44H20.4V45.92H2.94V39.44ZM54.3403 59H25.6603C25.7003 55.52 26.5403 52.48 28.1803 49.88C29.8203 47.28 32.0603 45.02 34.9003 43.1C36.2603 42.1 37.6803 41.14 39.1603 40.22C40.6403 39.26 42.0003 38.24 43.2403 37.16C44.4803 36.08 45.5003 34.92 46.3003 33.68C47.1003 32.4 47.5203 30.94 47.5603 29.3C47.5603 28.54 47.4603 27.74 47.2603 26.9C47.1003 26.02 46.7603 25.22 46.2403 24.5C45.7203 23.74 45.0003 23.12 44.0803 22.64C43.1603 22.12 41.9603 21.86 40.4803 21.86C39.1203 21.86 37.9803 22.14 37.0603 22.7C36.1803 23.22 35.4603 23.96 34.9003 24.92C34.3803 25.84 33.9803 26.94 33.7003 28.22C33.4603 29.5 33.3203 30.88 33.2803 32.36H26.4403C26.4403 30.04 26.7403 27.9 27.3403 25.94C27.9803 23.94 28.9203 22.22 30.1603 20.78C31.4003 19.34 32.9003 18.22 34.6603 17.42C36.4603 16.58 38.5403 16.16 40.9003 16.16C43.4603 16.16 45.6003 16.58 47.3203 17.42C49.0403 18.26 50.4203 19.32 51.4603 20.6C52.5403 21.88 53.3003 23.28 53.7403 24.8C54.1803 26.28 54.4003 27.7 54.4003 29.06C54.4003 30.74 54.1403 32.26 53.6203 33.62C53.1003 34.98 52.4003 36.24 51.5203 37.4C50.6403 38.52 49.6403 39.56 48.5203 40.52C47.4003 41.48 46.2403 42.38 45.0403 43.22C43.8403 44.06 42.6403 44.86 41.4403 45.62C40.2403 46.38 39.1203 47.14 38.0803 47.9C37.0803 48.66 36.2003 49.46 35.4403 50.3C34.6803 51.1 34.1603 51.96 33.8803 52.88H54.3403V59Z" transform="translate(412 725)" fill="#333333"/>
<path d="M29.0184 3.35922C29.821 3.35922 31.8584 3.35922 31.8584 1.3686C31.8584 6.20296e-07 30.6853 4.15251e-07 29.574 4.15251e-07H15.9292C6.66802 4.15251e-07 -3.69189e-08 10.3887 -3.69189e-08 17.7292C-3.69189e-08 23.0169 3.39576 27.4336 8.95249 27.4336C16.2379 27.4336 24.2025 19.5333 24.2025 10.2021C24.2025 7.77599 23.6469 5.41208 22.1651 3.35922H29.0184ZM9.0142 26.1895C5.86542 26.1895 3.58101 23.7634 3.58101 19.471C3.58101 15.7386 5.80366 3.35922 14.8796 3.35922C17.5345 3.35922 20.498 4.66559 20.498 9.4556C20.498 11.6329 19.5102 16.8583 17.3493 20.4663C15.1266 24.1366 11.7925 26.1895 9.0142 26.1895Z" transform="translate(694 753) scale(1.13)" fill="#333333"/>
<path d="M2.94 39.44H20.4V45.92H2.94V39.44ZM26.5003 23.96C27.9403 23.96 29.3403 23.84 30.7003 23.6C32.0603 23.36 33.2803 22.96 34.3603 22.4C35.4803 21.84 36.4203 21.12 37.1803 20.24C37.9803 19.36 38.5003 18.28 38.7403 17H44.3203V59H36.8203V29.36H26.5003V23.96Z" transform="translate(632 725)" fill="#333333"/>
<path d="M29.0184 3.35922C29.821 3.35922 31.8584 3.35922 31.8584 1.3686C31.8584 6.20296e-07 30.6853 4.15251e-07 29.574 4.15251e-07H15.9292C6.66802 4.15251e-07 -3.69189e-08 10.3887 -3.69189e-08 17.7292C-3.69189e-08 23.0169 3.39576 27.4336 8.95249 27.4336C16.2379 27.4336 24.2025 19.5333 24.2025 10.2021C24.2025 7.77599 23.6469 5.41208 22.1651 3.35922H29.0184ZM9.0142 26.1895C5.86542 26.1895 3.58101 23.7634 3.58101 19.471C3.58101 15.7386 5.80366 3.35922 14.8796 3.35922C17.5345 3.35922 20.498 4.66559 20.498 9.4556C20.498 11.6329 19.5102 16.8583 17.3493 20.4663C15.1266 24.1366 11.7925 26.1895 9.0142 26.1895Z" transform="translate(936 753) scale(1.13)" fill="#333333"/>
<path d="M16.68 16.16C19.68 16.16 22.12 16.86 24 18.26C25.92 19.62 27.4 21.38 28.44 23.54C29.52 25.66 30.24 28 30.6 30.56C31 33.12 31.2 35.6 31.2 38C31.2 40.4 31 42.88 30.6 45.44C30.24 48 29.52 50.36 28.44 52.52C27.4 54.64 25.92 56.4 24 57.8C22.12 59.16 19.68 59.84 16.68 59.84C13.68 59.84 11.22 59.16 9.3 57.8C7.42 56.4 5.94 54.64 4.86 52.52C3.82 50.36 3.1 48 2.7 45.44C2.34 42.88 2.16 40.4 2.16 38C2.16 35.6 2.34 33.12 2.7 30.56C3.1 28 3.82 25.66 4.86 23.54C5.94 21.38 7.42 19.62 9.3 18.26C11.22 16.86 13.68 16.16 16.68 16.16ZM16.68 54.14C18.16 54.14 19.4 53.72 20.4 52.88C21.4 52 22.18 50.84 22.74 49.4C23.34 47.92 23.76 46.2 24 44.24C24.24 42.28 24.36 40.2 24.36 38C24.36 35.8 24.24 33.74 24 31.82C23.76 29.86 23.34 28.14 22.74 26.66C22.18 25.18 21.4 24.02 20.4 23.18C19.4 22.3 18.16 21.86 16.68 21.86C15.16 21.86 13.9 22.3 12.9 23.18C11.94 24.02 11.16 25.18 10.56 26.66C10 28.14 9.6 29.86 9.36 31.82C9.12 33.74 9 35.8 9 38C9 40.2 9.12 42.28 9.36 44.24C9.6 46.2 10 47.92 10.56 49.4C11.16 50.84 11.94 52 12.9 52.88C13.9 53.72 15.16 54.14 16.68 54.14Z" transform="translate(896 725)" fill="#333333"/>
<path d="M29.0184 3.35922C29.821 3.35922 31.8584 3.35922 31.8584 1.3686C31.8584 6.20296e-07 30.6853 4.15251e-07 29.574 4.15251e-07H15.9292C6.66802 4.15251e-07 -3.69189e-08 10.3887 -3.69189e-08 17.7292C-3.69189e-08 23.0169 3.39576 27.4336 8.95249 27.4336C16.2379 27.4336 24.2025 19.5333 24.2025 10.2021C24.2025 7.77599 23.6469 5.41208 22.1651 3.35922H29.0184ZM9.0142 26.1895C5.86542 26.1895 3.58101 23.7634 3.58101 19.471C3.58101 15.7386 5.80366 3.35922 14.8796 3.35922C17.5345 3.35922 20.498 4.66559 20.498 9.4556C20.498 11.6329 19.5102 16.8583 17.3493 20.4663C15.1266 24.1366 11.7925 26.1895 9.0142 26.1895Z" transform="translate(1140 753) scale(1.13)" fill="#333333"/>
<path d="M3.18 23.96C4.62 23.96 6.02 23.84 7.38 23.6C8.74 23.36 9.96 22.96 11.04 22.4C12.16 21.84 13.1 21.12 13.86 20.24C14.66 19.36 15.18 18.28 15.42 17H21V59H13.5V29.36H3.18V23.96Z" transform="translate(1100 725)" fill="#333333"/>
<path d="M29.0184 3.35922C29.821 3.35922 31.8584 3.35922 31.8584 1.3686C31.8584 6.20296e-07 30.6853 4.15251e-07 29.574 4.15251e-07H15.9292C6.66802 4.15251e-07 -3.69189e-08 10.3887 -3.69189e-08 17.7292C-3.69189e-08 23.0169 3.39576 27.4336 8.95249 27.4336C16.2379 27.4336 24.2025 19.5333 24.2025 10.2021C24.2025 7.77599 23.6469 5.41208 22.1651 3.35922H29.0184ZM9.0142 26.1895C5.86542 26.1895 3.58101 23.7634 3.58101 19.471C3.58101 15.7386 5.80366 3.35922 14.8796 3.35922C17.5345 3.35922 20.498 4.66559 20.498 9.4556C20.498 11.6329 19.5102 16.8583 17.3493 20.4663C15.1266 24.1366 11.7925 26.1895 9.0142 26.1895Z" transform="translate(1572 749) scale(1.13)" fill="#333333"/>
<path d="M13.68 34.4C14.8 34.44 15.92 34.36 17.04 34.16C18.16 33.96 19.16 33.62 20.04 33.14C20.92 32.62 21.62 31.92 22.14 31.04C22.7 30.16 22.98 29.08 22.98 27.8C22.98 26 22.36 24.56 21.12 23.48C19.92 22.4 18.36 21.86 16.44 21.86C15.24 21.86 14.2 22.1 13.32 22.58C12.44 23.06 11.7 23.72 11.1 24.56C10.54 25.36 10.12 26.28 9.84 27.32C9.56 28.32 9.44 29.36 9.48 30.44H2.64C2.72 28.4 3.1 26.52 3.78 24.8C4.46 23.04 5.38 21.52 6.54 20.24C7.74 18.96 9.18 17.96 10.86 17.24C12.54 16.52 14.44 16.16 16.56 16.16C18.2 16.16 19.8 16.4 21.36 16.88C22.96 17.36 24.38 18.06 25.62 18.98C26.9 19.9 27.92 21.08 28.68 22.52C29.44 23.92 29.82 25.54 29.82 27.38C29.82 29.5 29.34 31.36 28.38 32.96C27.42 34.52 25.92 35.66 23.88 36.38V36.5C26.28 36.98 28.14 38.18 29.46 40.1C30.82 41.98 31.5 44.28 31.5 47C31.5 49 31.1 50.8 30.3 52.4C29.5 53.96 28.42 55.3 27.06 56.42C25.7 57.5 24.12 58.34 22.32 58.94C20.52 59.54 18.62 59.84 16.62 59.84C14.18 59.84 12.04 59.5 10.2 58.82C8.4 58.1 6.88 57.1 5.64 55.82C4.44 54.54 3.52 53 2.88 51.2C2.24 49.4 1.9 47.4 1.86 45.2H8.7C8.62 47.76 9.24 49.9 10.56 51.62C11.92 53.3 13.94 54.14 16.62 54.14C18.9 54.14 20.8 53.5 22.32 52.22C23.88 50.9 24.66 49.04 24.66 46.64C24.66 45 24.34 43.7 23.7 42.74C23.06 41.78 22.22 41.06 21.18 40.58C20.14 40.06 18.96 39.74 17.64 39.62C16.36 39.5 15.04 39.46 13.68 39.5V34.4Z" transform="translate(1532 721)" fill="#333333"/>
<path d="M29.0184 3.35922C29.821 3.35922 31.8584 3.35922 31.8584 1.3686C31.8584 6.20296e-07 30.6853 4.15251e-07 29.574 4.15251e-07H15.9292C6.66802 4.15251e-07 -3.69189e-08 10.3887 -3.69189e-08 17.7292C-3.69189e-08 23.0169 3.39576 27.4336 8.95249 27.4336C16.2379 27.4336 24.2025 19.5333 24.2025 10.2021C24.2025 7.77599 23.6469 5.41208 22.1651 3.35922H29.0184ZM9.0142 26.1895C5.86542 26.1895 3.58101 23.7634 3.58101 19.471C3.58101 15.7386 5.80366 3.35922 14.8796 3.35922C17.5345 3.35922 20.498 4.66559 20.498 9.4556C20.498 11.6329 19.5102 16.8583 17.3493 20.4663C15.1266 24.1366 11.7925 26.1895 9.0142 26.1895Z" transform="translate(1378 749) scale(1.13)" fill="#333333"/>
<path d="M31.02 59H2.34C2.38 55.52 3.22 52.48 4.86 49.88C6.5 47.28 8.74 45.02 11.58 43.1C12.94 42.1 14.36 41.14 15.84 40.22C17.32 39.26 18.68 38.24 19.92 37.16C21.16 36.08 22.18 34.92 22.98 33.68C23.78 32.4 24.2 30.94 24.24 29.3C24.24 28.54 24.14 27.74 23.94 26.9C23.78 26.02 23.44 25.22 22.92 24.5C22.4 23.74 21.68 23.12 20.76 22.64C19.84 22.12 18.64 21.86 17.16 21.86C15.8 21.86 14.66 22.14 13.74 22.7C12.86 23.22 12.14 23.96 11.58 24.92C11.06 25.84 10.66 26.94 10.38 28.22C10.14 29.5 10 30.88 9.96 32.36H3.12C3.12 30.04 3.42 27.9 4.02 25.94C4.66 23.94 5.6 22.22 6.84 20.78C8.08 19.34 9.58 18.22 11.34 17.42C13.14 16.58 15.22 16.16 17.58 16.16C20.14 16.16 22.28 16.58 24 17.42C25.72 18.26 27.1 19.32 28.14 20.6C29.22 21.88 29.98 23.28 30.42 24.8C30.86 26.28 31.08 27.7 31.08 29.06C31.08 30.74 30.82 32.26 30.3 33.62C29.78 34.98 29.08 36.24 28.2 37.4C27.32 38.52 26.32 39.56 25.2 40.52C24.08 41.48 22.92 42.38 21.72 43.22C20.52 44.06 19.32 44.86 18.12 45.62C16.92 46.38 15.8 47.14 14.76 47.9C13.76 48.66 12.88 49.46 12.12 50.3C11.36 51.1 10.84 51.96 10.56 52.88H31.02V59Z" transform="translate(1338 721)" fill="#333333"/>
<path d="M0 0V689" transform="translate(914.5 22)" stroke="#27D2E7" stroke-width="4"/>
<path d="M0 0L1.5 418.5" transform="translate(1137.5 292.5)" stroke="#27D2E7" stroke-width="4"/>
<path d="M1 0L0 421.5" transform="translate(694 292)" stroke="#27D2E7" stroke-width="4"/>
<path d="M0 0V77.5" transform="translate(1376 640)" stroke="#27D2E7" stroke-width="4"/>
<path d="M0 0V82" transform="translate(457 634.5)" stroke="#27D2E7" stroke-width="4"/>
<path d="M0 0V18.5" transform="translate(457 713.5)" stroke="#333333" stroke-width="8"/>
<path d="M0 0V85" transform="translate(333 559)" stroke="#333333" stroke-width="8"/>
<path d="M0 0V85" transform="translate(1438 560)" stroke="#333333" stroke-width="8"/>
<path d="M0 0V46.5" transform="translate(189 657)" stroke="#333333" stroke-width="8"/>
<path d="M0 0V46.5" transform="translate(1659 645)" stroke="#333333" stroke-width="8"/>
<path d="M0 0V18.5" transform="translate(266 717)" stroke="#333333" stroke-width="8"/>
<path d="M0 0V18.5" transform="translate(694 713)" stroke="#333333" stroke-width="8"/>
<path d="M0 0V18.5" transform="translate(915 716)" stroke="#333333" stroke-width="8"/>
<path d="M0 0V18.5" transform="translate(1138 716)" stroke="#333333" stroke-width="8"/>
<path d="M0 0V18.5" transform="translate(1376 716)" stroke="#333333" stroke-width="8"/>
<path d="M0 0V18.5" transform="translate(1557 714)" stroke="#333333" stroke-width="8"/>
<path d="M0 0V716.445H1797.45" transform="translate(4)" stroke="#333333" stroke-width="8"/>
<path d="M0 699.241C297.447 699.241 421.462 685.922 564.372 455.062C694.228 245.289 766.925 0 886.791 0C1005.55 0 1078.8 245.289 1208.66 455.062C1351.57 685.922 1475.58 699.241 1773.03 699.241" transform="translate(28.4172 17.7585)" stroke="#333333" stroke-width="8"/>
<path d="M16.68 16.16C19.68 16.16 22.12 16.86 24 18.26C25.92 19.62 27.4 21.38 28.44 23.54C29.52 25.66 30.24 28 30.6 30.56C31 33.12 31.2 35.6 31.2 38C31.2 40.4 31 42.88 30.6 45.44C30.24 48 29.52 50.36 28.44 52.52C27.4 54.64 25.92 56.4 24 57.8C22.12 59.16 19.68 59.84 16.68 59.84C13.68 59.84 11.22 59.16 9.3 57.8C7.42 56.4 5.94 54.64 4.86 52.52C3.82 50.36 3.1 48 2.7 45.44C2.34 42.88 2.16 40.4 2.16 38C2.16 35.6 2.34 33.12 2.7 30.56C3.1 28 3.82 25.66 4.86 23.54C5.94 21.38 7.42 19.62 9.3 18.26C11.22 16.86 13.68 16.16 16.68 16.16ZM16.68 54.14C18.16 54.14 19.4 53.72 20.4 52.88C21.4 52 22.18 50.84 22.74 49.4C23.34 47.92 23.76 46.2 24 44.24C24.24 42.28 24.36 40.2 24.36 38C24.36 35.8 24.24 33.74 24 31.82C23.76 29.86 23.34 28.14 22.74 26.66C22.18 25.18 21.4 24.02 20.4 23.18C19.4 22.3 18.16 21.86 16.68 21.86C15.16 21.86 13.9 22.3 12.9 23.18C11.94 24.02 11.16 25.18 10.56 26.66C10 28.14 9.6 29.86 9.36 31.82C9.12 33.74 9 35.8 9 38C9 40.2 9.12 42.28 9.36 44.24C9.6 46.2 10 47.92 10.56 49.4C11.16 50.84 11.94 52 12.9 52.88C13.9 53.72 15.16 54.14 16.68 54.14ZM37.4798 50.9H45.8198V59H37.4798V50.9ZM53.2191 23.96C54.6591 23.96 56.0591 23.84 57.4191 23.6C58.7791 23.36 59.9991 22.96 61.0791 22.4C62.1991 21.84 63.1391 21.12 63.8991 20.24C64.6991 19.36 65.2191 18.28 65.4591 17H71.0391V59H63.5391V29.36H53.2191V23.96ZM93.6989 28.1C93.6989 29.22 93.7789 30.28 93.9389 31.28C94.0989 32.24 94.3589 33.08 94.7189 33.8C95.0789 34.52 95.5389 35.1 96.0989 35.54C96.6989 35.94 97.4189 36.14 98.2589 36.14C99.0989 36.14 99.8189 35.94 100.419 35.54C101.019 35.1 101.499 34.52 101.859 33.8C102.219 33.08 102.479 32.24 102.639 31.28C102.839 30.28 102.939 29.22 102.939 28.1C102.939 27.1 102.859 26.12 102.699 25.16C102.579 24.2 102.339 23.34 101.979 22.58C101.619 21.82 101.139 21.22 100.539 20.78C99.9389 20.3 99.1789 20.06 98.2589 20.06C97.3389 20.06 96.5789 20.3 95.9789 20.78C95.3789 21.22 94.8989 21.82 94.5389 22.58C94.2189 23.34 93.9989 24.2 93.8789 25.16C93.7589 26.12 93.6989 27.1 93.6989 28.1ZM98.3189 40.04C96.5189 40.04 94.9789 39.72 93.6989 39.08C92.4189 38.44 91.3789 37.58 90.5789 36.5C89.7789 35.42 89.1989 34.16 88.8389 32.72C88.4789 31.28 88.2989 29.74 88.2989 28.1C88.2989 26.5 88.4789 24.98 88.8389 23.54C89.2389 22.06 89.8389 20.78 90.6389 19.7C91.4789 18.62 92.5189 17.76 93.7589 17.12C95.0389 16.48 96.5589 16.16 98.3189 16.16C100.079 16.16 101.579 16.48 102.819 17.12C104.099 17.76 105.139 18.62 105.939 19.7C106.779 20.78 107.379 22.06 107.739 23.54C108.139 24.98 108.339 26.5 108.339 28.1C108.339 29.74 108.159 31.28 107.799 32.72C107.439 34.16 106.859 35.42 106.059 36.5C105.259 37.58 104.219 38.44 102.939 39.08C101.659 39.72 100.119 40.04 98.3189 40.04ZM123.819 47.9C123.819 49.02 123.899 50.08 124.059 51.08C124.219 52.04 124.479 52.88 124.839 53.6C125.199 54.32 125.659 54.9 126.219 55.34C126.819 55.74 127.539 55.94 128.379 55.94C129.219 55.94 129.939 55.74 130.539 55.34C131.139 54.9 131.619 54.32 131.979 53.6C132.339 52.88 132.599 52.04 132.759 51.08C132.959 50.08 133.059 49.02 133.059 47.9C133.059 46.9 132.979 45.92 132.819 44.96C132.699 44 132.459 43.14 132.099 42.38C131.739 41.62 131.259 41.02 130.659 40.58C130.059 40.1 129.299 39.86 128.379 39.86C127.459 39.86 126.699 40.1 126.099 40.58C125.499 41.02 125.019 41.62 124.659 42.38C124.339 43.14 124.119 44 123.999 44.96C123.879 45.92 123.819 46.9 123.819 47.9ZM128.439 59.84C126.639 59.84 125.099 59.52 123.819 58.88C122.539 58.24 121.499 57.38 120.699 56.3C119.899 55.22 119.319 53.96 118.959 52.52C118.599 51.08 118.419 49.54 118.419 47.9C118.419 46.3 118.599 44.78 118.959 43.34C119.359 41.86 119.959 40.58 120.759 39.5C121.599 38.42 122.639 37.56 123.879 36.92C125.159 36.28 126.679 35.96 128.439 35.96C130.199 35.96 131.699 36.28 132.939 36.92C134.219 37.56 135.259 38.42 136.059 39.5C136.899 40.58 137.499 41.86 137.859 43.34C138.259 44.78 138.459 46.3 138.459 47.9C138.459 49.54 138.279 51.08 137.919 52.52C137.559 53.96 136.979 55.22 136.179 56.3C135.379 57.38 134.339 58.24 133.059 58.88C131.779 59.52 130.239 59.84 128.439 59.84ZM122.319 15.56H126.879L103.659 60.44H98.9789L122.319 15.56Z" transform="translate(128 585)" fill="#333333"/>
<path d="M16.68 16.16C19.68 16.16 22.12 16.86 24 18.26C25.92 19.62 27.4 21.38 28.44 23.54C29.52 25.66 30.24 28 30.6 30.56C31 33.12 31.2 35.6 31.2 38C31.2 40.4 31 42.88 30.6 45.44C30.24 48 29.52 50.36 28.44 52.52C27.4 54.64 25.92 56.4 24 57.8C22.12 59.16 19.68 59.84 16.68 59.84C13.68 59.84 11.22 59.16 9.3 57.8C7.42 56.4 5.94 54.64 4.86 52.52C3.82 50.36 3.1 48 2.7 45.44C2.34 42.88 2.16 40.4 2.16 38C2.16 35.6 2.34 33.12 2.7 30.56C3.1 28 3.82 25.66 4.86 23.54C5.94 21.38 7.42 19.62 9.3 18.26C11.22 16.86 13.68 16.16 16.68 16.16ZM16.68 54.14C18.16 54.14 19.4 53.72 20.4 52.88C21.4 52 22.18 50.84 22.74 49.4C23.34 47.92 23.76 46.2 24 44.24C24.24 42.28 24.36 40.2 24.36 38C24.36 35.8 24.24 33.74 24 31.82C23.76 29.86 23.34 28.14 22.74 26.66C22.18 25.18 21.4 24.02 20.4 23.18C19.4 22.3 18.16 21.86 16.68 21.86C15.16 21.86 13.9 22.3 12.9 23.18C11.94 24.02 11.16 25.18 10.56 26.66C10 28.14 9.6 29.86 9.36 31.82C9.12 33.74 9 35.8 9 38C9 40.2 9.12 42.28 9.36 44.24C9.6 46.2 10 47.92 10.56 49.4C11.16 50.84 11.94 52 12.9 52.88C13.9 53.72 15.16 54.14 16.68 54.14ZM37.4798 50.9H45.8198V59H37.4798V50.9ZM53.2191 23.96C54.6591 23.96 56.0591 23.84 57.4191 23.6C58.7791 23.36 59.9991 22.96 61.0791 22.4C62.1991 21.84 63.1391 21.12 63.8991 20.24C64.6991 19.36 65.2191 18.28 65.4591 17H71.0391V59H63.5391V29.36H53.2191V23.96ZM93.6989 28.1C93.6989 29.22 93.7789 30.28 93.9389 31.28C94.0989 32.24 94.3589 33.08 94.7189 33.8C95.0789 34.52 95.5389 35.1 96.0989 35.54C96.6989 35.94 97.4189 36.14 98.2589 36.14C99.0989 36.14 99.8189 35.94 100.419 35.54C101.019 35.1 101.499 34.52 101.859 33.8C102.219 33.08 102.479 32.24 102.639 31.28C102.839 30.28 102.939 29.22 102.939 28.1C102.939 27.1 102.859 26.12 102.699 25.16C102.579 24.2 102.339 23.34 101.979 22.58C101.619 21.82 101.139 21.22 100.539 20.78C99.9389 20.3 99.1789 20.06 98.2589 20.06C97.3389 20.06 96.5789 20.3 95.9789 20.78C95.3789 21.22 94.8989 21.82 94.5389 22.58C94.2189 23.34 93.9989 24.2 93.8789 25.16C93.7589 26.12 93.6989 27.1 93.6989 28.1ZM98.3189 40.04C96.5189 40.04 94.9789 39.72 93.6989 39.08C92.4189 38.44 91.3789 37.58 90.5789 36.5C89.7789 35.42 89.1989 34.16 88.8389 32.72C88.4789 31.28 88.2989 29.74 88.2989 28.1C88.2989 26.5 88.4789 24.98 88.8389 23.54C89.2389 22.06 89.8389 20.78 90.6389 19.7C91.4789 18.62 92.5189 17.76 93.7589 17.12C95.0389 16.48 96.5589 16.16 98.3189 16.16C100.079 16.16 101.579 16.48 102.819 17.12C104.099 17.76 105.139 18.62 105.939 19.7C106.779 20.78 107.379 22.06 107.739 23.54C108.139 24.98 108.339 26.5 108.339 28.1C108.339 29.74 108.159 31.28 107.799 32.72C107.439 34.16 106.859 35.42 106.059 36.5C105.259 37.58 104.219 38.44 102.939 39.08C101.659 39.72 100.119 40.04 98.3189 40.04ZM123.819 47.9C123.819 49.02 123.899 50.08 124.059 51.08C124.219 52.04 124.479 52.88 124.839 53.6C125.199 54.32 125.659 54.9 126.219 55.34C126.819 55.74 127.539 55.94 128.379 55.94C129.219 55.94 129.939 55.74 130.539 55.34C131.139 54.9 131.619 54.32 131.979 53.6C132.339 52.88 132.599 52.04 132.759 51.08C132.959 50.08 133.059 49.02 133.059 47.9C133.059 46.9 132.979 45.92 132.819 44.96C132.699 44 132.459 43.14 132.099 42.38C131.739 41.62 131.259 41.02 130.659 40.58C130.059 40.1 129.299 39.86 128.379 39.86C127.459 39.86 126.699 40.1 126.099 40.58C125.499 41.02 125.019 41.62 124.659 42.38C124.339 43.14 124.119 44 123.999 44.96C123.879 45.92 123.819 46.9 123.819 47.9ZM128.439 59.84C126.639 59.84 125.099 59.52 123.819 58.88C122.539 58.24 121.499 57.38 120.699 56.3C119.899 55.22 119.319 53.96 118.959 52.52C118.599 51.08 118.419 49.54 118.419 47.9C118.419 46.3 118.599 44.78 118.959 43.34C119.359 41.86 119.959 40.58 120.759 39.5C121.599 38.42 122.639 37.56 123.879 36.92C125.159 36.28 126.679 35.96 128.439 35.96C130.199 35.96 131.699 36.28 132.939 36.92C134.219 37.56 135.259 38.42 136.059 39.5C136.899 40.58 137.499 41.86 137.859 43.34C138.259 44.78 138.459 46.3 138.459 47.9C138.459 49.54 138.279 51.08 137.919 52.52C137.559 53.96 136.979 55.22 136.179 56.3C135.379 57.38 134.339 58.24 133.059 58.88C131.779 59.52 130.239 59.84 128.439 59.84ZM122.319 15.56H126.879L103.659 60.44H98.9789L122.319 15.56Z" transform="translate(1608 585)" fill="#333333"/>
<path d="M31.02 59H2.34C2.38 55.52 3.22 52.48 4.86 49.88C6.5 47.28 8.74 45.02 11.58 43.1C12.94 42.1 14.36 41.14 15.84 40.22C17.32 39.26 18.68 38.24 19.92 37.16C21.16 36.08 22.18 34.92 22.98 33.68C23.78 32.4 24.2 30.94 24.24 29.3C24.24 28.54 24.14 27.74 23.94 26.9C23.78 26.02 23.44 25.22 22.92 24.5C22.4 23.74 21.68 23.12 20.76 22.64C19.84 22.12 18.64 21.86 17.16 21.86C15.8 21.86 14.66 22.14 13.74 22.7C12.86 23.22 12.14 23.96 11.58 24.92C11.06 25.84 10.66 26.94 10.38 28.22C10.14 29.5 10 30.88 9.96 32.36H3.12C3.12 30.04 3.42 27.9 4.02 25.94C4.66 23.94 5.6 22.22 6.84 20.78C8.08 19.34 9.58 18.22 11.34 17.42C13.14 16.58 15.22 16.16 17.58 16.16C20.14 16.16 22.28 16.58 24 17.42C25.72 18.26 27.1 19.32 28.14 20.6C29.22 21.88 29.98 23.28 30.42 24.8C30.86 26.28 31.08 27.7 31.08 29.06C31.08 30.74 30.82 32.26 30.3 33.62C29.78 34.98 29.08 36.24 28.2 37.4C27.32 38.52 26.32 39.56 25.2 40.52C24.08 41.48 22.92 42.38 21.72 43.22C20.52 44.06 19.32 44.86 18.12 45.62C16.92 46.38 15.8 47.14 14.76 47.9C13.76 48.66 12.88 49.46 12.12 50.3C11.36 51.1 10.84 51.96 10.56 52.88H31.02V59ZM37.4798 50.9H45.8198V59H37.4798V50.9ZM53.2191 23.96C54.6591 23.96 56.0591 23.84 57.4191 23.6C58.7791 23.36 59.9991 22.96 61.0791 22.4C62.1991 21.84 63.1391 21.12 63.8991 20.24C64.6991 19.36 65.2191 18.28 65.4591 17H71.0391V59H63.5391V29.36H53.2191V23.96ZM93.6989 28.1C93.6989 29.22 93.7789 30.28 93.9389 31.28C94.0989 32.24 94.3589 33.08 94.7189 33.8C95.0789 34.52 95.5389 35.1 96.0989 35.54C96.6989 35.94 97.4189 36.14 98.2589 36.14C99.0989 36.14 99.8189 35.94 100.419 35.54C101.019 35.1 101.499 34.52 101.859 33.8C102.219 33.08 102.479 32.24 102.639 31.28C102.839 30.28 102.939 29.22 102.939 28.1C102.939 27.1 102.859 26.12 102.699 25.16C102.579 24.2 102.339 23.34 101.979 22.58C101.619 21.82 101.139 21.22 100.539 20.78C99.9389 20.3 99.1789 20.06 98.2589 20.06C97.3389 20.06 96.5789 20.3 95.9789 20.78C95.3789 21.22 94.8989 21.82 94.5389 22.58C94.2189 23.34 93.9989 24.2 93.8789 25.16C93.7589 26.12 93.6989 27.1 93.6989 28.1ZM98.3189 40.04C96.5189 40.04 94.9789 39.72 93.6989 39.08C92.4189 38.44 91.3789 37.58 90.5789 36.5C89.7789 35.42 89.1989 34.16 88.8389 32.72C88.4789 31.28 88.2989 29.74 88.2989 28.1C88.2989 26.5 88.4789 24.98 88.8389 23.54C89.2389 22.06 89.8389 20.78 90.6389 19.7C91.4789 18.62 92.5189 17.76 93.7589 17.12C95.0389 16.48 96.5589 16.16 98.3189 16.16C100.079 16.16 101.579 16.48 102.819 17.12C104.099 17.76 105.139 18.62 105.939 19.7C106.779 20.78 107.379 22.06 107.739 23.54C108.139 24.98 108.339 26.5 108.339 28.1C108.339 29.74 108.159 31.28 107.799 32.72C107.439 34.16 106.859 35.42 106.059 36.5C105.259 37.58 104.219 38.44 102.939 39.08C101.659 39.72 100.119 40.04 98.3189 40.04ZM123.819 47.9C123.819 49.02 123.899 50.08 124.059 51.08C124.219 52.04 124.479 52.88 124.839 53.6C125.199 54.32 125.659 54.9 126.219 55.34C126.819 55.74 127.539 55.94 128.379 55.94C129.219 55.94 129.939 55.74 130.539 55.34C131.139 54.9 131.619 54.32 131.979 53.6C132.339 52.88 132.599 52.04 132.759 51.08C132.959 50.08 133.059 49.02 133.059 47.9C133.059 46.9 132.979 45.92 132.819 44.96C132.699 44 132.459 43.14 132.099 42.38C131.739 41.62 131.259 41.02 130.659 40.58C130.059 40.1 129.299 39.86 128.379 39.86C127.459 39.86 126.699 40.1 126.099 40.58C125.499 41.02 125.019 41.62 124.659 42.38C124.339 43.14 124.119 44 123.999 44.96C123.879 45.92 123.819 46.9 123.819 47.9ZM128.439 59.84C126.639 59.84 125.099 59.52 123.819 58.88C122.539 58.24 121.499 57.38 120.699 56.3C119.899 55.22 119.319 53.96 118.959 52.52C118.599 51.08 118.419 49.54 118.419 47.9C118.419 46.3 118.599 44.78 118.959 43.34C119.359 41.86 119.959 40.58 120.759 39.5C121.599 38.42 122.639 37.56 123.879 36.92C125.159 36.28 126.679 35.96 128.439 35.96C130.199 35.96 131.699 36.28 132.939 36.92C134.219 37.56 135.259 38.42 136.059 39.5C136.899 40.58 137.499 41.86 137.859 43.34C138.259 44.78 138.459 46.3 138.459 47.9C138.459 49.54 138.279 51.08 137.919 52.52C137.559 53.96 136.979 55.22 136.179 56.3C135.379 57.38 134.339 58.24 133.059 58.88C131.779 59.52 130.239 59.84 128.439 59.84ZM122.319 15.56H126.879L103.659 60.44H98.9789L122.319 15.56Z" transform="translate(289 489)" fill="#333333"/>
<path d="M31.02 59H2.34C2.38 55.52 3.22 52.48 4.86 49.88C6.5 47.28 8.74 45.02 11.58 43.1C12.94 42.1 14.36 41.14 15.84 40.22C17.32 39.26 18.68 38.24 19.92 37.16C21.16 36.08 22.18 34.92 22.98 33.68C23.78 32.4 24.2 30.94 24.24 29.3C24.24 28.54 24.14 27.74 23.94 26.9C23.78 26.02 23.44 25.22 22.92 24.5C22.4 23.74 21.68 23.12 20.76 22.64C19.84 22.12 18.64 21.86 17.16 21.86C15.8 21.86 14.66 22.14 13.74 22.7C12.86 23.22 12.14 23.96 11.58 24.92C11.06 25.84 10.66 26.94 10.38 28.22C10.14 29.5 10 30.88 9.96 32.36H3.12C3.12 30.04 3.42 27.9 4.02 25.94C4.66 23.94 5.6 22.22 6.84 20.78C8.08 19.34 9.58 18.22 11.34 17.42C13.14 16.58 15.22 16.16 17.58 16.16C20.14 16.16 22.28 16.58 24 17.42C25.72 18.26 27.1 19.32 28.14 20.6C29.22 21.88 29.98 23.28 30.42 24.8C30.86 26.28 31.08 27.7 31.08 29.06C31.08 30.74 30.82 32.26 30.3 33.62C29.78 34.98 29.08 36.24 28.2 37.4C27.32 38.52 26.32 39.56 25.2 40.52C24.08 41.48 22.92 42.38 21.72 43.22C20.52 44.06 19.32 44.86 18.12 45.62C16.92 46.38 15.8 47.14 14.76 47.9C13.76 48.66 12.88 49.46 12.12 50.3C11.36 51.1 10.84 51.96 10.56 52.88H31.02V59ZM37.4798 50.9H45.8198V59H37.4798V50.9ZM53.2191 23.96C54.6591 23.96 56.0591 23.84 57.4191 23.6C58.7791 23.36 59.9991 22.96 61.0791 22.4C62.1991 21.84 63.1391 21.12 63.8991 20.24C64.6991 19.36 65.2191 18.28 65.4591 17H71.0391V59H63.5391V29.36H53.2191V23.96ZM93.6989 28.1C93.6989 29.22 93.7789 30.28 93.9389 31.28C94.0989 32.24 94.3589 33.08 94.7189 33.8C95.0789 34.52 95.5389 35.1 96.0989 35.54C96.6989 35.94 97.4189 36.14 98.2589 36.14C99.0989 36.14 99.8189 35.94 100.419 35.54C101.019 35.1 101.499 34.52 101.859 33.8C102.219 33.08 102.479 32.24 102.639 31.28C102.839 30.28 102.939 29.22 102.939 28.1C102.939 27.1 102.859 26.12 102.699 25.16C102.579 24.2 102.339 23.34 101.979 22.58C101.619 21.82 101.139 21.22 100.539 20.78C99.9389 20.3 99.1789 20.06 98.2589 20.06C97.3389 20.06 96.5789 20.3 95.9789 20.78C95.3789 21.22 94.8989 21.82 94.5389 22.58C94.2189 23.34 93.9989 24.2 93.8789 25.16C93.7589 26.12 93.6989 27.1 93.6989 28.1ZM98.3189 40.04C96.5189 40.04 94.9789 39.72 93.6989 39.08C92.4189 38.44 91.3789 37.58 90.5789 36.5C89.7789 35.42 89.1989 34.16 88.8389 32.72C88.4789 31.28 88.2989 29.74 88.2989 28.1C88.2989 26.5 88.4789 24.98 88.8389 23.54C89.2389 22.06 89.8389 20.78 90.6389 19.7C91.4789 18.62 92.5189 17.76 93.7589 17.12C95.0389 16.48 96.5589 16.16 98.3189 16.16C100.079 16.16 101.579 16.48 102.819 17.12C104.099 17.76 105.139 18.62 105.939 19.7C106.779 20.78 107.379 22.06 107.739 23.54C108.139 24.98 108.339 26.5 108.339 28.1C108.339 29.74 108.159 31.28 107.799 32.72C107.439 34.16 106.859 35.42 106.059 36.5C105.259 37.58 104.219 38.44 102.939 39.08C101.659 39.72 100.119 40.04 98.3189 40.04ZM123.819 47.9C123.819 49.02 123.899 50.08 124.059 51.08C124.219 52.04 124.479 52.88 124.839 53.6C125.199 54.32 125.659 54.9 126.219 55.34C126.819 55.74 127.539 55.94 128.379 55.94C129.219 55.94 129.939 55.74 130.539 55.34C131.139 54.9 131.619 54.32 131.979 53.6C132.339 52.88 132.599 52.04 132.759 51.08C132.959 50.08 133.059 49.02 133.059 47.9C133.059 46.9 132.979 45.92 132.819 44.96C132.699 44 132.459 43.14 132.099 42.38C131.739 41.62 131.259 41.02 130.659 40.58C130.059 40.1 129.299 39.86 128.379 39.86C127.459 39.86 126.699 40.1 126.099 40.58C125.499 41.02 125.019 41.62 124.659 42.38C124.339 43.14 124.119 44 123.999 44.96C123.879 45.92 123.819 46.9 123.819 47.9ZM128.439 59.84C126.639 59.84 125.099 59.52 123.819 58.88C122.539 58.24 121.499 57.38 120.699 56.3C119.899 55.22 119.319 53.96 118.959 52.52C118.599 51.08 118.419 49.54 118.419 47.9C118.419 46.3 118.599 44.78 118.959 43.34C119.359 41.86 119.959 40.58 120.759 39.5C121.599 38.42 122.639 37.56 123.879 36.92C125.159 36.28 126.679 35.96 128.439 35.96C130.199 35.96 131.699 36.28 132.939 36.92C134.219 37.56 135.259 38.42 136.059 39.5C136.899 40.58 137.499 41.86 137.859 43.34C138.259 44.78 138.459 46.3 138.459 47.9C138.459 49.54 138.279 51.08 137.919 52.52C137.559 53.96 136.979 55.22 136.179 56.3C135.379 57.38 134.339 58.24 133.059 58.88C131.779 59.52 130.239 59.84 128.439 59.84ZM122.319 15.56H126.879L103.659 60.44H98.9789L122.319 15.56Z" transform="translate(1393 489)" fill="#333333"/>
<path d="M3.18 23.96C4.62 23.96 6.02 23.84 7.38 23.6C8.74 23.36 9.96 22.96 11.04 22.4C12.16 21.84 13.1 21.12 13.86 20.24C14.66 19.36 15.18 18.28 15.42 17H21V59H13.5V29.36H3.18V23.96ZM47.0198 34.4C48.1398 34.44 49.2598 34.36 50.3798 34.16C51.4998 33.96 52.4998 33.62 53.3798 33.14C54.2598 32.62 54.9598 31.92 55.4798 31.04C56.0398 30.16 56.3198 29.08 56.3198 27.8C56.3198 26 55.6998 24.56 54.4598 23.48C53.2598 22.4 51.6998 21.86 49.7798 21.86C48.5798 21.86 47.5398 22.1 46.6598 22.58C45.7798 23.06 45.0398 23.72 44.4398 24.56C43.8798 25.36 43.4598 26.28 43.1798 27.32C42.8998 28.32 42.7798 29.36 42.8198 30.44H35.9798C36.0598 28.4 36.4398 26.52 37.1198 24.8C37.7998 23.04 38.7198 21.52 39.8798 20.24C41.0798 18.96 42.5198 17.96 44.1998 17.24C45.8798 16.52 47.7798 16.16 49.8998 16.16C51.5398 16.16 53.1398 16.4 54.6998 16.88C56.2998 17.36 57.7198 18.06 58.9598 18.98C60.2398 19.9 61.2598 21.08 62.0198 22.52C62.7798 23.92 63.1598 25.54 63.1598 27.38C63.1598 29.5 62.6798 31.36 61.7198 32.96C60.7598 34.52 59.2598 35.66 57.2198 36.38V36.5C59.6198 36.98 61.4798 38.18 62.7998 40.1C64.1598 41.98 64.8398 44.28 64.8398 47C64.8398 49 64.4398 50.8 63.6398 52.4C62.8398 53.96 61.7598 55.3 60.3998 56.42C59.0398 57.5 57.4598 58.34 55.6598 58.94C53.8598 59.54 51.9598 59.84 49.9598 59.84C47.5198 59.84 45.3798 59.5 43.5398 58.82C41.7398 58.1 40.2198 57.1 38.9798 55.82C37.7798 54.54 36.8598 53 36.2198 51.2C35.5798 49.4 35.2398 47.4 35.1998 45.2H42.0398C41.9598 47.76 42.5798 49.9 43.8998 51.62C45.2598 53.3 47.2798 54.14 49.9598 54.14C52.2398 54.14 54.1398 53.5 55.6598 52.22C57.2198 50.9 57.9998 49.04 57.9998 46.64C57.9998 45 57.6798 43.7 57.0398 42.74C56.3998 41.78 55.5598 41.06 54.5198 40.58C53.4798 40.06 52.2998 39.74 50.9798 39.62C49.6998 39.5 48.3798 39.46 47.0198 39.5V34.4ZM70.8197 50.9H79.1597V59H70.8197V50.9ZM107.079 27.62C106.919 25.9 106.299 24.52 105.219 23.48C104.179 22.4 102.759 21.86 100.959 21.86C99.7189 21.86 98.6389 22.1 97.7189 22.58C96.8389 23.02 96.0789 23.62 95.4389 24.38C94.8389 25.14 94.3389 26.02 93.9389 27.02C93.5789 27.98 93.2789 29 93.0389 30.08C92.7989 31.16 92.6189 32.24 92.4989 33.32C92.4189 34.36 92.3389 35.34 92.2589 36.26L92.3789 36.38C93.2989 34.7 94.5589 33.46 96.1589 32.66C97.7989 31.82 99.5589 31.4 101.439 31.4C103.519 31.4 105.379 31.76 107.019 32.48C108.659 33.2 110.039 34.2 111.159 35.48C112.319 36.72 113.199 38.2 113.799 39.92C114.399 41.64 114.699 43.5 114.699 45.5C114.699 47.54 114.359 49.44 113.679 51.2C113.039 52.92 112.099 54.44 110.859 55.76C109.619 57.04 108.139 58.04 106.419 58.76C104.699 59.48 102.799 59.84 100.719 59.84C97.6389 59.84 95.0989 59.28 93.0989 58.16C91.1389 57 89.5789 55.44 88.4189 53.48C87.2989 51.48 86.5189 49.16 86.0789 46.52C85.6389 43.84 85.4189 40.96 85.4189 37.88C85.4189 35.36 85.6789 32.82 86.1989 30.26C86.7589 27.7 87.6589 25.38 88.8989 23.3C90.1389 21.18 91.7589 19.46 93.7589 18.14C95.7989 16.82 98.2989 16.16 101.259 16.16C102.939 16.16 104.519 16.44 105.999 17C107.479 17.56 108.779 18.34 109.899 19.34C111.059 20.34 111.999 21.54 112.719 22.94C113.439 24.34 113.839 25.9 113.919 27.62H107.079ZM100.479 54.14C101.719 54.14 102.799 53.9 103.719 53.42C104.639 52.9 105.399 52.24 105.999 51.44C106.639 50.64 107.099 49.72 107.379 48.68C107.699 47.6 107.859 46.5 107.859 45.38C107.859 44.26 107.699 43.18 107.379 42.14C107.099 41.1 106.639 40.2 105.999 39.44C105.399 38.64 104.639 38 103.719 37.52C102.799 37.04 101.719 36.8 100.479 36.8C99.2389 36.8 98.1389 37.04 97.1789 37.52C96.2589 37.96 95.4789 38.58 94.8389 39.38C94.1989 40.14 93.7189 41.04 93.3989 42.08C93.0789 43.12 92.9189 44.22 92.9189 45.38C92.9189 46.54 93.0789 47.64 93.3989 48.68C93.7189 49.72 94.1989 50.66 94.8389 51.5C95.4789 52.3 96.2589 52.94 97.1789 53.42C98.1389 53.9 99.2389 54.14 100.479 54.14ZM127.039 28.1C127.039 29.22 127.119 30.28 127.279 31.28C127.439 32.24 127.699 33.08 128.059 33.8C128.419 34.52 128.879 35.1 129.439 35.54C130.039 35.94 130.759 36.14 131.599 36.14C132.439 36.14 133.159 35.94 133.759 35.54C134.359 35.1 134.839 34.52 135.199 33.8C135.559 33.08 135.819 32.24 135.979 31.28C136.179 30.28 136.279 29.22 136.279 28.1C136.279 27.1 136.199 26.12 136.039 25.16C135.919 24.2 135.679 23.34 135.319 22.58C134.959 21.82 134.479 21.22 133.879 20.78C133.279 20.3 132.519 20.06 131.599 20.06C130.679 20.06 129.919 20.3 129.319 20.78C128.719 21.22 128.239 21.82 127.879 22.58C127.559 23.34 127.339 24.2 127.219 25.16C127.099 26.12 127.039 27.1 127.039 28.1ZM131.659 40.04C129.859 40.04 128.319 39.72 127.039 39.08C125.759 38.44 124.719 37.58 123.919 36.5C123.119 35.42 122.539 34.16 122.179 32.72C121.819 31.28 121.639 29.74 121.639 28.1C121.639 26.5 121.819 24.98 122.179 23.54C122.579 22.06 123.179 20.78 123.979 19.7C124.819 18.62 125.859 17.76 127.099 17.12C128.379 16.48 129.899 16.16 131.659 16.16C133.419 16.16 134.919 16.48 136.159 17.12C137.439 17.76 138.479 18.62 139.279 19.7C140.119 20.78 140.719 22.06 141.079 23.54C141.479 24.98 141.679 26.5 141.679 28.1C141.679 29.74 141.499 31.28 141.139 32.72C140.779 34.16 140.199 35.42 139.399 36.5C138.599 37.58 137.559 38.44 136.279 39.08C134.999 39.72 133.459 40.04 131.659 40.04ZM157.159 47.9C157.159 49.02 157.239 50.08 157.399 51.08C157.559 52.04 157.819 52.88 158.179 53.6C158.539 54.32 158.999 54.9 159.559 55.34C160.159 55.74 160.879 55.94 161.719 55.94C162.559 55.94 163.279 55.74 163.879 55.34C164.479 54.9 164.959 54.32 165.319 53.6C165.679 52.88 165.939 52.04 166.099 51.08C166.299 50.08 166.399 49.02 166.399 47.9C166.399 46.9 166.319 45.92 166.159 44.96C166.039 44 165.799 43.14 165.439 42.38C165.079 41.62 164.599 41.02 163.999 40.58C163.399 40.1 162.639 39.86 161.719 39.86C160.799 39.86 160.039 40.1 159.439 40.58C158.839 41.02 158.359 41.62 157.999 42.38C157.679 43.14 157.459 44 157.339 44.96C157.219 45.92 157.159 46.9 157.159 47.9ZM161.779 59.84C159.979 59.84 158.439 59.52 157.159 58.88C155.879 58.24 154.839 57.38 154.039 56.3C153.239 55.22 152.659 53.96 152.299 52.52C151.939 51.08 151.759 49.54 151.759 47.9C151.759 46.3 151.939 44.78 152.299 43.34C152.699 41.86 153.299 40.58 154.099 39.5C154.939 38.42 155.979 37.56 157.219 36.92C158.499 36.28 160.019 35.96 161.779 35.96C163.539 35.96 165.039 36.28 166.279 36.92C167.559 37.56 168.599 38.42 169.399 39.5C170.239 40.58 170.839 41.86 171.199 43.34C171.599 44.78 171.799 46.3 171.799 47.9C171.799 49.54 171.619 51.08 171.259 52.52C170.899 53.96 170.319 55.22 169.519 56.3C168.719 57.38 167.679 58.24 166.399 58.88C165.119 59.52 163.579 59.84 161.779 59.84ZM155.659 15.56H160.219L136.999 60.44H132.319L155.659 15.56Z" transform="translate(495 585)" fill="white"/>
<path d="M3.18 23.96C4.62 23.96 6.02 23.84 7.38 23.6C8.74 23.36 9.96 22.96 11.04 22.4C12.16 21.84 13.1 21.12 13.86 20.24C14.66 19.36 15.18 18.28 15.42 17H21V59H13.5V29.36H3.18V23.96ZM47.0198 34.4C48.1398 34.44 49.2598 34.36 50.3798 34.16C51.4998 33.96 52.4998 33.62 53.3798 33.14C54.2598 32.62 54.9598 31.92 55.4798 31.04C56.0398 30.16 56.3198 29.08 56.3198 27.8C56.3198 26 55.6998 24.56 54.4598 23.48C53.2598 22.4 51.6998 21.86 49.7798 21.86C48.5798 21.86 47.5398 22.1 46.6598 22.58C45.7798 23.06 45.0398 23.72 44.4398 24.56C43.8798 25.36 43.4598 26.28 43.1798 27.32C42.8998 28.32 42.7798 29.36 42.8198 30.44H35.9798C36.0598 28.4 36.4398 26.52 37.1198 24.8C37.7998 23.04 38.7198 21.52 39.8798 20.24C41.0798 18.96 42.5198 17.96 44.1998 17.24C45.8798 16.52 47.7798 16.16 49.8998 16.16C51.5398 16.16 53.1398 16.4 54.6998 16.88C56.2998 17.36 57.7198 18.06 58.9598 18.98C60.2398 19.9 61.2598 21.08 62.0198 22.52C62.7798 23.92 63.1598 25.54 63.1598 27.38C63.1598 29.5 62.6798 31.36 61.7198 32.96C60.7598 34.52 59.2598 35.66 57.2198 36.38V36.5C59.6198 36.98 61.4798 38.18 62.7998 40.1C64.1598 41.98 64.8398 44.28 64.8398 47C64.8398 49 64.4398 50.8 63.6398 52.4C62.8398 53.96 61.7598 55.3 60.3998 56.42C59.0398 57.5 57.4598 58.34 55.6598 58.94C53.8598 59.54 51.9598 59.84 49.9598 59.84C47.5198 59.84 45.3798 59.5 43.5398 58.82C41.7398 58.1 40.2198 57.1 38.9798 55.82C37.7798 54.54 36.8598 53 36.2198 51.2C35.5798 49.4 35.2398 47.4 35.1998 45.2H42.0398C41.9598 47.76 42.5798 49.9 43.8998 51.62C45.2598 53.3 47.2798 54.14 49.9598 54.14C52.2398 54.14 54.1398 53.5 55.6598 52.22C57.2198 50.9 57.9998 49.04 57.9998 46.64C57.9998 45 57.6798 43.7 57.0398 42.74C56.3998 41.78 55.5598 41.06 54.5198 40.58C53.4798 40.06 52.2998 39.74 50.9798 39.62C49.6998 39.5 48.3798 39.46 47.0198 39.5V34.4ZM70.8197 50.9H79.1597V59H70.8197V50.9ZM107.079 27.62C106.919 25.9 106.299 24.52 105.219 23.48C104.179 22.4 102.759 21.86 100.959 21.86C99.7189 21.86 98.6389 22.1 97.7189 22.58C96.8389 23.02 96.0789 23.62 95.4389 24.38C94.8389 25.14 94.3389 26.02 93.9389 27.02C93.5789 27.98 93.2789 29 93.0389 30.08C92.7989 31.16 92.6189 32.24 92.4989 33.32C92.4189 34.36 92.3389 35.34 92.2589 36.26L92.3789 36.38C93.2989 34.7 94.5589 33.46 96.1589 32.66C97.7989 31.82 99.5589 31.4 101.439 31.4C103.519 31.4 105.379 31.76 107.019 32.48C108.659 33.2 110.039 34.2 111.159 35.48C112.319 36.72 113.199 38.2 113.799 39.92C114.399 41.64 114.699 43.5 114.699 45.5C114.699 47.54 114.359 49.44 113.679 51.2C113.039 52.92 112.099 54.44 110.859 55.76C109.619 57.04 108.139 58.04 106.419 58.76C104.699 59.48 102.799 59.84 100.719 59.84C97.6389 59.84 95.0989 59.28 93.0989 58.16C91.1389 57 89.5789 55.44 88.4189 53.48C87.2989 51.48 86.5189 49.16 86.0789 46.52C85.6389 43.84 85.4189 40.96 85.4189 37.88C85.4189 35.36 85.6789 32.82 86.1989 30.26C86.7589 27.7 87.6589 25.38 88.8989 23.3C90.1389 21.18 91.7589 19.46 93.7589 18.14C95.7989 16.82 98.2989 16.16 101.259 16.16C102.939 16.16 104.519 16.44 105.999 17C107.479 17.56 108.779 18.34 109.899 19.34C111.059 20.34 111.999 21.54 112.719 22.94C113.439 24.34 113.839 25.9 113.919 27.62H107.079ZM100.479 54.14C101.719 54.14 102.799 53.9 103.719 53.42C104.639 52.9 105.399 52.24 105.999 51.44C106.639 50.64 107.099 49.72 107.379 48.68C107.699 47.6 107.859 46.5 107.859 45.38C107.859 44.26 107.699 43.18 107.379 42.14C107.099 41.1 106.639 40.2 105.999 39.44C105.399 38.64 104.639 38 103.719 37.52C102.799 37.04 101.719 36.8 100.479 36.8C99.2389 36.8 98.1389 37.04 97.1789 37.52C96.2589 37.96 95.4789 38.58 94.8389 39.38C94.1989 40.14 93.7189 41.04 93.3989 42.08C93.0789 43.12 92.9189 44.22 92.9189 45.38C92.9189 46.54 93.0789 47.64 93.3989 48.68C93.7189 49.72 94.1989 50.66 94.8389 51.5C95.4789 52.3 96.2589 52.94 97.1789 53.42C98.1389 53.9 99.2389 54.14 100.479 54.14ZM127.039 28.1C127.039 29.22 127.119 30.28 127.279 31.28C127.439 32.24 127.699 33.08 128.059 33.8C128.419 34.52 128.879 35.1 129.439 35.54C130.039 35.94 130.759 36.14 131.599 36.14C132.439 36.14 133.159 35.94 133.759 35.54C134.359 35.1 134.839 34.52 135.199 33.8C135.559 33.08 135.819 32.24 135.979 31.28C136.179 30.28 136.279 29.22 136.279 28.1C136.279 27.1 136.199 26.12 136.039 25.16C135.919 24.2 135.679 23.34 135.319 22.58C134.959 21.82 134.479 21.22 133.879 20.78C133.279 20.3 132.519 20.06 131.599 20.06C130.679 20.06 129.919 20.3 129.319 20.78C128.719 21.22 128.239 21.82 127.879 22.58C127.559 23.34 127.339 24.2 127.219 25.16C127.099 26.12 127.039 27.1 127.039 28.1ZM131.659 40.04C129.859 40.04 128.319 39.72 127.039 39.08C125.759 38.44 124.719 37.58 123.919 36.5C123.119 35.42 122.539 34.16 122.179 32.72C121.819 31.28 121.639 29.74 121.639 28.1C121.639 26.5 121.819 24.98 122.179 23.54C122.579 22.06 123.179 20.78 123.979 19.7C124.819 18.62 125.859 17.76 127.099 17.12C128.379 16.48 129.899 16.16 131.659 16.16C133.419 16.16 134.919 16.48 136.159 17.12C137.439 17.76 138.479 18.62 139.279 19.7C140.119 20.78 140.719 22.06 141.079 23.54C141.479 24.98 141.679 26.5 141.679 28.1C141.679 29.74 141.499 31.28 141.139 32.72C140.779 34.16 140.199 35.42 139.399 36.5C138.599 37.58 137.559 38.44 136.279 39.08C134.999 39.72 133.459 40.04 131.659 40.04ZM157.159 47.9C157.159 49.02 157.239 50.08 157.399 51.08C157.559 52.04 157.819 52.88 158.179 53.6C158.539 54.32 158.999 54.9 159.559 55.34C160.159 55.74 160.879 55.94 161.719 55.94C162.559 55.94 163.279 55.74 163.879 55.34C164.479 54.9 164.959 54.32 165.319 53.6C165.679 52.88 165.939 52.04 166.099 51.08C166.299 50.08 166.399 49.02 166.399 47.9C166.399 46.9 166.319 45.92 166.159 44.96C166.039 44 165.799 43.14 165.439 42.38C165.079 41.62 164.599 41.02 163.999 40.58C163.399 40.1 162.639 39.86 161.719 39.86C160.799 39.86 160.039 40.1 159.439 40.58C158.839 41.02 158.359 41.62 157.999 42.38C157.679 43.14 157.459 44 157.339 44.96C157.219 45.92 157.159 46.9 157.159 47.9ZM161.779 59.84C159.979 59.84 158.439 59.52 157.159 58.88C155.879 58.24 154.839 57.38 154.039 56.3C153.239 55.22 152.659 53.96 152.299 52.52C151.939 51.08 151.759 49.54 151.759 47.9C151.759 46.3 151.939 44.78 152.299 43.34C152.699 41.86 153.299 40.58 154.099 39.5C154.939 38.42 155.979 37.56 157.219 36.92C158.499 36.28 160.019 35.96 161.779 35.96C163.539 35.96 165.039 36.28 166.279 36.92C167.559 37.56 168.599 38.42 169.399 39.5C170.239 40.58 170.839 41.86 171.199 43.34C171.599 44.78 171.799 46.3 171.799 47.9C171.799 49.54 171.619 51.08 171.259 52.52C170.899 53.96 170.319 55.22 169.519 56.3C168.719 57.38 167.679 58.24 166.399 58.88C165.119 59.52 163.579 59.84 161.779 59.84ZM155.659 15.56H160.219L136.999 60.44H132.319L155.659 15.56Z" transform="translate(1144 570)" fill="white"/>
<path d="M13.68 34.4C14.8 34.44 15.92 34.36 17.04 34.16C18.16 33.96 19.16 33.62 20.04 33.14C20.92 32.62 21.62 31.92 22.14 31.04C22.7 30.16 22.98 29.08 22.98 27.8C22.98 26 22.36 24.56 21.12 23.48C19.92 22.4 18.36 21.86 16.44 21.86C15.24 21.86 14.2 22.1 13.32 22.58C12.44 23.06 11.7 23.72 11.1 24.56C10.54 25.36 10.12 26.28 9.84 27.32C9.56 28.32 9.44 29.36 9.48 30.44H2.64C2.72 28.4 3.1 26.52 3.78 24.8C4.46 23.04 5.38 21.52 6.54 20.24C7.74 18.96 9.18 17.96 10.86 17.24C12.54 16.52 14.44 16.16 16.56 16.16C18.2 16.16 19.8 16.4 21.36 16.88C22.96 17.36 24.38 18.06 25.62 18.98C26.9 19.9 27.92 21.08 28.68 22.52C29.44 23.92 29.82 25.54 29.82 27.38C29.82 29.5 29.34 31.36 28.38 32.96C27.42 34.52 25.92 35.66 23.88 36.38V36.5C26.28 36.98 28.14 38.18 29.46 40.1C30.82 41.98 31.5 44.28 31.5 47C31.5 49 31.1 50.8 30.3 52.4C29.5 53.96 28.42 55.3 27.06 56.42C25.7 57.5 24.12 58.34 22.32 58.94C20.52 59.54 18.62 59.84 16.62 59.84C14.18 59.84 12.04 59.5 10.2 58.82C8.4 58.1 6.88 57.1 5.64 55.82C4.44 54.54 3.52 53 2.88 51.2C2.24 49.4 1.9 47.4 1.86 45.2H8.7C8.62 47.76 9.24 49.9 10.56 51.62C11.92 53.3 13.94 54.14 16.62 54.14C18.9 54.14 20.8 53.5 22.32 52.22C23.88 50.9 24.66 49.04 24.66 46.64C24.66 45 24.34 43.7 23.7 42.74C23.06 41.78 22.22 41.06 21.18 40.58C20.14 40.06 18.96 39.74 17.64 39.62C16.36 39.5 15.04 39.46 13.68 39.5V34.4ZM40.0598 43.64H52.7798V25.16H52.6598L40.0598 43.64ZM64.6598 49.04H59.2598V59H52.7798V49.04H34.7798V42.26L52.7798 17H59.2598V43.64H64.6598V49.04ZM70.8197 50.9H79.1597V59H70.8197V50.9ZM86.5589 23.96C87.9989 23.96 89.3989 23.84 90.7589 23.6C92.1189 23.36 93.3389 22.96 94.4189 22.4C95.5389 21.84 96.4789 21.12 97.2389 20.24C98.0389 19.36 98.5589 18.28 98.7989 17H104.379V59H96.8789V29.36H86.5589V23.96ZM127.039 28.1C127.039 29.22 127.119 30.28 127.279 31.28C127.439 32.24 127.699 33.08 128.059 33.8C128.419 34.52 128.879 35.1 129.439 35.54C130.039 35.94 130.759 36.14 131.599 36.14C132.439 36.14 133.159 35.94 133.759 35.54C134.359 35.1 134.839 34.52 135.199 33.8C135.559 33.08 135.819 32.24 135.979 31.28C136.179 30.28 136.279 29.22 136.279 28.1C136.279 27.1 136.199 26.12 136.039 25.16C135.919 24.2 135.679 23.34 135.319 22.58C134.959 21.82 134.479 21.22 133.879 20.78C133.279 20.3 132.519 20.06 131.599 20.06C130.679 20.06 129.919 20.3 129.319 20.78C128.719 21.22 128.239 21.82 127.879 22.58C127.559 23.34 127.339 24.2 127.219 25.16C127.099 26.12 127.039 27.1 127.039 28.1ZM131.659 40.04C129.859 40.04 128.319 39.72 127.039 39.08C125.759 38.44 124.719 37.58 123.919 36.5C123.119 35.42 122.539 34.16 122.179 32.72C121.819 31.28 121.639 29.74 121.639 28.1C121.639 26.5 121.819 24.98 122.179 23.54C122.579 22.06 123.179 20.78 123.979 19.7C124.819 18.62 125.859 17.76 127.099 17.12C128.379 16.48 129.899 16.16 131.659 16.16C133.419 16.16 134.919 16.48 136.159 17.12C137.439 17.76 138.479 18.62 139.279 19.7C140.119 20.78 140.719 22.06 141.079 23.54C141.479 24.98 141.679 26.5 141.679 28.1C141.679 29.74 141.499 31.28 141.139 32.72C140.779 34.16 140.199 35.42 139.399 36.5C138.599 37.58 137.559 38.44 136.279 39.08C134.999 39.72 133.459 40.04 131.659 40.04ZM157.159 47.9C157.159 49.02 157.239 50.08 157.399 51.08C157.559 52.04 157.819 52.88 158.179 53.6C158.539 54.32 158.999 54.9 159.559 55.34C160.159 55.74 160.879 55.94 161.719 55.94C162.559 55.94 163.279 55.74 163.879 55.34C164.479 54.9 164.959 54.32 165.319 53.6C165.679 52.88 165.939 52.04 166.099 51.08C166.299 50.08 166.399 49.02 166.399 47.9C166.399 46.9 166.319 45.92 166.159 44.96C166.039 44 165.799 43.14 165.439 42.38C165.079 41.62 164.599 41.02 163.999 40.58C163.399 40.1 162.639 39.86 161.719 39.86C160.799 39.86 160.039 40.1 159.439 40.58C158.839 41.02 158.359 41.62 157.999 42.38C157.679 43.14 157.459 44 157.339 44.96C157.219 45.92 157.159 46.9 157.159 47.9ZM161.779 59.84C159.979 59.84 158.439 59.52 157.159 58.88C155.879 58.24 154.839 57.38 154.039 56.3C153.239 55.22 152.659 53.96 152.299 52.52C151.939 51.08 151.759 49.54 151.759 47.9C151.759 46.3 151.939 44.78 152.299 43.34C152.699 41.86 153.299 40.58 154.099 39.5C154.939 38.42 155.979 37.56 157.219 36.92C158.499 36.28 160.019 35.96 161.779 35.96C163.539 35.96 165.039 36.28 166.279 36.92C167.559 37.56 168.599 38.42 169.399 39.5C170.239 40.58 170.839 41.86 171.199 43.34C171.599 44.78 171.799 46.3 171.799 47.9C171.799 49.54 171.619 51.08 171.259 52.52C170.899 53.96 170.319 55.22 169.519 56.3C168.719 57.38 167.679 58.24 166.399 58.88C165.119 59.52 163.579 59.84 161.779 59.84ZM155.659 15.56H160.219L136.999 60.44H132.319L155.659 15.56Z" transform="translate(709 259)" fill="white"/>
<path d="M13.68 34.4C14.8 34.44 15.92 34.36 17.04 34.16C18.16 33.96 19.16 33.62 20.04 33.14C20.92 32.62 21.62 31.92 22.14 31.04C22.7 30.16 22.98 29.08 22.98 27.8C22.98 26 22.36 24.56 21.12 23.48C19.92 22.4 18.36 21.86 16.44 21.86C15.24 21.86 14.2 22.1 13.32 22.58C12.44 23.06 11.7 23.72 11.1 24.56C10.54 25.36 10.12 26.28 9.84 27.32C9.56 28.32 9.44 29.36 9.48 30.44H2.64C2.72 28.4 3.1 26.52 3.78 24.8C4.46 23.04 5.38 21.52 6.54 20.24C7.74 18.96 9.18 17.96 10.86 17.24C12.54 16.52 14.44 16.16 16.56 16.16C18.2 16.16 19.8 16.4 21.36 16.88C22.96 17.36 24.38 18.06 25.62 18.98C26.9 19.9 27.92 21.08 28.68 22.52C29.44 23.92 29.82 25.54 29.82 27.38C29.82 29.5 29.34 31.36 28.38 32.96C27.42 34.52 25.92 35.66 23.88 36.38V36.5C26.28 36.98 28.14 38.18 29.46 40.1C30.82 41.98 31.5 44.28 31.5 47C31.5 49 31.1 50.8 30.3 52.4C29.5 53.96 28.42 55.3 27.06 56.42C25.7 57.5 24.12 58.34 22.32 58.94C20.52 59.54 18.62 59.84 16.62 59.84C14.18 59.84 12.04 59.5 10.2 58.82C8.4 58.1 6.88 57.1 5.64 55.82C4.44 54.54 3.52 53 2.88 51.2C2.24 49.4 1.9 47.4 1.86 45.2H8.7C8.62 47.76 9.24 49.9 10.56 51.62C11.92 53.3 13.94 54.14 16.62 54.14C18.9 54.14 20.8 53.5 22.32 52.22C23.88 50.9 24.66 49.04 24.66 46.64C24.66 45 24.34 43.7 23.7 42.74C23.06 41.78 22.22 41.06 21.18 40.58C20.14 40.06 18.96 39.74 17.64 39.62C16.36 39.5 15.04 39.46 13.68 39.5V34.4ZM40.0598 43.64H52.7798V25.16H52.6598L40.0598 43.64ZM64.6598 49.04H59.2598V59H52.7798V49.04H34.7798V42.26L52.7798 17H59.2598V43.64H64.6598V49.04ZM70.8197 50.9H79.1597V59H70.8197V50.9ZM86.5589 23.96C87.9989 23.96 89.3989 23.84 90.7589 23.6C92.1189 23.36 93.3389 22.96 94.4189 22.4C95.5389 21.84 96.4789 21.12 97.2389 20.24C98.0389 19.36 98.5589 18.28 98.7989 17H104.379V59H96.8789V29.36H86.5589V23.96ZM127.039 28.1C127.039 29.22 127.119 30.28 127.279 31.28C127.439 32.24 127.699 33.08 128.059 33.8C128.419 34.52 128.879 35.1 129.439 35.54C130.039 35.94 130.759 36.14 131.599 36.14C132.439 36.14 133.159 35.94 133.759 35.54C134.359 35.1 134.839 34.52 135.199 33.8C135.559 33.08 135.819 32.24 135.979 31.28C136.179 30.28 136.279 29.22 136.279 28.1C136.279 27.1 136.199 26.12 136.039 25.16C135.919 24.2 135.679 23.34 135.319 22.58C134.959 21.82 134.479 21.22 133.879 20.78C133.279 20.3 132.519 20.06 131.599 20.06C130.679 20.06 129.919 20.3 129.319 20.78C128.719 21.22 128.239 21.82 127.879 22.58C127.559 23.34 127.339 24.2 127.219 25.16C127.099 26.12 127.039 27.1 127.039 28.1ZM131.659 40.04C129.859 40.04 128.319 39.72 127.039 39.08C125.759 38.44 124.719 37.58 123.919 36.5C123.119 35.42 122.539 34.16 122.179 32.72C121.819 31.28 121.639 29.74 121.639 28.1C121.639 26.5 121.819 24.98 122.179 23.54C122.579 22.06 123.179 20.78 123.979 19.7C124.819 18.62 125.859 17.76 127.099 17.12C128.379 16.48 129.899 16.16 131.659 16.16C133.419 16.16 134.919 16.48 136.159 17.12C137.439 17.76 138.479 18.62 139.279 19.7C140.119 20.78 140.719 22.06 141.079 23.54C141.479 24.98 141.679 26.5 141.679 28.1C141.679 29.74 141.499 31.28 141.139 32.72C140.779 34.16 140.199 35.42 139.399 36.5C138.599 37.58 137.559 38.44 136.279 39.08C134.999 39.72 133.459 40.04 131.659 40.04ZM157.159 47.9C157.159 49.02 157.239 50.08 157.399 51.08C157.559 52.04 157.819 52.88 158.179 53.6C158.539 54.32 158.999 54.9 159.559 55.34C160.159 55.74 160.879 55.94 161.719 55.94C162.559 55.94 163.279 55.74 163.879 55.34C164.479 54.9 164.959 54.32 165.319 53.6C165.679 52.88 165.939 52.04 166.099 51.08C166.299 50.08 166.399 49.02 166.399 47.9C166.399 46.9 166.319 45.92 166.159 44.96C166.039 44 165.799 43.14 165.439 42.38C165.079 41.62 164.599 41.02 163.999 40.58C163.399 40.1 162.639 39.86 161.719 39.86C160.799 39.86 160.039 40.1 159.439 40.58C158.839 41.02 158.359 41.62 157.999 42.38C157.679 43.14 157.459 44 157.339 44.96C157.219 45.92 157.159 46.9 157.159 47.9ZM161.779 59.84C159.979 59.84 158.439 59.52 157.159 58.88C155.879 58.24 154.839 57.38 154.039 56.3C153.239 55.22 152.659 53.96 152.299 52.52C151.939 51.08 151.759 49.54 151.759 47.9C151.759 46.3 151.939 44.78 152.299 43.34C152.699 41.86 153.299 40.58 154.099 39.5C154.939 38.42 155.979 37.56 157.219 36.92C158.499 36.28 160.019 35.96 161.779 35.96C163.539 35.96 165.039 36.28 166.279 36.92C167.559 37.56 168.599 38.42 169.399 39.5C170.239 40.58 170.839 41.86 171.199 43.34C171.599 44.78 171.799 46.3 171.799 47.9C171.799 49.54 171.619 51.08 171.259 52.52C170.899 53.96 170.319 55.22 169.519 56.3C168.719 57.38 167.679 58.24 166.399 58.88C165.119 59.52 163.579 59.84 161.779 59.84ZM155.659 15.56H160.219L136.999 60.44H132.319L155.659 15.56Z" transform="translate(930 259)" fill="white"/>
</svg>
