<svg width="2373" height="1505" viewBox="0 0 2373 1505" version="1.1" xmlns="http://www.w3.org/2000/svg" xmlns:xlink="http://www.w3.org/1999/xlink">
<g id="Canvas" fill="none">
<g id="formvar">
<g id="CodeCogsEqn (16)">
<g id="page1">
<path id="Vector" d="M 86.2994 9.91428C 88.6863 9.91428 94.7456 9.91428 94.7456 4.03924C 94.7456 1.83072e-06 91.2569 1.22556e-06 87.9518 1.22556e-06L 47.3728 1.22556e-06C 19.8304 1.22556e-06 -1.09795e-07 30.6609 -1.09795e-07 52.3254C -1.09795e-07 67.9311 10.0989 80.9665 26.6243 80.9665C 48.291 80.9665 71.9773 57.6497 71.9773 30.11C 71.9773 22.9498 70.3248 15.973 65.918 9.91428L 86.2994 9.91428ZM 26.8079 77.2946C 17.4435 77.2946 10.6498 70.1343 10.6498 57.4661C 10.6498 46.4502 17.2598 9.91428 44.2513 9.91428C 52.1468 9.91428 60.9603 13.7699 60.9603 27.9069C 60.9603 34.3328 58.0225 49.7549 51.596 60.4036C 44.9858 71.2359 35.0705 77.2946 26.8079 77.2946Z" transform="translate(581 940.198) scale(1.13)" fill="black"/>
<path id="Vector_2" d="M 28.032 56.4256C 29.9905 54.5897 35.1318 50.5504 37.0903 48.8369C 44.6798 41.8601 51.9019 35.1283 51.9019 23.99C 51.9019 9.42454 39.6609 1.89106e-06 24.3597 1.89106e-06C 9.67035 1.89106e-06 2.39335e-08 11.1382 2.39335e-08 22.0317C 2.39335e-08 28.0291 4.774 28.8859 6.48775 28.8859C 9.0583 28.8859 12.8531 27.05 12.8531 22.3989C 12.8531 16.0341 6.73257 16.0341 5.26365 16.0341C 8.81355 7.099 17.015 4.03909 23.0132 4.03909C 34.3974 4.03909 40.273 13.7086 40.273 23.99C 40.273 36.7194 31.337 46.0217 16.8926 60.8319L 1.46892 76.7437C -2.28862e-07 78.0901 2.39335e-08 78.3349 2.39335e-08 81.3948L 48.3521 81.3948L 51.9019 59.4855L 48.1073 59.4855C 47.7401 61.9335 46.7608 68.0534 45.2919 70.379C 44.5574 71.3582 35.2542 71.3582 33.2957 71.3582L 11.5066 71.3582L 28.032 56.4256Z" transform="translate(702.932 851.978) scale(1.13)" fill="black"/>
<path id="Vector_3" d="M 114.025 6.79324C 116.596 6.79324 119.901 6.79325 119.901 3.48838C 119.901 3.43259e-06 116.78 -3.33454e-06 114.025 -3.33454e-06L 5.87563 -3.33454e-06C 3.30508 -3.33454e-06 -3.00326e-07 2.97492e-06 -3.00326e-07 3.30487C -3.00326e-07 6.79325 3.12147 6.79324 5.87563 6.79324L 114.025 6.79324ZM 114.025 40.9424C 116.596 40.9424 119.901 40.9424 119.901 37.6375C 119.901 34.1493 116.78 34.1493 114.025 34.1493L 5.87563 34.1493C 3.30508 34.1493 -3.00326e-07 34.1493 -3.00326e-07 37.454C -3.00326e-07 40.9424 3.12147 40.9424 5.87563 40.9424L 114.025 40.9424Z" transform="translate(846.571 954.72) scale(1.13)" fill="black"/>
<path id="Vector_4" d="M 55.0847 65.7279C 56.5536 63.892 56.9208 63.5248 56.9208 62.6067C 56.9208 62.2395 56.9208 61.8723 55.8191 60.4036L 18.7288 5.32433L 62.0621 5.32433C 92.9094 5.32433 102.274 11.9339 105.763 40.9422L 109.802 40.9422L 105.028 7.30646e-06L 4.59039 7.30646e-06C 0.183613 7.30646e-06 -3.00326e-07 9.15358e-07 -3.00326e-07 4.22276L 44.6185 70.3179L 2.01977 120.624C 0.550855 122.276 0.183613 122.827 0.183613 123.561C 0.183613 125.397 1.65255 125.397 4.59039 125.397L 105.028 125.397L 109.802 82.6189L 105.763 82.6189C 102.457 112.912 90.8897 118.237 61.5112 118.237L 10.6497 118.237L 55.0847 65.7279Z" transform="translate(1082.38 747.564) scale(1.13)" fill="black"/>
<path id="Vector_5" d="M 41.6807 182.312C 41.6807 181.762 41.6807 181.394 38.5592 178.273C 20.1976 159.73 9.91526 129.436 9.91526 91.9824C 9.91526 56.3645 18.5451 25.7038 39.8446 4.03925C 41.6807 2.38682 41.6807 2.01961 41.6807 1.46891C 41.6807 0.367184 40.7625 -1.83247e-06 40.0281 -1.83247e-06C 37.6412 -1.83247e-06 22.5846 13.2191 13.5875 31.2116C 4.22317 49.7549 -3.45673e-08 69.4 -3.45673e-08 91.9824C -3.45673e-08 108.323 2.57058 130.171 12.1186 149.816C 22.9519 171.847 38.0084 183.781 40.0281 183.781C 40.7625 183.781 41.6807 183.414 41.6807 182.312Z" transform="translate(1237.68 733.664) scale(1.13)" fill="black"/>
<path id="Vector_6" d="M 81.8925 6.05871C 76.0168 7.16028 73.8134 11.5667 73.8134 15.0549C 73.8134 19.4614 77.3021 20.9301 79.8727 20.9301C 85.3813 20.9301 89.2372 16.1567 89.2372 11.1995C 89.2372 3.48838 80.4236 -2.2777e-06 72.7117 -2.2777e-06C 61.5113 -2.2777e-06 55.2683 11.0158 53.6157 14.5042C 49.3925 0.734377 38.0083 -2.2777e-06 34.7033 -2.2777e-06C 15.9745 -2.2777e-06 6.0593 24.0513 6.0593 28.0904C 6.0593 28.8248 6.79377 29.7428 8.07908 29.7428C 9.548 29.7428 9.91524 28.6413 10.2824 27.9069C 16.5254 7.52747 28.8277 3.6719 34.1526 3.6719C 42.4152 3.6719 44.0678 11.383 44.0678 15.7895C 44.0678 19.8286 42.966 24.0513 40.7626 32.864L 34.5198 58.0168C 31.7655 69.0327 26.4407 79.1305 16.7091 79.1305C 15.7909 79.1305 11.2005 79.1305 7.34461 76.7438C 13.9548 75.4586 15.4237 69.9507 15.4237 67.7475C 15.4237 64.0755 12.6694 61.8723 9.18077 61.8723C 4.774 61.8723 -1.55553e-07 65.7279 -1.55553e-07 71.603C -1.55553e-07 79.3141 8.62993 82.8025 16.5254 82.8025C 25.339 82.8025 31.5818 75.8258 35.4378 68.2983C 38.3756 79.1305 47.5564 82.8025 54.3501 82.8025C 73.079 82.8025 82.9942 58.7511 82.9942 54.7121C 82.9942 53.7942 82.2598 53.0596 81.1581 53.0596C 79.5055 53.0596 79.322 53.9777 78.771 55.4464C 73.8134 71.603 63.1637 79.1305 54.901 79.1305C 48.4745 79.1305 44.9858 74.357 44.9858 66.8295C 44.9858 62.7904 45.7202 59.8529 48.6581 47.7353L 55.0847 22.7661C 57.8389 11.7502 64.0819 3.6719 72.5282 3.6719C 72.8954 3.6719 78.0366 3.6719 81.8925 6.05871Z" transform="translate(1301.87 797.771) scale(1.13)" fill="black"/>
<path id="Vector_7" d="M 32.8059 4.65107C 32.8059 1.95835 30.8474 2.59171e-06 28.032 2.59171e-06C 24.8494 2.59171e-06 21.2994 2.93752 21.2994 6.60942C 21.2994 9.30214 23.2579 11.2606 26.0735 11.2606C 29.2561 11.2606 32.8059 8.32297 32.8059 4.65107ZM 14.9341 49.5712L 8.32391 66.4622C 7.71185 68.2982 7.09981 69.767 7.09981 71.8478C 7.09981 77.8453 11.7513 82.2516 18.2392 82.2516C 30.1129 82.2516 35.1319 65.1159 35.1319 63.5246C 35.1319 62.3006 34.1524 61.9335 33.2956 61.9335C 31.8267 61.9335 31.5818 62.7902 31.2146 64.0142C 28.3992 73.8061 23.3803 78.8245 18.484 78.8245C 17.0151 78.8245 15.5462 78.2125 15.5462 74.9077C 15.5462 71.9702 16.403 69.767 17.9943 65.9726C 19.2184 62.6678 20.4425 59.3631 21.789 56.0584L 25.5838 46.1441C 26.6855 43.329 28.1544 39.5346 28.1544 37.4538C 28.1544 31.3338 23.2579 27.05 17.0151 27.05C 5.14124 27.05 6.66007e-08 44.1858 6.66007e-08 45.777C 6.66007e-08 46.8785 0.856876 47.3681 1.83616 47.3681C 3.4275 47.3681 3.54991 46.6337 3.91714 45.4098C 7.34463 33.7819 12.9756 30.4771 16.6478 30.4771C 18.3616 30.4771 19.5856 31.0891 19.5856 34.5163C 19.5856 35.7403 19.4632 37.4538 18.2392 41.1257L 14.9341 49.5712Z" transform="translate(1415.23 828.822) scale(1.13)" fill="black"/>
<path id="Vector_8" d="M 105.763 7.34395C 108.884 7.34395 112.189 7.34395 112.189 3.67205C 112.189 0.000153094 108.884 -4.33514e-07 105.763 -4.33514e-07L 6.42655 -4.33514e-07C 3.30505 -4.33514e-07 -1.05518e-07 -4.57679e-07 -1.05518e-07 3.67205C -1.05518e-07 7.3441 3.30505 7.34395 6.42655 7.34395L 105.763 7.34395Z" transform="translate(1533.09 833.247) scale(1.13)" fill="black"/>
<path id="Vector_9" d="M 21.2993 76.9274C 25.8897 81.1501 32.6835 82.8025 38.9265 82.8025C 50.6779 82.8025 58.757 74.9078 62.9802 69.2163C 64.8163 78.9469 72.5282 82.8025 78.9547 82.8025C 84.4631 82.8025 88.87 79.4977 92.175 72.8882C 95.1128 66.6459 97.6834 55.4464 97.6834 54.7121C 97.6834 53.7942 96.949 53.0596 95.8473 53.0596C 94.1948 53.0596 94.0112 53.9777 93.2767 56.7317C 90.5224 67.5639 87.0337 79.1305 79.5055 79.1305C 74.1806 79.1305 73.8134 74.357 73.8134 70.6851C 73.8134 66.4623 75.466 59.8529 76.7512 54.3449L 81.8925 34.5163C 82.627 31.0279 84.6468 22.7661 85.5648 19.4614C 86.6665 15.0549 88.6863 7.16028 88.6863 6.4259C 88.6863 3.6719 86.4829 1.83595 83.7287 1.83595C 82.0761 1.83595 78.2203 2.57033 76.7512 8.07833L 63.8982 59.1183C 62.9802 62.7904 62.9802 63.1576 60.5931 66.0951C 58.3898 69.2163 51.2288 79.1305 39.6609 79.1305C 29.3785 79.1305 26.0734 71.603 26.0734 62.9739C 26.0734 57.6496 27.726 51.2237 28.4605 48.1025L 36.7231 15.0549C 37.6411 11.5667 39.1102 5.69152 39.1102 4.58995C 39.1102 1.65243 36.7231 -2.2777e-06 34.3361 -2.2777e-06C 32.6835 -2.2777e-06 28.644 0.550864 27.1751 6.4259L 0.550839 112.729C 0.367226 113.647 -1.55553e-07 114.748 -1.55553e-07 115.85C -1.55553e-07 118.604 2.20339 120.44 4.95761 120.44C 10.2824 120.44 11.3842 116.217 12.6694 111.077L 21.2993 76.9274Z" transform="translate(1728.57 797.771) scale(1.13)" fill="black"/>
<path id="Vector_10" d="M 41.6808 91.9824C 41.6808 78.029 39.8446 55.2629 29.5622 33.9656C 18.7288 11.9339 3.67232 -1.83247e-06 1.65255 -1.83247e-06C 0.91808 -1.83247e-06 5.00347e-08 0.367184 5.00347e-08 1.46891C 5.00347e-08 2.01961 2.28862e-07 2.3868 3.12147 5.508C 21.483 24.0513 31.7655 54.3449 31.7655 91.7988C 31.7655 127.417 23.1356 158.077 1.83616 179.742C 2.28862e-07 181.394 5.00347e-08 181.762 5.00347e-08 182.312C 5.00347e-08 183.414 0.91808 183.781 1.65255 183.781C 4.03955 183.781 19.096 170.562 28.0931 152.57C 37.4576 133.843 41.6808 114.014 41.6808 91.9824Z" transform="translate(1855.94 733.664) scale(1.13)" fill="black"/>
<path id="Vector_11" d="M 28.032 56.4256C 29.9905 54.5897 35.1318 50.5504 37.0903 48.8369C 44.6798 41.8601 51.9019 35.1283 51.9019 23.99C 51.9019 9.42454 39.6609 1.89106e-06 24.3597 1.89106e-06C 9.67035 1.89106e-06 2.39335e-08 11.1382 2.39335e-08 22.0317C 2.39335e-08 28.0291 4.774 28.8859 6.48775 28.8859C 9.0583 28.8859 12.8531 27.05 12.8531 22.3989C 12.8531 16.0341 6.73257 16.0341 5.26365 16.0341C 8.81355 7.099 17.015 4.03909 23.0132 4.03909C 34.3974 4.03909 40.273 13.7086 40.273 23.99C 40.273 36.7194 31.337 46.0217 16.8926 60.8319L 1.46892 76.7437C -2.28862e-07 78.0901 2.39335e-08 78.3349 2.39335e-08 81.3948L 48.3521 81.3948L 51.9019 59.4855L 48.1073 59.4855C 47.7401 61.9335 46.7608 68.0534 45.2919 70.379C 44.5574 71.3582 35.2542 71.3582 33.2957 71.3582L 11.5066 71.3582L 28.032 56.4256Z" transform="translate(1930.58 722) scale(1.13)" fill="black"/>
<path id="Vector_12" d="M 829.052 -5.49274e-05L 1.34988e-05 -5.49274e-05L 1.34988e-05 7.34355L 829.052 7.34355L 829.052 -5.49274e-05Z" transform="translate(1071.17 973.6) scale(1.13)" fill="black"/>
<path id="Vector_13" d="M 32.8671 27.1725C 33.2343 26.0708 37.8247 16.891 44.6186 11.0158C 49.3926 6.60957 55.6356 3.6719 62.7966 3.6719C 70.1411 3.6719 72.7118 9.1799 72.7118 16.5239C 72.7118 26.9888 65.1835 47.919 61.5112 57.8332C 59.8586 62.2395 58.9406 64.6263 58.9406 67.9311C 58.9406 76.193 64.6327 82.8025 73.4463 82.8025C 90.5225 82.8025 96.949 55.8136 96.949 54.7121C 96.949 53.7942 96.2146 53.0596 95.1129 53.0596C 93.4603 53.0596 93.2766 53.6105 92.3586 56.7317C 88.1355 71.7866 81.158 79.1305 73.997 79.1305C 72.1609 79.1305 69.2231 78.9469 69.2231 73.0718C 69.2231 68.4819 71.2428 62.9739 72.3446 60.4036C 76.0168 50.3058 83.7287 29.7428 83.7287 19.2777C 83.7287 8.26185 77.3022 -2.2777e-06 63.3473 -2.2777e-06C 47.0055 -2.2777e-06 38.3757 11.5667 35.0706 16.1567C 34.5197 5.69152 26.9915 -2.2777e-06 18.9124 -2.2777e-06C 13.0368 -2.2777e-06 8.99716 3.48838 5.87569 9.73061C 2.57061 16.3402 -4.81892e-08 27.356 -4.81892e-08 28.0904C -4.81892e-08 28.8248 0.734452 29.7428 2.01976 29.7428C 3.48869 29.7428 3.67231 29.5592 4.774 25.3364C 7.71185 14.137 11.0169 3.6719 18.3616 3.6719C 22.5848 3.6719 24.0537 6.60957 24.0537 12.1174C 24.0537 16.1567 22.2174 23.3169 20.9322 29.0085L 15.7909 48.837C 15.0564 52.3252 13.0368 60.5872 12.1186 63.892C 10.8332 68.6655 8.81354 77.2946 8.81354 78.2125C 8.81354 80.7829 10.8332 82.8025 13.5875 82.8025C 15.7909 82.8025 18.3616 81.7009 19.8305 78.9469C 20.1977 78.029 21.8502 71.603 22.7683 67.9311L 26.8078 51.4073L 32.8671 27.1725Z" transform="translate(1484.56 1080.43) scale(1.13)" fill="black"/>
</g>
</g>
<path id="Arrow" d="M 0 -6C -3.31371 -6 -6 -3.31371 -6 0C -6 3.31371 -3.31371 6 0 6L 0 -6ZM 319.758 0L 259.758 -34.641L 259.758 34.641L 319.758 0ZM 0 6L 265.758 6L 265.758 -6L 0 -6L 0 6Z" transform="matrix(0.756823 0.65362 -0.65362 0.756823 318 722)" fill="#EB5757"/>
<path id="Arrow_2" d="M 86.9659 109.877C 89.1318 112.385 92.9206 112.662 95.4285 110.496C 97.9364 108.33 98.2136 104.541 96.0477 102.033L 86.9659 109.877ZM 0 0L 13.0001 68.0514L 65.4343 22.7673L 0 0ZM 96.0477 102.033L 39.8364 36.9467L 30.7546 44.7901L 86.9659 109.877L 96.0477 102.033Z" transform="matrix(0.756823 0.65362 -0.65362 0.756823 1542 1239)" fill="#EB5757"/>
<path id="Arrow_3" d="M -0.122282 6.28256C -3.4353 6.35009 -6.06629 9.09057 -5.99875 12.4036C -5.93122 15.7166 -3.19074 18.3476 0.122282 18.2801L -0.122282 6.28256ZM 602.483 0L 541.789 -33.411L 543.201 35.8566L 602.483 0ZM 0.122282 18.2801L 548.616 7.09929L 548.372 -4.89822L -0.122282 6.28256L 0.122282 18.2801Z" transform="matrix(0.756823 0.65362 -0.65362 0.756823 565.027 355.705)" fill="#EB5757"/>
<path id="Arrow_4" d="M 50.2481 0.557688C 50.5561 -2.74168 48.1311 -5.66602 44.8318 -5.97403C 41.5324 -6.28203 38.6081 -3.85705 38.3001 -0.557688L 50.2481 0.557688ZM 0 474.27L 40.0679 417.75L -28.9142 411.31L 0 474.27ZM 38.3001 -0.557688L -0.954836 419.946L 10.9932 421.061L 50.2481 0.557688L 38.3001 -0.557688Z" transform="matrix(0.756823 0.65362 -0.65362 0.756823 2108.49 315.062)" fill="#EB5757"/>
<path id="Arrow_5" d="M 1.51172 -5.80644C -1.69508 -6.64134 -4.97153 -4.71853 -5.80644 -1.51172C -6.64134 1.69508 -4.71853 4.97153 -1.51172 5.80644L 1.51172 -5.80644ZM 300.008 78.1081L 250.672 29.4674L 233.216 96.5143L 300.008 78.1081ZM -1.51172 5.80644L 246.238 70.309L 249.262 58.6961L 1.51172 -5.80644L -1.51172 5.80644Z" transform="matrix(0.756823 0.65362 -0.65362 0.756823 1171 410.295)" fill="#EB5757"/>
<path id="Variance (the Greek letter &#226;&#128;&#156;sigma&#226;&#128;&#157; squared)" d="M 30.29 124L 48.36 124L 80.08 31.18L 63.57 31.18L 39.78 104.63L 39.52 104.63L 16.25 31.18L -0.65 31.18L 30.29 124ZM 121.633 101.38C 121.633 110.74 111.493 114.12 104.993 114.12C 99.7933 114.12 91.3433 112.17 91.3433 105.54C 91.3433 97.74 97.0633 95.4 103.433 94.36C 109.933 93.19 117.083 93.32 121.633 90.33L 121.633 101.38ZM 136.453 74.47C 136.453 60.3 122.673 54.97 109.543 54.97C 94.7233 54.97 80.0333 60.04 78.9933 77.33L 93.8133 77.33C 94.4633 70.05 100.313 66.67 108.633 66.67C 114.613 66.67 122.543 68.1 122.543 75.77C 122.543 84.48 113.053 83.31 102.393 85.26C 89.9133 86.69 76.5233 89.42 76.5233 106.19C 76.5233 119.32 87.4433 125.82 99.5333 125.82C 107.463 125.82 116.953 123.35 122.803 117.63C 123.973 123.74 128.263 125.82 134.243 125.82C 136.713 125.82 141.393 124.91 143.603 124.13L 143.603 113.86C 142.043 114.12 140.873 114.12 139.963 114.12C 137.233 114.12 136.453 112.69 136.453 109.05L 136.453 74.47ZM 152.4 124L 167.22 124L 167.22 92.02C 167.22 77.2 175.28 69.01 185.42 69.01C 187.5 69.01 189.71 69.4 191.79 69.66L 191.79 55.36C 190.49 55.23 189.58 54.97 186.2 54.97C 177.1 54.97 168.26 62.64 166.57 69.79L 166.31 69.79L 166.31 56.79L 152.4 56.79L 152.4 124ZM 198.493 124L 213.313 124L 213.313 56.79L 198.493 56.79L 198.493 124ZM 198.493 45.22L 213.313 45.22L 213.313 31.18L 198.493 31.18L 198.493 45.22ZM 270.93 101.38C 270.93 110.74 260.79 114.12 254.29 114.12C 249.09 114.12 240.64 112.17 240.64 105.54C 240.64 97.74 246.36 95.4 252.73 94.36C 259.23 93.19 266.38 93.32 270.93 90.33L 270.93 101.38ZM 285.75 74.47C 285.75 60.3 271.97 54.97 258.84 54.97C 244.02 54.97 229.33 60.04 228.29 77.33L 243.11 77.33C 243.76 70.05 249.61 66.67 257.93 66.67C 263.91 66.67 271.84 68.1 271.84 75.77C 271.84 84.48 262.35 83.31 251.69 85.26C 239.21 86.69 225.82 89.42 225.82 106.19C 225.82 119.32 236.74 125.82 248.83 125.82C 256.76 125.82 266.25 123.35 272.1 117.63C 273.27 123.74 277.56 125.82 283.54 125.82C 286.01 125.82 290.69 124.91 292.9 124.13L 292.9 113.86C 291.34 114.12 290.17 114.12 289.26 114.12C 286.53 114.12 285.75 112.69 285.75 109.05L 285.75 74.47ZM 301.696 124L 316.516 124L 316.516 84.35C 316.516 74.47 322.886 66.67 332.766 66.67C 341.476 66.67 345.636 71.22 345.896 81.75L 345.896 124L 360.716 124L 360.716 77.85C 360.716 62.77 351.486 54.97 336.926 54.97C 328.086 54.97 320.416 59.52 315.996 66.93L 315.736 66.67L 315.736 56.79L 301.696 56.79L 301.696 124ZM 436.535 79.28C 435.105 62.77 421.845 54.97 406.245 54.97C 384.145 54.97 373.095 70.83 373.095 91.11C 373.095 110.87 384.665 125.82 405.725 125.82C 423.015 125.82 433.805 116.2 436.535 98.78L 421.715 98.78C 420.285 108.4 414.305 114.12 405.725 114.12C 392.855 114.12 387.915 102.29 387.915 91.11C 387.915 70.7 398.705 66.67 406.375 66.67C 414.565 66.67 420.545 71.09 421.715 79.28L 436.535 79.28ZM 509.551 94.23C 512.021 74.08 499.021 54.97 477.831 54.97C 457.811 54.97 445.331 71.35 445.331 90.46C 445.331 111.13 457.161 125.82 478.221 125.82C 492.911 125.82 505.391 117.63 508.641 102.94L 494.601 102.94C 492.001 110.35 486.801 114.12 478.221 114.12C 465.871 114.12 460.151 104.76 460.151 94.23L 509.551 94.23ZM 460.151 84.48C 460.541 74.47 467.561 66.67 477.831 66.67C 487.841 66.67 494.211 75.12 494.731 84.48L 460.151 84.48ZM 20.02 232.37C 14.14 222.43 11.41 211.79 11.41 200.1C 11.41 188.41 14.42 177.84 20.02 167.83L 13.51 167.83C 7.14 177.63 3.43 188.83 3.43 200.1C 3.43 213.47 7.91 223.48 13.51 232.37L 20.02 232.37ZM 20.0424 188.76L 26.0624 188.76L 26.0624 210.11C 26.2024 216.13 27.7424 219.35 36.0724 219.35C 37.8224 219.35 39.5024 219.07 41.2524 218.93L 41.2524 212.77C 40.1324 213.05 39.0124 213.05 37.8924 213.05C 34.3224 213.05 34.0424 211.37 34.0424 208.08L 34.0424 188.76L 41.2524 188.76L 41.2524 182.81L 34.0424 182.81L 34.0424 171.96L 26.0624 171.96L 26.0624 182.81L 20.0424 182.81L 20.0424 188.76ZM 46.993 219L 54.973 219L 54.973 197.65C 54.973 192.33 58.403 188.13 63.723 188.13C 68.413 188.13 70.653 190.58 70.793 196.25L 70.793 219L 78.773 219L 78.773 194.15C 78.773 186.03 73.803 181.83 65.963 181.83C 61.203 181.83 57.073 184.28 55.113 187.57L 54.973 187.57L 54.973 169.02L 46.993 169.02L 46.993 219ZM 120.018 202.97C 121.348 192.12 114.348 181.83 102.938 181.83C 92.1583 181.83 85.4383 190.65 85.4383 200.94C 85.4383 212.07 91.8083 219.98 103.148 219.98C 111.058 219.98 117.778 215.57 119.528 207.66L 111.968 207.66C 110.568 211.65 107.768 213.68 103.148 213.68C 96.4983 213.68 93.4183 208.64 93.4183 202.97L 120.018 202.97ZM 93.4183 197.72C 93.6283 192.33 97.4083 188.13 102.938 188.13C 108.328 188.13 111.758 192.68 112.038 197.72L 93.4183 197.72ZM 190.297 192.68L 169.017 192.68L 169.017 199.33L 182.317 199.33C 182.177 207.8 177.277 213.19 168.317 213.05C 157.607 213.05 153.127 203.6 153.127 194.01C 153.127 184.42 157.607 174.97 168.317 174.97C 174.617 174.97 180.357 178.33 181.197 184.91L 189.737 184.91C 188.407 173.64 179.237 167.83 168.317 167.83C 153.337 167.83 144.377 179.73 144.377 194.01C 144.377 208.29 153.337 220.19 168.317 220.19C 174.407 220.19 178.677 218.44 183.367 213.12L 184.697 219L 190.297 219L 190.297 192.68ZM 198.682 219L 206.662 219L 206.662 201.78C 206.662 193.8 211.002 189.39 216.462 189.39C 217.582 189.39 218.772 189.6 219.892 189.74L 219.892 182.04C 219.192 181.97 218.702 181.83 216.882 181.83C 211.982 181.83 207.222 185.96 206.312 189.81L 206.172 189.81L 206.172 182.81L 198.682 182.81L 198.682 219ZM 254.891 202.97C 256.221 192.12 249.221 181.83 237.811 181.83C 227.031 181.83 220.311 190.65 220.311 200.94C 220.311 212.07 226.681 219.98 238.021 219.98C 245.931 219.98 252.651 215.57 254.401 207.66L 246.841 207.66C 245.441 211.65 242.641 213.68 238.021 213.68C 231.371 213.68 228.291 208.64 228.291 202.97L 254.891 202.97ZM 228.291 197.72C 228.501 192.33 232.281 188.13 237.811 188.13C 243.201 188.13 246.631 192.68 246.911 197.72L 228.291 197.72ZM 293.788 202.97C 295.118 192.12 288.118 181.83 276.708 181.83C 265.928 181.83 259.208 190.65 259.208 200.94C 259.208 212.07 265.578 219.98 276.918 219.98C 284.828 219.98 291.548 215.57 293.298 207.66L 285.738 207.66C 284.338 211.65 281.538 213.68 276.918 213.68C 270.268 213.68 267.188 208.64 267.188 202.97L 293.788 202.97ZM 267.188 197.72C 267.398 192.33 271.178 188.13 276.708 188.13C 282.098 188.13 285.528 192.68 285.808 197.72L 267.188 197.72ZM 300.064 219L 308.044 219L 308.044 206.05L 312.804 201.43L 323.864 219L 333.594 219L 318.404 196.11L 332.264 182.81L 322.464 182.81L 308.044 197.44L 308.044 169.02L 300.064 169.02L 300.064 219ZM 357.144 219L 365.124 219L 365.124 169.02L 357.144 169.02L 357.144 219ZM 406.649 202.97C 407.979 192.12 400.979 181.83 389.569 181.83C 378.789 181.83 372.069 190.65 372.069 200.94C 372.069 212.07 378.439 219.98 389.779 219.98C 397.689 219.98 404.409 215.57 406.159 207.66L 398.599 207.66C 397.199 211.65 394.399 213.68 389.779 213.68C 383.129 213.68 380.049 208.64 380.049 202.97L 406.649 202.97ZM 380.049 197.72C 380.259 192.33 384.039 188.13 389.569 188.13C 394.959 188.13 398.389 192.68 398.669 197.72L 380.049 197.72ZM 409.076 188.76L 415.096 188.76L 415.096 210.11C 415.236 216.13 416.776 219.35 425.106 219.35C 426.856 219.35 428.536 219.07 430.286 218.93L 430.286 212.77C 429.166 213.05 428.046 213.05 426.926 213.05C 423.356 213.05 423.076 211.37 423.076 208.08L 423.076 188.76L 430.286 188.76L 430.286 182.81L 423.076 182.81L 423.076 171.96L 415.096 171.96L 415.096 182.81L 409.076 182.81L 409.076 188.76ZM 432.386 188.76L 438.406 188.76L 438.406 210.11C 438.546 216.13 440.086 219.35 448.416 219.35C 450.166 219.35 451.846 219.07 453.596 218.93L 453.596 212.77C 452.476 213.05 451.356 213.05 450.236 213.05C 446.666 213.05 446.386 211.37 446.386 208.08L 446.386 188.76L 453.596 188.76L 453.596 182.81L 446.386 182.81L 446.386 171.96L 438.406 171.96L 438.406 182.81L 432.386 182.81L 432.386 188.76ZM 492.167 202.97C 493.497 192.12 486.497 181.83 475.087 181.83C 464.307 181.83 457.587 190.65 457.587 200.94C 457.587 212.07 463.957 219.98 475.297 219.98C 483.207 219.98 489.927 215.57 491.677 207.66L 484.117 207.66C 482.717 211.65 479.917 213.68 475.297 213.68C 468.647 213.68 465.567 208.64 465.567 202.97L 492.167 202.97ZM 465.567 197.72C 465.777 192.33 469.557 188.13 475.087 188.13C 480.477 188.13 483.907 192.68 484.187 197.72L 465.567 197.72ZM 498.233 219L 506.213 219L 506.213 201.78C 506.213 193.8 510.553 189.39 516.013 189.39C 517.133 189.39 518.323 189.6 519.443 189.74L 519.443 182.04C 518.743 181.97 518.253 181.83 516.433 181.83C 511.533 181.83 506.773 185.96 505.863 189.81L 505.723 189.81L 505.723 182.81L 498.233 182.81L 498.233 219ZM 12.95 251.02C 8.12 252.42 4.2 255.99 4.2 261.31L 4.2 270.76L 12.95 270.76L 12.95 261.31L 8.68 261.31C 8.68 258.3 10.15 256.06 12.95 255.08L 12.95 251.02ZM 26.88 251.02C 22.05 252.42 18.13 255.99 18.13 261.31L 18.13 270.76L 26.88 270.76L 26.88 261.31L 22.61 261.31C 22.61 258.3 24.08 256.06 26.88 255.08L 26.88 251.02ZM 33.3435 289.38C 33.4835 297.92 40.2735 301.98 49.3735 301.98C 56.8635 301.98 65.5435 298.83 65.5435 290.22C 65.5435 283.08 59.6635 280.98 53.8535 279.65C 47.9735 278.32 42.0935 277.76 42.0935 273.84C 42.0935 270.69 46.3635 270.13 48.6735 270.13C 52.1735 270.13 55.3235 271.18 56.0235 274.96L 64.3535 274.96C 63.3735 266.91 56.6535 263.83 49.2335 263.83C 42.6535 263.83 34.1135 266.28 34.1135 274.19C 34.1135 281.54 39.8535 283.64 45.7335 284.9C 51.5435 286.23 57.3535 286.72 57.5635 290.92C 57.7735 295.05 52.5235 295.68 49.5135 295.68C 45.2435 295.68 41.7435 294 41.3235 289.38L 33.3435 289.38ZM 71.8123 301L 79.7923 301L 79.7923 264.81L 71.8123 264.81L 71.8123 301ZM 71.8123 258.58L 79.7923 258.58L 79.7923 251.02L 71.8123 251.02L 71.8123 258.58ZM 104.237 294.7C 97.5871 294.7 94.7171 288.68 94.7171 282.73C 94.7171 276.71 97.1671 270.13 104.237 270.13C 111.167 270.13 113.967 275.87 113.967 282.1C 113.967 288.26 111.307 294.7 104.237 294.7ZM 121.947 264.81L 113.967 264.81L 113.967 269.78L 113.827 269.78C 111.797 265.72 107.667 263.83 103.117 263.83C 92.8271 263.83 86.7371 272.23 86.7371 281.96C 86.7371 292.32 91.4971 301 102.977 301C 107.457 301 111.587 298.62 113.827 294.63L 113.967 294.63L 113.967 300.16C 113.967 306.11 111.097 309.4 104.657 309.4C 100.597 309.4 96.9571 308.63 95.9771 304.08L 87.9971 304.08C 88.6971 312.55 96.8871 315.35 104.167 315.35C 115.577 315.35 121.947 309.96 121.947 299.11L 121.947 264.81ZM 129.981 301L 137.961 301L 137.961 279.51C 137.961 273.49 141.741 270.13 145.871 270.13C 150.701 270.13 152.241 272.79 152.241 277.76L 152.241 301L 160.221 301L 160.221 279.79C 160.221 273.7 162.531 270.13 167.921 270.13C 174.151 270.13 174.501 274.12 174.501 279.86L 174.501 301L 182.481 301L 182.481 276.01C 182.481 267.19 178.001 263.83 170.371 263.83C 165.121 263.83 161.691 266.14 159.031 269.85C 157.421 265.72 153.291 263.83 148.881 263.83C 143.141 263.83 140.131 266.28 137.751 269.85L 137.541 269.85L 137.541 264.81L 129.981 264.81L 129.981 301ZM 213.219 288.82C 213.219 293.86 207.759 295.68 204.259 295.68C 201.459 295.68 196.909 294.63 196.909 291.06C 196.909 286.86 199.989 285.6 203.419 285.04C 206.919 284.41 210.769 284.48 213.219 282.87L 213.219 288.82ZM 221.199 274.33C 221.199 266.7 213.779 263.83 206.709 263.83C 198.729 263.83 190.819 266.56 190.259 275.87L 198.239 275.87C 198.589 271.95 201.739 270.13 206.219 270.13C 209.439 270.13 213.709 270.9 213.709 275.03C 213.709 279.72 208.599 279.09 202.859 280.14C 196.139 280.91 188.929 282.38 188.929 291.41C 188.929 298.48 194.809 301.98 201.319 301.98C 205.589 301.98 210.699 300.65 213.849 297.57C 214.479 300.86 216.789 301.98 220.009 301.98C 221.339 301.98 223.859 301.49 225.049 301.07L 225.049 295.54C 224.209 295.68 223.579 295.68 223.089 295.68C 221.619 295.68 221.199 294.91 221.199 292.95L 221.199 274.33ZM 229.786 270.76C 234.616 269.36 238.536 265.79 238.536 260.47L 238.536 251.02L 229.786 251.02L 229.786 260.47L 234.056 260.47C 234.056 263.48 232.656 265.72 229.786 266.7L 229.786 270.76ZM 243.716 270.76C 248.546 269.36 252.466 265.79 252.466 260.47L 252.466 251.02L 243.716 251.02L 243.716 260.47L 247.986 260.47C 247.986 263.48 246.586 265.72 243.716 266.7L 243.716 270.76ZM 278.412 289.38C 278.552 297.92 285.342 301.98 294.442 301.98C 301.932 301.98 310.612 298.83 310.612 290.22C 310.612 283.08 304.732 280.98 298.922 279.65C 293.042 278.32 287.162 277.76 287.162 273.84C 287.162 270.69 291.432 270.13 293.742 270.13C 297.242 270.13 300.392 271.18 301.092 274.96L 309.422 274.96C 308.442 266.91 301.722 263.83 294.302 263.83C 287.722 263.83 279.182 266.28 279.182 274.19C 279.182 281.54 284.922 283.64 290.802 284.9C 296.612 286.23 302.422 286.72 302.632 290.92C 302.842 295.05 297.592 295.68 294.582 295.68C 290.312 295.68 286.812 294 286.392 289.38L 278.412 289.38ZM 322.901 282.94C 322.901 276.36 326.331 270.13 332.911 270.13C 339.561 270.13 343.061 275.1 343.061 282.94C 343.061 290.5 339.841 295.68 332.911 295.68C 325.631 295.68 322.901 289.24 322.901 282.94ZM 350.761 264.81L 343.201 264.81L 343.201 269.71L 343.061 269.71C 340.821 265.58 336.481 263.83 331.861 263.83C 320.451 263.83 314.921 272.51 314.921 283.08C 314.921 292.81 319.821 301.98 330.531 301.98C 335.151 301.98 340.121 300.3 342.641 296.31L 342.781 296.31L 342.781 314.37L 350.761 314.37L 350.761 264.81ZM 391.244 264.81L 383.264 264.81L 383.264 285.81C 383.264 291.41 381.024 295.68 374.374 295.68C 370.034 295.68 367.444 293.37 367.444 287L 367.444 264.81L 359.464 264.81L 359.464 287.77C 359.464 297.22 363.524 301.98 372.974 301.98C 376.964 301.98 381.304 299.6 383.264 295.96L 383.404 295.96L 383.404 301L 391.244 301L 391.244 264.81ZM 421.989 288.82C 421.989 293.86 416.529 295.68 413.029 295.68C 410.229 295.68 405.679 294.63 405.679 291.06C 405.679 286.86 408.759 285.6 412.189 285.04C 415.689 284.41 419.539 284.48 421.989 282.87L 421.989 288.82ZM 429.969 274.33C 429.969 266.7 422.549 263.83 415.479 263.83C 407.499 263.83 399.589 266.56 399.029 275.87L 407.009 275.87C 407.359 271.95 410.509 270.13 414.989 270.13C 418.209 270.13 422.479 270.9 422.479 275.03C 422.479 279.72 417.369 279.09 411.629 280.14C 404.909 280.91 397.699 282.38 397.699 291.41C 397.699 298.48 403.579 301.98 410.089 301.98C 414.359 301.98 419.469 300.65 422.619 297.57C 423.249 300.86 425.559 301.98 428.779 301.98C 430.109 301.98 432.629 301.49 433.819 301.07L 433.819 295.54C 432.979 295.68 432.349 295.68 431.859 295.68C 430.389 295.68 429.969 294.91 429.969 292.95L 429.969 274.33ZM 438.555 301L 446.535 301L 446.535 283.78C 446.535 275.8 450.875 271.39 456.335 271.39C 457.455 271.39 458.645 271.6 459.765 271.74L 459.765 264.04C 459.065 263.97 458.575 263.83 456.755 263.83C 451.855 263.83 447.095 267.96 446.185 271.81L 446.045 271.81L 446.045 264.81L 438.555 264.81L 438.555 301ZM 494.764 284.97C 496.094 274.12 489.094 263.83 477.684 263.83C 466.904 263.83 460.184 272.65 460.184 282.94C 460.184 294.07 466.554 301.98 477.894 301.98C 485.804 301.98 492.524 297.57 494.274 289.66L 486.714 289.66C 485.314 293.65 482.514 295.68 477.894 295.68C 471.244 295.68 468.164 290.64 468.164 284.97L 494.764 284.97ZM 468.164 279.72C 468.374 274.33 472.154 270.13 477.684 270.13C 483.074 270.13 486.504 274.68 486.784 279.72L 468.164 279.72ZM 507.061 283.29C 507.061 276.78 509.721 270.13 517.211 270.13C 523.371 270.13 527.221 274.89 527.221 282.87C 527.221 289.17 524.211 295.68 517.071 295.68C 510.141 295.68 507.061 289.52 507.061 283.29ZM 534.921 251.02L 526.941 251.02L 526.941 269.5L 526.801 269.5C 524.351 265.51 519.311 263.83 514.761 263.83C 506.851 263.83 499.081 269.57 499.081 282.66C 499.081 293.51 504.611 301.98 516.021 301.98C 520.571 301.98 525.121 300.23 527.221 296.1L 527.361 296.1L 527.361 301L 534.921 301L 534.921 251.02ZM 538.864 249.83C 544.744 259.84 547.474 270.48 547.474 282.17C 547.474 293.86 544.464 304.43 538.864 314.37L 545.374 314.37C 551.744 304.64 555.454 293.44 555.454 282.17C 555.454 268.8 550.974 258.79 545.374 249.83L 538.864 249.83Z" transform="translate(9 391)" fill="#131313"/>
<path id="Each data term (the subscript indicates which term we mean; with &#226;&#128;&#156;i&#226;&#128;&#157; we mean all of them.)" d="M 9.88 124L 77.61 124L 77.61 109.96L 26.13 109.96L 26.13 82.79L 72.93 82.79L 72.93 69.53L 26.13 69.53L 26.13 45.22L 76.7 45.22L 76.7 31.18L 9.88 31.18L 9.88 124ZM 131.155 101.38C 131.155 110.74 121.015 114.12 114.515 114.12C 109.315 114.12 100.865 112.17 100.865 105.54C 100.865 97.74 106.585 95.4 112.955 94.36C 119.455 93.19 126.605 93.32 131.155 90.33L 131.155 101.38ZM 145.975 74.47C 145.975 60.3 132.195 54.97 119.065 54.97C 104.245 54.97 89.5548 60.04 88.5148 77.33L 103.335 77.33C 103.985 70.05 109.835 66.67 118.155 66.67C 124.135 66.67 132.065 68.1 132.065 75.77C 132.065 84.48 122.575 83.31 111.915 85.26C 99.4348 86.69 86.0448 89.42 86.0448 106.19C 86.0448 119.32 96.9648 125.82 109.055 125.82C 116.985 125.82 126.475 123.35 132.325 117.63C 133.495 123.74 137.785 125.82 143.765 125.82C 146.235 125.82 150.915 124.91 153.125 124.13L 153.125 113.86C 151.565 114.12 150.395 114.12 149.485 114.12C 146.755 114.12 145.975 112.69 145.975 109.05L 145.975 74.47ZM 222.111 79.28C 220.681 62.77 207.421 54.97 191.821 54.97C 169.721 54.97 158.671 70.83 158.671 91.11C 158.671 110.87 170.241 125.82 191.301 125.82C 208.591 125.82 219.381 116.2 222.111 98.78L 207.291 98.78C 205.861 108.4 199.881 114.12 191.301 114.12C 178.431 114.12 173.491 102.29 173.491 91.11C 173.491 70.7 184.281 66.67 191.951 66.67C 200.141 66.67 206.121 71.09 207.291 79.28L 222.111 79.28ZM 234.157 124L 248.977 124L 248.977 84.35C 248.977 74.47 255.347 66.67 265.227 66.67C 273.937 66.67 278.097 71.22 278.357 81.75L 278.357 124L 293.177 124L 293.177 77.85C 293.177 62.77 283.947 54.97 269.387 54.97C 260.547 54.97 252.877 59.52 249.237 65.63L 248.977 65.63L 248.977 31.18L 234.157 31.18L 234.157 124ZM 356.558 91.11C 356.558 79.02 361.498 66.67 375.407 66.67C 386.847 66.67 393.998 75.51 393.998 90.33C 393.998 102.03 388.407 114.12 375.147 114.12C 362.278 114.12 356.558 102.68 356.558 91.11ZM 408.297 31.18L 393.477 31.18L 393.477 65.5L 393.217 65.5C 388.667 58.09 379.308 54.97 370.858 54.97C 356.167 54.97 341.738 65.63 341.738 89.94C 341.738 110.09 352.008 125.82 373.198 125.82C 381.648 125.82 390.098 122.57 393.998 114.9L 394.258 114.9L 394.258 124L 408.297 124L 408.297 31.18ZM 465.93 101.38C 465.93 110.74 455.79 114.12 449.29 114.12C 444.09 114.12 435.64 112.17 435.64 105.54C 435.64 97.74 441.36 95.4 447.73 94.36C 454.23 93.19 461.38 93.32 465.93 90.33L 465.93 101.38ZM 480.75 74.47C 480.75 60.3 466.97 54.97 453.84 54.97C 439.02 54.97 424.33 60.04 423.29 77.33L 438.11 77.33C 438.76 70.05 444.61 66.67 452.93 66.67C 458.91 66.67 466.84 68.1 466.84 75.77C 466.84 84.48 457.35 83.31 446.69 85.26C 434.21 86.69 420.82 89.42 420.82 106.19C 420.82 119.32 431.74 125.82 443.83 125.82C 451.76 125.82 461.25 123.35 467.1 117.63C 468.27 123.74 472.56 125.82 478.54 125.82C 481.01 125.82 485.69 124.91 487.9 124.13L 487.9 113.86C 486.34 114.12 485.17 114.12 484.26 114.12C 481.53 114.12 480.75 112.69 480.75 109.05L 480.75 74.47ZM 489.936 67.84L 501.116 67.84L 501.116 107.49C 501.376 118.67 504.236 124.65 519.706 124.65C 522.956 124.65 526.076 124.13 529.326 123.87L 529.326 112.43C 527.246 112.95 525.166 112.95 523.086 112.95C 516.456 112.95 515.936 109.83 515.936 103.72L 515.936 67.84L 529.326 67.84L 529.326 56.79L 515.936 56.79L 515.936 36.64L 501.116 36.64L 501.116 56.79L 489.936 56.79L 489.936 67.84ZM 581.458 101.38C 581.458 110.74 571.317 114.12 564.817 114.12C 559.617 114.12 551.167 112.17 551.167 105.54C 551.167 97.74 556.887 95.4 563.257 94.36C 569.758 93.19 576.908 93.32 581.458 90.33L 581.458 101.38ZM 596.278 74.47C 596.278 60.3 582.497 54.97 569.368 54.97C 554.548 54.97 539.858 60.04 538.817 77.33L 553.638 77.33C 554.288 70.05 560.138 66.67 568.458 66.67C 574.437 66.67 582.368 68.1 582.368 75.77C 582.368 84.48 572.877 83.31 562.218 85.26C 549.738 86.69 536.348 89.42 536.348 106.19C 536.348 119.32 547.267 125.82 559.358 125.82C 567.288 125.82 576.777 123.35 582.628 117.63C 583.798 123.74 588.088 125.82 594.068 125.82C 596.538 125.82 601.218 124.91 603.427 124.13L 603.427 113.86C 601.868 114.12 600.698 114.12 599.787 114.12C 597.058 114.12 596.278 112.69 596.278 109.05L 596.278 74.47ZM 641.645 67.84L 652.825 67.84L 652.825 107.49C 653.085 118.67 655.945 124.65 671.415 124.65C 674.665 124.65 677.785 124.13 681.035 123.87L 681.035 112.43C 678.955 112.95 676.875 112.95 674.795 112.95C 668.165 112.95 667.645 109.83 667.645 103.72L 667.645 67.84L 681.035 67.84L 681.035 56.79L 667.645 56.79L 667.645 36.64L 652.825 36.64L 652.825 56.79L 641.645 56.79L 641.645 67.84ZM 752.666 94.23C 755.136 74.08 742.136 54.97 720.946 54.97C 700.926 54.97 688.446 71.35 688.446 90.46C 688.446 111.13 700.276 125.82 721.336 125.82C 736.026 125.82 748.506 117.63 751.756 102.94L 737.716 102.94C 735.116 110.35 729.916 114.12 721.336 114.12C 708.986 114.12 703.266 104.76 703.266 94.23L 752.666 94.23ZM 703.266 84.48C 703.656 74.47 710.676 66.67 720.946 66.67C 730.956 66.67 737.326 75.12 737.846 84.48L 703.266 84.48ZM 763.933 124L 778.753 124L 778.753 92.02C 778.753 77.2 786.813 69.01 796.953 69.01C 799.033 69.01 801.243 69.4 803.323 69.66L 803.323 55.36C 802.023 55.23 801.113 54.97 797.733 54.97C 788.633 54.97 779.793 62.64 778.103 69.79L 777.843 69.79L 777.843 56.79L 763.933 56.79L 763.933 124ZM 809.636 124L 824.456 124L 824.456 84.09C 824.456 72.91 831.476 66.67 839.146 66.67C 848.116 66.67 850.976 71.61 850.976 80.84L 850.976 124L 865.796 124L 865.796 84.61C 865.796 73.3 870.086 66.67 880.096 66.67C 891.666 66.67 892.316 74.08 892.316 84.74L 892.316 124L 907.136 124L 907.136 77.59C 907.136 61.21 898.816 54.97 884.646 54.97C 874.896 54.97 868.526 59.26 863.586 66.15C 860.596 58.48 852.926 54.97 844.736 54.97C 834.076 54.97 828.486 59.52 824.066 66.15L 823.676 66.15L 823.676 56.79L 809.636 56.79L 809.636 124ZM 20.02 232.37C 14.14 222.43 11.41 211.79 11.41 200.1C 11.41 188.41 14.42 177.84 20.02 167.83L 13.51 167.83C 7.14 177.63 3.43 188.83 3.43 200.1C 3.43 213.47 7.91 223.48 13.51 232.37L 20.02 232.37ZM 20.0424 188.76L 26.0624 188.76L 26.0624 210.11C 26.2024 216.13 27.7424 219.35 36.0724 219.35C 37.8224 219.35 39.5024 219.07 41.2524 218.93L 41.2524 212.77C 40.1324 213.05 39.0124 213.05 37.8924 213.05C 34.3224 213.05 34.0424 211.37 34.0424 208.08L 34.0424 188.76L 41.2524 188.76L 41.2524 182.81L 34.0424 182.81L 34.0424 171.96L 26.0624 171.96L 26.0624 182.81L 20.0424 182.81L 20.0424 188.76ZM 46.993 219L 54.973 219L 54.973 197.65C 54.973 192.33 58.403 188.13 63.723 188.13C 68.413 188.13 70.653 190.58 70.793 196.25L 70.793 219L 78.773 219L 78.773 194.15C 78.773 186.03 73.803 181.83 65.963 181.83C 61.203 181.83 57.073 184.28 55.113 187.57L 54.973 187.57L 54.973 169.02L 46.993 169.02L 46.993 219ZM 120.018 202.97C 121.348 192.12 114.348 181.83 102.938 181.83C 92.1583 181.83 85.4383 190.65 85.4383 200.94C 85.4383 212.07 91.8083 219.98 103.148 219.98C 111.058 219.98 117.778 215.57 119.528 207.66L 111.968 207.66C 110.568 211.65 107.768 213.68 103.148 213.68C 96.4983 213.68 93.4183 208.64 93.4183 202.97L 120.018 202.97ZM 93.4183 197.72C 93.6283 192.33 97.4083 188.13 102.938 188.13C 108.328 188.13 111.758 192.68 112.038 197.72L 93.4183 197.72ZM 143.607 207.38C 143.747 215.92 150.537 219.98 159.637 219.98C 167.127 219.98 175.807 216.83 175.807 208.22C 175.807 201.08 169.927 198.98 164.117 197.65C 158.237 196.32 152.357 195.76 152.357 191.84C 152.357 188.69 156.627 188.13 158.937 188.13C 162.437 188.13 165.587 189.18 166.287 192.96L 174.617 192.96C 173.637 184.91 166.917 181.83 159.497 181.83C 152.917 181.83 144.377 184.28 144.377 192.19C 144.377 199.54 150.117 201.64 155.997 202.9C 161.807 204.23 167.617 204.72 167.827 208.92C 168.037 213.05 162.787 213.68 159.777 213.68C 155.507 213.68 152.007 212 151.587 207.38L 143.607 207.38ZM 213.646 182.81L 205.666 182.81L 205.666 203.81C 205.666 209.41 203.426 213.68 196.776 213.68C 192.436 213.68 189.846 211.37 189.846 205L 189.846 182.81L 181.866 182.81L 181.866 205.77C 181.866 215.22 185.926 219.98 195.376 219.98C 199.366 219.98 203.706 217.6 205.666 213.96L 205.806 213.96L 205.806 219L 213.646 219L 213.646 182.81ZM 250.131 200.94C 250.131 207.24 247.401 213.68 240.121 213.68C 233.681 213.68 229.971 208.22 229.971 200.94C 229.971 193.24 233.401 188.13 240.121 188.13C 246.701 188.13 250.131 194.36 250.131 200.94ZM 222.271 219L 229.831 219L 229.831 214.03L 229.971 214.03C 232.351 218.79 237.601 219.98 242.501 219.98C 253.211 219.98 258.111 210.81 258.111 201.08C 258.111 190.51 252.581 181.83 241.171 181.83C 237.111 181.83 232.561 184 230.391 187.5L 230.251 187.5L 230.251 169.02L 222.271 169.02L 222.271 219ZM 262.894 207.38C 263.034 215.92 269.824 219.98 278.924 219.98C 286.414 219.98 295.094 216.83 295.094 208.22C 295.094 201.08 289.214 198.98 283.404 197.65C 277.524 196.32 271.644 195.76 271.644 191.84C 271.644 188.69 275.914 188.13 278.224 188.13C 281.724 188.13 284.874 189.18 285.574 192.96L 293.904 192.96C 292.924 184.91 286.204 181.83 278.784 181.83C 272.204 181.83 263.664 184.28 263.664 192.19C 263.664 199.54 269.404 201.64 275.284 202.9C 281.094 204.23 286.904 204.72 287.114 208.92C 287.324 213.05 282.074 213.68 279.064 213.68C 274.794 213.68 271.294 212 270.874 207.38L 262.894 207.38ZM 333.563 194.92C 332.793 186.03 325.653 181.83 317.253 181.83C 305.353 181.83 299.403 190.37 299.403 201.29C 299.403 211.93 305.633 219.98 316.973 219.98C 326.283 219.98 332.093 214.8 333.563 205.42L 325.583 205.42C 324.813 210.6 321.593 213.68 316.973 213.68C 310.043 213.68 307.383 207.31 307.383 201.29C 307.383 190.3 313.193 188.13 317.323 188.13C 321.733 188.13 324.953 190.51 325.583 194.92L 333.563 194.92ZM 340.05 219L 348.03 219L 348.03 201.78C 348.03 193.8 352.37 189.39 357.83 189.39C 358.95 189.39 360.14 189.6 361.26 189.74L 361.26 182.04C 360.56 181.97 360.07 181.83 358.25 181.83C 353.35 181.83 348.59 185.96 347.68 189.81L 347.54 189.81L 347.54 182.81L 340.05 182.81L 340.05 219ZM 364.869 219L 372.849 219L 372.849 182.81L 364.869 182.81L 364.869 219ZM 364.869 176.58L 372.849 176.58L 372.849 169.02L 364.869 169.02L 364.869 176.58ZM 409.614 200.94C 409.614 207.24 406.884 213.68 399.604 213.68C 393.164 213.68 389.454 208.22 389.454 200.94C 389.454 193.24 392.884 188.13 399.604 188.13C 406.184 188.13 409.614 194.36 409.614 200.94ZM 381.754 232.37L 389.734 232.37L 389.734 214.31L 389.874 214.31C 392.394 218.3 397.364 219.98 401.984 219.98C 412.694 219.98 417.594 210.81 417.594 201.08C 417.594 190.51 412.064 181.83 400.654 181.83C 396.034 181.83 391.694 183.58 389.454 187.71L 389.314 187.71L 389.314 182.81L 381.754 182.81L 381.754 232.37ZM 420.697 188.76L 426.717 188.76L 426.717 210.11C 426.857 216.13 428.397 219.35 436.727 219.35C 438.477 219.35 440.157 219.07 441.907 218.93L 441.907 212.77C 440.787 213.05 439.667 213.05 438.547 213.05C 434.977 213.05 434.697 211.37 434.697 208.08L 434.697 188.76L 441.907 188.76L 441.907 182.81L 434.697 182.81L 434.697 171.96L 426.717 171.96L 426.717 182.81L 420.697 182.81L 420.697 188.76ZM 467.34 219L 475.32 219L 475.32 182.81L 467.34 182.81L 467.34 219ZM 467.34 176.58L 475.32 176.58L 475.32 169.02L 467.34 169.02L 467.34 176.58ZM 484.014 219L 491.994 219L 491.994 197.65C 491.994 192.33 495.424 188.13 500.744 188.13C 505.434 188.13 507.674 190.58 507.814 196.25L 507.814 219L 515.794 219L 515.794 194.15C 515.794 186.03 510.824 181.83 502.984 181.83C 498.224 181.83 494.094 184.28 491.714 188.27L 491.574 188.13L 491.574 182.81L 484.014 182.81L 484.014 219ZM 530.44 201.29C 530.44 194.78 533.1 188.13 540.59 188.13C 546.75 188.13 550.6 192.89 550.6 200.87C 550.6 207.17 547.59 213.68 540.45 213.68C 533.52 213.68 530.44 207.52 530.44 201.29ZM 558.3 169.02L 550.32 169.02L 550.32 187.5L 550.18 187.5C 547.73 183.51 542.69 181.83 538.14 181.83C 530.23 181.83 522.46 187.57 522.46 200.66C 522.46 211.51 527.99 219.98 539.4 219.98C 543.95 219.98 548.5 218.23 550.6 214.1L 550.74 214.1L 550.74 219L 558.3 219L 558.3 169.02ZM 567.213 219L 575.193 219L 575.193 182.81L 567.213 182.81L 567.213 219ZM 567.213 176.58L 575.193 176.58L 575.193 169.02L 567.213 169.02L 567.213 176.58ZM 616.298 194.92C 615.528 186.03 608.387 181.83 599.987 181.83C 588.087 181.83 582.138 190.37 582.138 201.29C 582.138 211.93 588.367 219.98 599.708 219.98C 609.017 219.98 614.827 214.8 616.298 205.42L 608.318 205.42C 607.548 210.6 604.327 213.68 599.708 213.68C 592.778 213.68 590.118 207.31 590.118 201.29C 590.118 190.3 595.927 188.13 600.058 188.13C 604.468 188.13 607.688 190.51 608.318 194.92L 616.298 194.92ZM 645.114 206.82C 645.114 211.86 639.654 213.68 636.154 213.68C 633.354 213.68 628.804 212.63 628.804 209.06C 628.804 204.86 631.884 203.6 635.314 203.04C 638.814 202.41 642.664 202.48 645.114 200.87L 645.114 206.82ZM 653.094 192.33C 653.094 184.7 645.674 181.83 638.604 181.83C 630.624 181.83 622.714 184.56 622.154 193.87L 630.134 193.87C 630.484 189.95 633.634 188.13 638.114 188.13C 641.334 188.13 645.604 188.9 645.604 193.03C 645.604 197.72 640.494 197.09 634.754 198.14C 628.034 198.91 620.824 200.38 620.824 209.41C 620.824 216.48 626.704 219.98 633.214 219.98C 637.484 219.98 642.594 218.65 645.744 215.57C 646.374 218.86 648.684 219.98 651.904 219.98C 653.234 219.98 655.754 219.49 656.944 219.07L 656.944 213.54C 656.104 213.68 655.474 213.68 654.984 213.68C 653.514 213.68 653.094 212.91 653.094 210.95L 653.094 192.33ZM 658.04 188.76L 664.06 188.76L 664.06 210.11C 664.2 216.13 665.74 219.35 674.07 219.35C 675.82 219.35 677.5 219.07 679.25 218.93L 679.25 212.77C 678.13 213.05 677.01 213.05 675.89 213.05C 672.32 213.05 672.04 211.37 672.04 208.08L 672.04 188.76L 679.25 188.76L 679.25 182.81L 672.04 182.81L 672.04 171.96L 664.06 171.96L 664.06 182.81L 658.04 182.81L 658.04 188.76ZM 717.821 202.97C 719.151 192.12 712.151 181.83 700.741 181.83C 689.961 181.83 683.241 190.65 683.241 200.94C 683.241 212.07 689.611 219.98 700.951 219.98C 708.861 219.98 715.581 215.57 717.331 207.66L 709.771 207.66C 708.371 211.65 705.571 213.68 700.951 213.68C 694.301 213.68 691.221 208.64 691.221 202.97L 717.821 202.97ZM 691.221 197.72C 691.431 192.33 695.211 188.13 700.741 188.13C 706.131 188.13 709.561 192.68 709.841 197.72L 691.221 197.72ZM 721.928 207.38C 722.068 215.92 728.857 219.98 737.958 219.98C 745.448 219.98 754.128 216.83 754.128 208.22C 754.128 201.08 748.247 198.98 742.437 197.65C 736.557 196.32 730.678 195.76 730.678 191.84C 730.678 188.69 734.947 188.13 737.257 188.13C 740.757 188.13 743.907 189.18 744.608 192.96L 752.937 192.96C 751.957 184.91 745.238 181.83 737.818 181.83C 731.238 181.83 722.698 184.28 722.698 192.19C 722.698 199.54 728.438 201.64 734.318 202.9C 740.127 204.23 745.938 204.72 746.147 208.92C 746.358 213.05 741.107 213.68 738.098 213.68C 733.828 213.68 730.327 212 729.907 207.38L 721.928 207.38ZM 12.11 301L 20.51 301L 27.16 274.12L 27.3 274.12L 34.02 301L 42.21 301L 53.55 264.81L 45.43 264.81L 38.08 291.83L 37.94 291.83L 31.43 264.81L 23.38 264.81L 16.59 291.83L 16.45 291.83L 9.38 264.81L 0.91 264.81L 12.11 301ZM 58.6824 301L 66.6624 301L 66.6624 279.65C 66.6624 274.33 70.0924 270.13 75.4124 270.13C 80.1024 270.13 82.3424 272.58 82.4824 278.25L 82.4824 301L 90.4624 301L 90.4624 276.15C 90.4624 268.03 85.4924 263.83 77.6524 263.83C 72.8924 263.83 68.7624 266.28 66.8024 269.57L 66.6624 269.57L 66.6624 251.02L 58.6824 251.02L 58.6824 301ZM 99.0877 301L 107.068 301L 107.068 264.81L 99.0877 264.81L 99.0877 301ZM 99.0877 258.58L 107.068 258.58L 107.068 251.02L 99.0877 251.02L 99.0877 258.58ZM 148.173 276.92C 147.403 268.03 140.262 263.83 131.862 263.83C 119.962 263.83 114.013 272.37 114.013 283.29C 114.013 293.93 120.242 301.98 131.583 301.98C 140.892 301.98 146.702 296.8 148.173 287.42L 140.193 287.42C 139.423 292.6 136.202 295.68 131.583 295.68C 124.653 295.68 121.993 289.31 121.993 283.29C 121.993 272.3 127.802 270.13 131.933 270.13C 136.343 270.13 139.563 272.51 140.193 276.92L 148.173 276.92ZM 154.659 301L 162.639 301L 162.639 279.65C 162.639 274.33 166.069 270.13 171.389 270.13C 176.079 270.13 178.319 272.58 178.459 278.25L 178.459 301L 186.439 301L 186.439 276.15C 186.439 268.03 181.469 263.83 173.629 263.83C 168.869 263.83 164.739 266.28 162.779 269.57L 162.639 269.57L 162.639 251.02L 154.659 251.02L 154.659 301ZM 210.697 270.76L 216.717 270.76L 216.717 292.11C 216.857 298.13 218.397 301.35 226.727 301.35C 228.477 301.35 230.157 301.07 231.907 300.93L 231.907 294.77C 230.787 295.05 229.667 295.05 228.547 295.05C 224.977 295.05 224.697 293.37 224.697 290.08L 224.697 270.76L 231.907 270.76L 231.907 264.81L 224.697 264.81L 224.697 253.96L 216.717 253.96L 216.717 264.81L 210.697 264.81L 210.697 270.76ZM 270.477 284.97C 271.807 274.12 264.807 263.83 253.397 263.83C 242.617 263.83 235.897 272.65 235.897 282.94C 235.897 294.07 242.267 301.98 253.607 301.98C 261.517 301.98 268.237 297.57 269.987 289.66L 262.427 289.66C 261.027 293.65 258.227 295.68 253.607 295.68C 246.957 295.68 243.877 290.64 243.877 284.97L 270.477 284.97ZM 243.877 279.72C 244.087 274.33 247.867 270.13 253.397 270.13C 258.787 270.13 262.217 274.68 262.497 279.72L 243.877 279.72ZM 276.544 301L 284.524 301L 284.524 283.78C 284.524 275.8 288.864 271.39 294.324 271.39C 295.444 271.39 296.634 271.6 297.754 271.74L 297.754 264.04C 297.054 263.97 296.564 263.83 294.744 263.83C 289.844 263.83 285.084 267.96 284.174 271.81L 284.034 271.81L 284.034 264.81L 276.544 264.81L 276.544 301ZM 301.153 301L 309.133 301L 309.133 279.51C 309.133 273.49 312.913 270.13 317.043 270.13C 321.873 270.13 323.413 272.79 323.413 277.76L 323.413 301L 331.393 301L 331.393 279.79C 331.393 273.7 333.703 270.13 339.093 270.13C 345.323 270.13 345.673 274.12 345.673 279.86L 345.673 301L 353.653 301L 353.653 276.01C 353.653 267.19 349.173 263.83 341.543 263.83C 336.293 263.83 332.863 266.14 330.203 269.85C 328.593 265.72 324.463 263.83 320.053 263.83C 314.313 263.83 311.303 266.28 308.923 269.85L 308.713 269.85L 308.713 264.81L 301.153 264.81L 301.153 301ZM 389.454 301L 397.854 301L 404.504 274.12L 404.644 274.12L 411.364 301L 419.554 301L 430.894 264.81L 422.774 264.81L 415.424 291.83L 415.284 291.83L 408.774 264.81L 400.724 264.81L 393.934 291.83L 393.794 291.83L 386.724 264.81L 378.254 264.81L 389.454 301ZM 468.856 284.97C 470.186 274.12 463.186 263.83 451.776 263.83C 440.996 263.83 434.276 272.65 434.276 282.94C 434.276 294.07 440.646 301.98 451.986 301.98C 459.896 301.98 466.616 297.57 468.366 289.66L 460.806 289.66C 459.406 293.65 456.606 295.68 451.986 295.68C 445.336 295.68 442.256 290.64 442.256 284.97L 468.856 284.97ZM 442.256 279.72C 442.466 274.33 446.246 270.13 451.776 270.13C 457.166 270.13 460.596 274.68 460.876 279.72L 442.256 279.72ZM 494.405 301L 502.385 301L 502.385 279.51C 502.385 273.49 506.165 270.13 510.295 270.13C 515.125 270.13 516.665 272.79 516.665 277.76L 516.665 301L 524.645 301L 524.645 279.79C 524.645 273.7 526.955 270.13 532.345 270.13C 538.575 270.13 538.925 274.12 538.925 279.86L 538.925 301L 546.905 301L 546.905 276.01C 546.905 267.19 542.425 263.83 534.795 263.83C 529.545 263.83 526.115 266.14 523.455 269.85C 521.845 265.72 517.715 263.83 513.305 263.83C 507.565 263.83 504.555 266.28 502.175 269.85L 501.965 269.85L 501.965 264.81L 494.405 264.81L 494.405 301ZM 588.143 284.97C 589.473 274.12 582.473 263.83 571.063 263.83C 560.283 263.83 553.563 272.65 553.563 282.94C 553.563 294.07 559.933 301.98 571.273 301.98C 579.183 301.98 585.903 297.57 587.653 289.66L 580.093 289.66C 578.693 293.65 575.893 295.68 571.273 295.68C 564.623 295.68 561.543 290.64 561.543 284.97L 588.143 284.97ZM 561.543 279.72C 561.753 274.33 565.533 270.13 571.063 270.13C 576.453 270.13 579.883 274.68 580.163 279.72L 561.543 279.72ZM 616.54 288.82C 616.54 293.86 611.08 295.68 607.58 295.68C 604.78 295.68 600.23 294.63 600.23 291.06C 600.23 286.86 603.31 285.6 606.74 285.04C 610.24 284.41 614.09 284.48 616.54 282.87L 616.54 288.82ZM 624.52 274.33C 624.52 266.7 617.1 263.83 610.03 263.83C 602.05 263.83 594.14 266.56 593.58 275.87L 601.56 275.87C 601.91 271.95 605.06 270.13 609.54 270.13C 612.76 270.13 617.03 270.9 617.03 275.03C 617.03 279.72 611.92 279.09 606.18 280.14C 599.46 280.91 592.25 282.38 592.25 291.41C 592.25 298.48 598.13 301.98 604.64 301.98C 608.91 301.98 614.02 300.65 617.17 297.57C 617.8 300.86 620.11 301.98 623.33 301.98C 624.66 301.98 627.18 301.49 628.37 301.07L 628.37 295.54C 627.53 295.68 626.9 295.68 626.41 295.68C 624.94 295.68 624.52 294.91 624.52 292.95L 624.52 274.33ZM 633.106 301L 641.086 301L 641.086 279.65C 641.086 274.33 644.516 270.13 649.836 270.13C 654.526 270.13 656.766 272.58 656.906 278.25L 656.906 301L 664.886 301L 664.886 276.15C 664.886 268.03 659.916 263.83 652.076 263.83C 647.316 263.83 643.186 266.28 640.806 270.27L 640.666 270.13L 640.666 264.81L 633.106 264.81L 633.106 301ZM 673.932 301L 678.762 301C 678.832 304.01 677.292 307.02 674.212 307.79L 674.212 312.06C 679.742 310.94 683.592 306.74 683.662 301L 683.662 291.55L 673.932 291.55L 673.932 301ZM 673.932 275.03L 683.662 275.03L 683.662 265.58L 673.932 265.58L 673.932 275.03ZM 720.176 301L 728.576 301L 735.226 274.12L 735.366 274.12L 742.086 301L 750.276 301L 761.616 264.81L 753.496 264.81L 746.146 291.83L 746.006 291.83L 739.496 264.81L 731.446 264.81L 724.656 291.83L 724.516 291.83L 717.446 264.81L 708.976 264.81L 720.176 301ZM 766.959 301L 774.939 301L 774.939 264.81L 766.959 264.81L 766.959 301ZM 766.959 258.58L 774.939 258.58L 774.939 251.02L 766.959 251.02L 766.959 258.58ZM 779.994 270.76L 786.014 270.76L 786.014 292.11C 786.154 298.13 787.694 301.35 796.024 301.35C 797.774 301.35 799.454 301.07 801.204 300.93L 801.204 294.77C 800.084 295.05 798.964 295.05 797.844 295.05C 794.274 295.05 793.994 293.37 793.994 290.08L 793.994 270.76L 801.204 270.76L 801.204 264.81L 793.994 264.81L 793.994 253.96L 786.014 253.96L 786.014 264.81L 779.994 264.81L 779.994 270.76ZM 806.944 301L 814.924 301L 814.924 279.65C 814.924 274.33 818.354 270.13 823.674 270.13C 828.364 270.13 830.604 272.58 830.744 278.25L 830.744 301L 838.724 301L 838.724 276.15C 838.724 268.03 833.754 263.83 825.914 263.83C 821.154 263.83 817.024 266.28 815.064 269.57L 814.924 269.57L 814.924 251.02L 806.944 251.02L 806.944 301ZM 12.95 347.02C 8.12 348.42 4.2 351.99 4.2 357.31L 4.2 366.76L 12.95 366.76L 12.95 357.31L 8.68 357.31C 8.68 354.3 10.15 352.06 12.95 351.08L 12.95 347.02ZM 26.88 347.02C 22.05 348.42 18.13 351.99 18.13 357.31L 18.13 366.76L 26.88 366.76L 26.88 357.31L 22.61 357.31C 22.61 354.3 24.08 352.06 26.88 351.08L 26.88 347.02ZM 58.4035 386.64C 58.4035 385.66 57.4935 385.66 56.4435 385.66C 55.1135 385.66 54.7635 385.66 54.4835 386.57C 53.9235 388.39 52.0335 395.04 48.0435 395.04C 47.6935 395.04 47.0635 395.04 47.0635 393.78C 47.0635 392.87 47.5535 391.12 47.6235 390.98L 53.9235 374.32C 54.3435 373.2 54.5535 372.64 54.5535 371.59C 54.5535 367.67 50.9835 365.36 47.2035 365.36C 39.9235 365.36 36.4935 374.81 36.4935 376.28C 36.4935 377.26 37.4035 377.26 38.4535 377.26C 39.7835 377.26 40.1335 377.26 40.4135 376.35C 40.9735 374.53 42.8635 367.88 46.8535 367.88C 47.2035 367.88 47.8335 367.88 47.8335 369.14C 47.8335 370.05 47.3435 371.8 47.2735 371.94L 40.9735 388.6C 40.5535 389.72 40.3435 390.28 40.3435 391.33C 40.3435 395.25 43.9135 397.56 47.6935 397.56C 54.9735 397.56 58.4035 388.11 58.4035 386.64ZM 59.3835 354.02C 59.3835 352.06 57.9135 349.82 55.0435 349.82C 51.8235 349.82 48.8135 352.83 48.8135 355.91C 48.8135 358.15 50.4935 360.11 53.1535 360.11C 56.4435 360.11 59.3835 357.03 59.3835 354.02ZM 60.2547 366.76C 65.0847 365.36 69.0047 361.79 69.0047 356.47L 69.0047 347.02L 60.2547 347.02L 60.2547 356.47L 64.5247 356.47C 64.5247 359.48 63.1247 361.72 60.2547 362.7L 60.2547 366.76ZM 74.1847 366.76C 79.0147 365.36 82.9347 361.79 82.9347 356.47L 82.9347 347.02L 74.1847 347.02L 74.1847 356.47L 78.4547 356.47C 78.4547 359.48 77.0547 361.72 74.1847 362.7L 74.1847 366.76ZM 118.751 397L 127.151 397L 133.801 370.12L 133.941 370.12L 140.661 397L 148.851 397L 160.191 360.81L 152.071 360.81L 144.721 387.83L 144.581 387.83L 138.071 360.81L 130.021 360.81L 123.231 387.83L 123.091 387.83L 116.021 360.81L 107.551 360.81L 118.751 397ZM 198.153 380.97C 199.483 370.12 192.483 359.83 181.073 359.83C 170.293 359.83 163.573 368.65 163.573 378.94C 163.573 390.07 169.943 397.98 181.283 397.98C 189.193 397.98 195.913 393.57 197.663 385.66L 190.103 385.66C 188.703 389.65 185.903 391.68 181.283 391.68C 174.633 391.68 171.553 386.64 171.553 380.97L 198.153 380.97ZM 171.553 375.72C 171.763 370.33 175.543 366.13 181.073 366.13C 186.463 366.13 189.893 370.68 190.173 375.72L 171.553 375.72ZM 223.702 397L 231.682 397L 231.682 375.51C 231.682 369.49 235.462 366.13 239.592 366.13C 244.422 366.13 245.962 368.79 245.962 373.76L 245.962 397L 253.942 397L 253.942 375.79C 253.942 369.7 256.252 366.13 261.642 366.13C 267.872 366.13 268.222 370.12 268.222 375.86L 268.222 397L 276.202 397L 276.202 372.01C 276.202 363.19 271.722 359.83 264.092 359.83C 258.842 359.83 255.412 362.14 252.752 365.85C 251.142 361.72 247.012 359.83 242.602 359.83C 236.862 359.83 233.852 362.28 231.472 365.85L 231.262 365.85L 231.262 360.81L 223.702 360.81L 223.702 397ZM 317.44 380.97C 318.77 370.12 311.77 359.83 300.36 359.83C 289.58 359.83 282.86 368.65 282.86 378.94C 282.86 390.07 289.23 397.98 300.57 397.98C 308.48 397.98 315.2 393.57 316.95 385.66L 309.39 385.66C 307.99 389.65 305.19 391.68 300.57 391.68C 293.92 391.68 290.84 386.64 290.84 380.97L 317.44 380.97ZM 290.84 375.72C 291.05 370.33 294.83 366.13 300.36 366.13C 305.75 366.13 309.18 370.68 309.46 375.72L 290.84 375.72ZM 345.837 384.82C 345.837 389.86 340.377 391.68 336.877 391.68C 334.077 391.68 329.527 390.63 329.527 387.06C 329.527 382.86 332.607 381.6 336.037 381.04C 339.537 380.41 343.387 380.48 345.837 378.87L 345.837 384.82ZM 353.817 370.33C 353.817 362.7 346.397 359.83 339.327 359.83C 331.347 359.83 323.437 362.56 322.877 371.87L 330.857 371.87C 331.207 367.95 334.357 366.13 338.837 366.13C 342.057 366.13 346.327 366.9 346.327 371.03C 346.327 375.72 341.217 375.09 335.477 376.14C 328.757 376.91 321.547 378.38 321.547 387.41C 321.547 394.48 327.427 397.98 333.937 397.98C 338.207 397.98 343.317 396.65 346.467 393.57C 347.097 396.86 349.407 397.98 352.627 397.98C 353.957 397.98 356.477 397.49 357.667 397.07L 357.667 391.54C 356.827 391.68 356.197 391.68 355.707 391.68C 354.237 391.68 353.817 390.91 353.817 388.95L 353.817 370.33ZM 362.403 397L 370.383 397L 370.383 375.65C 370.383 370.33 373.813 366.13 379.133 366.13C 383.823 366.13 386.063 368.58 386.203 374.25L 386.203 397L 394.183 397L 394.183 372.15C 394.183 364.03 389.213 359.83 381.373 359.83C 376.613 359.83 372.483 362.28 370.103 366.27L 369.963 366.13L 369.963 360.81L 362.403 360.81L 362.403 397ZM 444.411 384.82C 444.411 389.86 438.951 391.68 435.451 391.68C 432.651 391.68 428.101 390.63 428.101 387.06C 428.101 382.86 431.181 381.6 434.611 381.04C 438.111 380.41 441.961 380.48 444.411 378.87L 444.411 384.82ZM 452.391 370.33C 452.391 362.7 444.971 359.83 437.901 359.83C 429.921 359.83 422.011 362.56 421.451 371.87L 429.431 371.87C 429.781 367.95 432.931 366.13 437.411 366.13C 440.631 366.13 444.901 366.9 444.901 371.03C 444.901 375.72 439.791 375.09 434.051 376.14C 427.331 376.91 420.121 378.38 420.121 387.41C 420.121 394.48 426.001 397.98 432.511 397.98C 436.781 397.98 441.891 396.65 445.041 393.57C 445.671 396.86 447.981 397.98 451.201 397.98C 452.531 397.98 455.051 397.49 456.241 397.07L 456.241 391.54C 455.401 391.68 454.771 391.68 454.281 391.68C 452.811 391.68 452.391 390.91 452.391 388.95L 452.391 370.33ZM 461.187 397L 469.167 397L 469.167 347.02L 461.187 347.02L 461.187 397ZM 478.072 397L 486.052 397L 486.052 347.02L 478.072 347.02L 478.072 397ZM 530.819 391.68C 523.679 391.68 520.529 385.17 520.529 378.87C 520.529 372.64 523.679 366.13 530.819 366.13C 537.959 366.13 541.109 372.64 541.109 378.87C 541.109 385.17 537.959 391.68 530.819 391.68ZM 530.819 397.98C 542.439 397.98 549.089 390 549.089 378.87C 549.089 367.81 542.439 359.83 530.819 359.83C 519.199 359.83 512.549 367.81 512.549 378.87C 512.549 390 519.199 397.98 530.819 397.98ZM 552.153 366.76L 558.103 366.76L 558.103 397L 566.083 397L 566.083 366.76L 572.873 366.76L 572.873 360.81L 566.083 360.81L 566.083 357.1C 566.083 354.09 567.833 353.32 570.003 353.32C 571.613 353.32 572.663 353.46 573.713 353.74L 573.713 347.51C 572.453 347.16 570.633 347.02 568.113 347.02C 562.933 347.02 558.103 348.56 558.103 357.8L 558.103 360.81L 552.153 360.81L 552.153 366.76ZM 593.646 366.76L 599.666 366.76L 599.666 388.11C 599.806 394.13 601.346 397.35 609.676 397.35C 611.426 397.35 613.106 397.07 614.856 396.93L 614.856 390.77C 613.736 391.05 612.616 391.05 611.496 391.05C 607.926 391.05 607.646 389.37 607.646 386.08L 607.646 366.76L 614.856 366.76L 614.856 360.81L 607.646 360.81L 607.646 349.96L 599.666 349.96L 599.666 360.81L 593.646 360.81L 593.646 366.76ZM 620.596 397L 628.576 397L 628.576 375.65C 628.576 370.33 632.006 366.13 637.326 366.13C 642.016 366.13 644.256 368.58 644.396 374.25L 644.396 397L 652.376 397L 652.376 372.15C 652.376 364.03 647.406 359.83 639.566 359.83C 634.806 359.83 630.676 362.28 628.716 365.57L 628.576 365.57L 628.576 347.02L 620.596 347.02L 620.596 397ZM 693.622 380.97C 694.952 370.12 687.952 359.83 676.542 359.83C 665.762 359.83 659.042 368.65 659.042 378.94C 659.042 390.07 665.412 397.98 676.752 397.98C 684.662 397.98 691.382 393.57 693.132 385.66L 685.572 385.66C 684.172 389.65 681.372 391.68 676.752 391.68C 670.102 391.68 667.022 386.64 667.022 380.97L 693.622 380.97ZM 667.022 375.72C 667.232 370.33 671.012 366.13 676.542 366.13C 681.932 366.13 685.362 370.68 685.642 375.72L 667.022 375.72ZM 699.688 397L 707.668 397L 707.668 375.51C 707.668 369.49 711.448 366.13 715.578 366.13C 720.408 366.13 721.948 368.79 721.948 373.76L 721.948 397L 729.928 397L 729.928 375.79C 729.928 369.7 732.238 366.13 737.628 366.13C 743.858 366.13 744.208 370.12 744.208 375.86L 744.208 397L 752.188 397L 752.188 372.01C 752.188 363.19 747.708 359.83 740.078 359.83C 734.828 359.83 731.398 362.14 728.738 365.85C 727.128 361.72 722.998 359.83 718.588 359.83C 712.848 359.83 709.838 362.28 707.458 365.85L 707.248 365.85L 707.248 360.81L 699.688 360.81L 699.688 397ZM 761.226 397L 770.956 397L 770.956 387.55L 761.226 387.55L 761.226 397ZM 775.319 345.83C 781.199 355.84 783.929 366.48 783.929 378.17C 783.929 389.86 780.919 400.43 775.319 410.37L 781.829 410.37C 788.199 400.64 791.909 389.44 791.909 378.17C 791.909 364.8 787.429 354.79 781.829 345.83L 775.319 345.83Z" transform="translate(844 -31)" fill="#131313"/>
<path id="Summation (add together all the things after)" d="M 4.29 93.06C 4.68 116.07 21.84 126.21 43.03 126.21C 61.49 126.21 79.95 117.89 79.95 97.09C 79.95 87.47 74.1 77.07 61.88 73.43C 57.07 72 36.53 66.67 35.1 66.28C 28.47 64.46 24.05 60.82 24.05 54.32C 24.05 44.96 33.54 42.23 41.08 42.23C 52.26 42.23 60.32 46.65 61.1 58.61L 77.35 58.61C 77.35 39.24 61.1 28.97 41.73 28.97C 24.96 28.97 7.8 37.68 7.8 56.27C 7.8 65.89 12.48 75.51 28.34 79.8C 41.08 83.31 49.53 85 56.03 87.47C 59.8 88.9 63.7 91.76 63.7 98.91C 63.7 105.93 58.37 112.95 44.07 112.95C 31.07 112.95 20.54 107.36 20.54 93.06L 4.29 93.06ZM 151.117 56.79L 136.297 56.79L 136.297 95.79C 136.297 106.19 132.137 114.12 119.787 114.12C 111.727 114.12 106.917 109.83 106.917 98L 106.917 56.79L 92.0969 56.79L 92.0969 99.43C 92.0969 116.98 99.6369 125.82 117.187 125.82C 124.597 125.82 132.657 121.4 136.297 114.64L 136.557 114.64L 136.557 124L 151.117 124L 151.117 56.79ZM 166.745 124L 181.565 124L 181.565 84.09C 181.565 72.91 188.585 66.67 196.255 66.67C 205.225 66.67 208.085 71.61 208.085 80.84L 208.085 124L 222.905 124L 222.905 84.61C 222.905 73.3 227.195 66.67 237.205 66.67C 248.775 66.67 249.425 74.08 249.425 84.74L 249.425 124L 264.245 124L 264.245 77.59C 264.245 61.21 255.925 54.97 241.755 54.97C 232.005 54.97 225.635 59.26 220.695 66.15C 217.705 58.48 210.035 54.97 201.845 54.97C 191.185 54.97 185.595 59.52 181.175 66.15L 180.785 66.15L 180.785 56.79L 166.745 56.79L 166.745 124ZM 279.861 124L 294.681 124L 294.681 84.09C 294.681 72.91 301.701 66.67 309.371 66.67C 318.341 66.67 321.201 71.61 321.201 80.84L 321.201 124L 336.021 124L 336.021 84.61C 336.021 73.3 340.311 66.67 350.321 66.67C 361.891 66.67 362.541 74.08 362.541 84.74L 362.541 124L 377.361 124L 377.361 77.59C 377.361 61.21 369.041 54.97 354.871 54.97C 345.121 54.97 338.751 59.26 333.811 66.15C 330.821 58.48 323.151 54.97 314.961 54.97C 304.301 54.97 298.711 59.52 294.291 66.15L 293.901 66.15L 293.901 56.79L 279.861 56.79L 279.861 124ZM 434.446 101.38C 434.446 110.74 424.306 114.12 417.806 114.12C 412.606 114.12 404.156 112.17 404.156 105.54C 404.156 97.74 409.876 95.4 416.246 94.36C 422.746 93.19 429.896 93.32 434.446 90.33L 434.446 101.38ZM 449.266 74.47C 449.266 60.3 435.486 54.97 422.356 54.97C 407.536 54.97 392.846 60.04 391.806 77.33L 406.626 77.33C 407.276 70.05 413.126 66.67 421.446 66.67C 427.426 66.67 435.356 68.1 435.356 75.77C 435.356 84.48 425.866 83.31 415.206 85.26C 402.726 86.69 389.336 89.42 389.336 106.19C 389.336 119.32 400.256 125.82 412.346 125.82C 420.276 125.82 429.766 123.35 435.616 117.63C 436.786 123.74 441.076 125.82 447.056 125.82C 449.526 125.82 454.206 124.91 456.416 124.13L 456.416 113.86C 454.856 114.12 453.686 114.12 452.776 114.12C 450.046 114.12 449.266 112.69 449.266 109.05L 449.266 74.47ZM 458.452 67.84L 469.632 67.84L 469.632 107.49C 469.892 118.67 472.752 124.65 488.222 124.65C 491.472 124.65 494.592 124.13 497.842 123.87L 497.842 112.43C 495.762 112.95 493.682 112.95 491.602 112.95C 484.972 112.95 484.452 109.83 484.452 103.72L 484.452 67.84L 497.842 67.84L 497.842 56.79L 484.452 56.79L 484.452 36.64L 469.632 36.64L 469.632 56.79L 458.452 56.79L 458.452 67.84ZM 508.893 124L 523.713 124L 523.713 56.79L 508.893 56.79L 508.893 124ZM 508.893 45.22L 523.713 45.22L 523.713 31.18L 508.893 31.18L 508.893 45.22ZM 570.671 114.12C 557.411 114.12 551.561 102.03 551.561 90.33C 551.561 78.76 557.411 66.67 570.671 66.67C 583.931 66.67 589.781 78.76 589.781 90.33C 589.781 102.03 583.931 114.12 570.671 114.12ZM 570.671 125.82C 592.251 125.82 604.601 111 604.601 90.33C 604.601 69.79 592.251 54.97 570.671 54.97C 549.091 54.97 536.741 69.79 536.741 90.33C 536.741 111 549.091 125.82 570.671 125.82ZM 616.921 124L 631.741 124L 631.741 84.35C 631.741 74.47 638.111 66.67 647.991 66.67C 656.701 66.67 660.861 71.22 661.121 81.75L 661.121 124L 675.941 124L 675.941 77.85C 675.941 62.77 666.711 54.97 652.151 54.97C 643.311 54.97 635.641 59.52 631.221 66.93L 630.961 66.67L 630.961 56.79L 616.921 56.79L 616.921 124ZM 20.02 232.37C 14.14 222.43 11.41 211.79 11.41 200.1C 11.41 188.41 14.42 177.84 20.02 167.83L 13.51 167.83C 7.14 177.63 3.43 188.83 3.43 200.1C 3.43 213.47 7.91 223.48 13.51 232.37L 20.02 232.37ZM 46.0124 206.82C 46.0124 211.86 40.5524 213.68 37.0524 213.68C 34.2524 213.68 29.7024 212.63 29.7024 209.06C 29.7024 204.86 32.7824 203.6 36.2124 203.04C 39.7124 202.41 43.5624 202.48 46.0124 200.87L 46.0124 206.82ZM 53.9924 192.33C 53.9924 184.7 46.5724 181.83 39.5024 181.83C 31.5224 181.83 23.6124 184.56 23.0524 193.87L 31.0324 193.87C 31.3824 189.95 34.5324 188.13 39.0124 188.13C 42.2324 188.13 46.5024 188.9 46.5024 193.03C 46.5024 197.72 41.3924 197.09 35.6524 198.14C 28.9324 198.91 21.7224 200.38 21.7224 209.41C 21.7224 216.48 27.6024 219.98 34.1124 219.98C 38.3824 219.98 43.4924 218.65 46.6424 215.57C 47.2724 218.86 49.5824 219.98 52.8024 219.98C 54.1324 219.98 56.6524 219.49 57.8424 219.07L 57.8424 213.54C 57.0024 213.68 56.3724 213.68 55.8824 213.68C 54.4124 213.68 53.9924 212.91 53.9924 210.95L 53.9924 192.33ZM 68.8089 201.29C 68.8089 194.78 71.4689 188.13 78.9589 188.13C 85.1189 188.13 88.9689 192.89 88.9689 200.87C 88.9689 207.17 85.9589 213.68 78.8189 213.68C 71.8889 213.68 68.8089 207.52 68.8089 201.29ZM 96.6689 169.02L 88.6889 169.02L 88.6889 187.5L 88.5489 187.5C 86.0989 183.51 81.0589 181.83 76.5089 181.83C 68.5989 181.83 60.8289 187.57 60.8289 200.66C 60.8289 211.51 66.3589 219.98 77.7689 219.98C 82.3189 219.98 86.8689 218.23 88.9689 214.1L 89.1089 214.1L 89.1089 219L 96.6689 219L 96.6689 169.02ZM 111.602 201.29C 111.602 194.78 114.262 188.13 121.752 188.13C 127.912 188.13 131.762 192.89 131.762 200.87C 131.762 207.17 128.752 213.68 121.612 213.68C 114.682 213.68 111.602 207.52 111.602 201.29ZM 139.462 169.02L 131.482 169.02L 131.482 187.5L 131.342 187.5C 128.892 183.51 123.852 181.83 119.302 181.83C 111.392 181.83 103.622 187.57 103.622 200.66C 103.622 211.51 109.152 219.98 120.562 219.98C 125.112 219.98 129.662 218.23 131.762 214.1L 131.902 214.1L 131.902 219L 139.462 219L 139.462 169.02ZM 164.007 188.76L 170.027 188.76L 170.027 210.11C 170.167 216.13 171.707 219.35 180.037 219.35C 181.787 219.35 183.467 219.07 185.217 218.93L 185.217 212.77C 184.097 213.05 182.977 213.05 181.857 213.05C 178.287 213.05 178.007 211.37 178.007 208.08L 178.007 188.76L 185.217 188.76L 185.217 182.81L 178.007 182.81L 178.007 171.96L 170.027 171.96L 170.027 182.81L 164.007 182.81L 164.007 188.76ZM 207.548 213.68C 200.408 213.68 197.258 207.17 197.258 200.87C 197.258 194.64 200.408 188.13 207.548 188.13C 214.688 188.13 217.838 194.64 217.838 200.87C 217.838 207.17 214.688 213.68 207.548 213.68ZM 207.548 219.98C 219.168 219.98 225.818 212 225.818 200.87C 225.818 189.81 219.168 181.83 207.548 181.83C 195.928 181.83 189.278 189.81 189.278 200.87C 189.278 212 195.928 219.98 207.548 219.98ZM 248.202 212.7C 241.552 212.7 238.682 206.68 238.682 200.73C 238.682 194.71 241.132 188.13 248.202 188.13C 255.132 188.13 257.932 193.87 257.932 200.1C 257.932 206.26 255.272 212.7 248.202 212.7ZM 265.912 182.81L 257.932 182.81L 257.932 187.78L 257.792 187.78C 255.762 183.72 251.632 181.83 247.082 181.83C 236.792 181.83 230.702 190.23 230.702 199.96C 230.702 210.32 235.462 219 246.942 219C 251.422 219 255.552 216.62 257.792 212.63L 257.932 212.63L 257.932 218.16C 257.932 224.11 255.062 227.4 248.622 227.4C 244.562 227.4 240.922 226.63 239.942 222.08L 231.962 222.08C 232.662 230.55 240.852 233.35 248.132 233.35C 259.542 233.35 265.912 227.96 265.912 217.11L 265.912 182.81ZM 306.776 202.97C 308.106 192.12 301.106 181.83 289.696 181.83C 278.916 181.83 272.196 190.65 272.196 200.94C 272.196 212.07 278.566 219.98 289.906 219.98C 297.816 219.98 304.536 215.57 306.286 207.66L 298.726 207.66C 297.326 211.65 294.526 213.68 289.906 213.68C 283.256 213.68 280.176 208.64 280.176 202.97L 306.776 202.97ZM 280.176 197.72C 280.386 192.33 284.166 188.13 289.696 188.13C 295.086 188.13 298.516 192.68 298.796 197.72L 280.176 197.72ZM 309.203 188.76L 315.223 188.76L 315.223 210.11C 315.363 216.13 316.903 219.35 325.233 219.35C 326.983 219.35 328.663 219.07 330.413 218.93L 330.413 212.77C 329.293 213.05 328.173 213.05 327.053 213.05C 323.483 213.05 323.203 211.37 323.203 208.08L 323.203 188.76L 330.413 188.76L 330.413 182.81L 323.203 182.81L 323.203 171.96L 315.223 171.96L 315.223 182.81L 309.203 182.81L 309.203 188.76ZM 336.153 219L 344.133 219L 344.133 197.65C 344.133 192.33 347.563 188.13 352.883 188.13C 357.573 188.13 359.813 190.58 359.953 196.25L 359.953 219L 367.933 219L 367.933 194.15C 367.933 186.03 362.963 181.83 355.123 181.83C 350.363 181.83 346.233 184.28 344.273 187.57L 344.133 187.57L 344.133 169.02L 336.153 169.02L 336.153 219ZM 409.178 202.97C 410.508 192.12 403.508 181.83 392.098 181.83C 381.318 181.83 374.598 190.65 374.598 200.94C 374.598 212.07 380.968 219.98 392.308 219.98C 400.218 219.98 406.938 215.57 408.688 207.66L 401.128 207.66C 399.728 211.65 396.928 213.68 392.308 213.68C 385.658 213.68 382.578 208.64 382.578 202.97L 409.178 202.97ZM 382.578 197.72C 382.788 192.33 386.568 188.13 392.098 188.13C 397.488 188.13 400.918 192.68 401.198 197.72L 382.578 197.72ZM 415.245 219L 423.225 219L 423.225 201.78C 423.225 193.8 427.565 189.39 433.025 189.39C 434.145 189.39 435.335 189.6 436.455 189.74L 436.455 182.04C 435.755 181.97 435.265 181.83 433.445 181.83C 428.545 181.83 423.785 185.96 422.875 189.81L 422.735 189.81L 422.735 182.81L 415.245 182.81L 415.245 219ZM 481.667 206.82C 481.667 211.86 476.207 213.68 472.707 213.68C 469.907 213.68 465.357 212.63 465.357 209.06C 465.357 204.86 468.437 203.6 471.867 203.04C 475.367 202.41 479.217 202.48 481.667 200.87L 481.667 206.82ZM 489.647 192.33C 489.647 184.7 482.227 181.83 475.157 181.83C 467.177 181.83 459.267 184.56 458.707 193.87L 466.687 193.87C 467.037 189.95 470.187 188.13 474.667 188.13C 477.887 188.13 482.157 188.9 482.157 193.03C 482.157 197.72 477.047 197.09 471.307 198.14C 464.587 198.91 457.377 200.38 457.377 209.41C 457.377 216.48 463.257 219.98 469.767 219.98C 474.037 219.98 479.147 218.65 482.297 215.57C 482.927 218.86 485.237 219.98 488.457 219.98C 489.787 219.98 492.307 219.49 493.497 219.07L 493.497 213.54C 492.657 213.68 492.027 213.68 491.537 213.68C 490.067 213.68 489.647 212.91 489.647 210.95L 489.647 192.33ZM 498.443 219L 506.423 219L 506.423 169.02L 498.443 169.02L 498.443 219ZM 515.328 219L 523.308 219L 523.308 169.02L 515.328 169.02L 515.328 219ZM 0.56 270.76L 6.58 270.76L 6.58 292.11C 6.72 298.13 8.26 301.35 16.59 301.35C 18.34 301.35 20.02 301.07 21.77 300.93L 21.77 294.77C 20.65 295.05 19.53 295.05 18.41 295.05C 14.84 295.05 14.56 293.37 14.56 290.08L 14.56 270.76L 21.77 270.76L 21.77 264.81L 14.56 264.81L 14.56 253.96L 6.58 253.96L 6.58 264.81L 0.56 264.81L 0.56 270.76ZM 27.5105 301L 35.4905 301L 35.4905 279.65C 35.4905 274.33 38.9205 270.13 44.2405 270.13C 48.9305 270.13 51.1705 272.58 51.3105 278.25L 51.3105 301L 59.2905 301L 59.2905 276.15C 59.2905 268.03 54.3205 263.83 46.4805 263.83C 41.7205 263.83 37.5905 266.28 35.6305 269.57L 35.4905 269.57L 35.4905 251.02L 27.5105 251.02L 27.5105 301ZM 100.536 284.97C 101.866 274.12 94.8659 263.83 83.4559 263.83C 72.6759 263.83 65.9559 272.65 65.9559 282.94C 65.9559 294.07 72.3259 301.98 83.6659 301.98C 91.5759 301.98 98.2959 297.57 100.046 289.66L 92.4859 289.66C 91.0859 293.65 88.2859 295.68 83.6659 295.68C 77.0159 295.68 73.9359 290.64 73.9359 284.97L 100.536 284.97ZM 73.9359 279.72C 74.1459 274.33 77.9259 270.13 83.4559 270.13C 88.8459 270.13 92.2759 274.68 92.5559 279.72L 73.9359 279.72ZM 122.445 270.76L 128.465 270.76L 128.465 292.11C 128.605 298.13 130.145 301.35 138.475 301.35C 140.225 301.35 141.905 301.07 143.655 300.93L 143.655 294.77C 142.535 295.05 141.415 295.05 140.295 295.05C 136.725 295.05 136.445 293.37 136.445 290.08L 136.445 270.76L 143.655 270.76L 143.655 264.81L 136.445 264.81L 136.445 253.96L 128.465 253.96L 128.465 264.81L 122.445 264.81L 122.445 270.76ZM 149.395 301L 157.375 301L 157.375 279.65C 157.375 274.33 160.805 270.13 166.125 270.13C 170.815 270.13 173.055 272.58 173.195 278.25L 173.195 301L 181.175 301L 181.175 276.15C 181.175 268.03 176.205 263.83 168.365 263.83C 163.605 263.83 159.475 266.28 157.515 269.57L 157.375 269.57L 157.375 251.02L 149.395 251.02L 149.395 301ZM 189.801 301L 197.781 301L 197.781 264.81L 189.801 264.81L 189.801 301ZM 189.801 258.58L 197.781 258.58L 197.781 251.02L 189.801 251.02L 189.801 258.58ZM 206.475 301L 214.455 301L 214.455 279.65C 214.455 274.33 217.885 270.13 223.205 270.13C 227.895 270.13 230.135 272.58 230.275 278.25L 230.275 301L 238.255 301L 238.255 276.15C 238.255 268.03 233.285 263.83 225.445 263.83C 220.685 263.83 216.555 266.28 214.175 270.27L 214.035 270.13L 214.035 264.81L 206.475 264.81L 206.475 301ZM 262.421 294.7C 255.771 294.7 252.901 288.68 252.901 282.73C 252.901 276.71 255.351 270.13 262.421 270.13C 269.351 270.13 272.151 275.87 272.151 282.1C 272.151 288.26 269.491 294.7 262.421 294.7ZM 280.131 264.81L 272.151 264.81L 272.151 269.78L 272.011 269.78C 269.981 265.72 265.851 263.83 261.301 263.83C 251.011 263.83 244.921 272.23 244.921 281.96C 244.921 292.32 249.681 301 261.161 301C 265.641 301 269.771 298.62 272.011 294.63L 272.151 294.63L 272.151 300.16C 272.151 306.11 269.281 309.4 262.841 309.4C 258.781 309.4 255.141 308.63 254.161 304.08L 246.181 304.08C 246.881 312.55 255.071 315.35 262.351 315.35C 273.761 315.35 280.131 309.96 280.131 299.11L 280.131 264.81ZM 286.205 289.38C 286.345 297.92 293.135 301.98 302.235 301.98C 309.725 301.98 318.405 298.83 318.405 290.22C 318.405 283.08 312.525 280.98 306.715 279.65C 300.835 278.32 294.955 277.76 294.955 273.84C 294.955 270.69 299.225 270.13 301.535 270.13C 305.035 270.13 308.185 271.18 308.885 274.96L 317.215 274.96C 316.235 266.91 309.515 263.83 302.095 263.83C 295.515 263.83 286.975 266.28 286.975 274.19C 286.975 281.54 292.715 283.64 298.595 284.9C 304.405 286.23 310.215 286.72 310.425 290.92C 310.635 295.05 305.385 295.68 302.375 295.68C 298.105 295.68 294.605 294 294.185 289.38L 286.205 289.38ZM 366.276 288.82C 366.276 293.86 360.816 295.68 357.316 295.68C 354.516 295.68 349.966 294.63 349.966 291.06C 349.966 286.86 353.046 285.6 356.476 285.04C 359.976 284.41 363.826 284.48 366.276 282.87L 366.276 288.82ZM 374.256 274.33C 374.256 266.7 366.836 263.83 359.766 263.83C 351.786 263.83 343.876 266.56 343.316 275.87L 351.296 275.87C 351.646 271.95 354.796 270.13 359.276 270.13C 362.496 270.13 366.766 270.9 366.766 275.03C 366.766 279.72 361.656 279.09 355.916 280.14C 349.196 280.91 341.986 282.38 341.986 291.41C 341.986 298.48 347.866 301.98 354.376 301.98C 358.646 301.98 363.756 300.65 366.906 297.57C 367.536 300.86 369.846 301.98 373.066 301.98C 374.396 301.98 376.916 301.49 378.106 301.07L 378.106 295.54C 377.266 295.68 376.636 295.68 376.146 295.68C 374.676 295.68 374.256 294.91 374.256 292.95L 374.256 274.33ZM 379.273 270.76L 385.223 270.76L 385.223 301L 393.203 301L 393.203 270.76L 399.993 270.76L 399.993 264.81L 393.203 264.81L 393.203 261.1C 393.203 258.09 394.953 257.32 397.123 257.32C 398.733 257.32 399.783 257.46 400.833 257.74L 400.833 251.51C 399.573 251.16 397.753 251.02 395.233 251.02C 390.053 251.02 385.223 252.56 385.223 261.8L 385.223 264.81L 379.273 264.81L 379.273 270.76ZM 401.283 270.76L 407.303 270.76L 407.303 292.11C 407.443 298.13 408.983 301.35 417.313 301.35C 419.063 301.35 420.743 301.07 422.493 300.93L 422.493 294.77C 421.373 295.05 420.253 295.05 419.133 295.05C 415.563 295.05 415.283 293.37 415.283 290.08L 415.283 270.76L 422.493 270.76L 422.493 264.81L 415.283 264.81L 415.283 253.96L 407.303 253.96L 407.303 264.81L 401.283 264.81L 401.283 270.76ZM 461.063 284.97C 462.393 274.12 455.393 263.83 443.983 263.83C 433.203 263.83 426.483 272.65 426.483 282.94C 426.483 294.07 432.853 301.98 444.193 301.98C 452.103 301.98 458.823 297.57 460.573 289.66L 453.013 289.66C 451.613 293.65 448.813 295.68 444.193 295.68C 437.543 295.68 434.463 290.64 434.463 284.97L 461.063 284.97ZM 434.463 279.72C 434.673 274.33 438.453 270.13 443.983 270.13C 449.373 270.13 452.803 274.68 453.083 279.72L 434.463 279.72ZM 467.13 301L 475.11 301L 475.11 283.78C 475.11 275.8 479.45 271.39 484.91 271.39C 486.03 271.39 487.22 271.6 488.34 271.74L 488.34 264.04C 487.64 263.97 487.15 263.83 485.33 263.83C 480.43 263.83 475.67 267.96 474.76 271.81L 474.62 271.81L 474.62 264.81L 467.13 264.81L 467.13 301ZM 486.979 249.83C 492.859 259.84 495.589 270.48 495.589 282.17C 495.589 293.86 492.579 304.43 486.979 314.37L 493.489 314.37C 499.859 304.64 503.569 293.44 503.569 282.17C 503.569 268.8 499.089 258.79 493.489 249.83L 486.979 249.83Z" transform="translate(0 11)" fill="#131313"/>
<path id="Mean (the Greek letter &#226;&#128;&#156;mu&#226;&#128;&#157;)" d="M 9.62 124L 25.09 124L 25.09 52.37L 25.35 52.37L 51.09 124L 64.48 124L 90.22 52.37L 90.48 52.37L 90.48 124L 105.95 124L 105.95 31.18L 83.33 31.18L 58.37 103.85L 58.11 103.85L 32.5 31.18L 9.62 31.18L 9.62 124ZM 184.297 94.23C 186.767 74.08 173.767 54.97 152.577 54.97C 132.557 54.97 120.077 71.35 120.077 90.46C 120.077 111.13 131.907 125.82 152.967 125.82C 167.657 125.82 180.137 117.63 183.387 102.94L 169.347 102.94C 166.747 110.35 161.547 114.12 152.967 114.12C 140.617 114.12 134.897 104.76 134.897 94.23L 184.297 94.23ZM 134.897 84.48C 135.287 74.47 142.307 66.67 152.577 66.67C 162.587 66.67 168.957 75.12 169.477 84.48L 134.897 84.48ZM 237.034 101.38C 237.034 110.74 226.894 114.12 220.394 114.12C 215.194 114.12 206.744 112.17 206.744 105.54C 206.744 97.74 212.464 95.4 218.834 94.36C 225.334 93.19 232.484 93.32 237.034 90.33L 237.034 101.38ZM 251.854 74.47C 251.854 60.3 238.074 54.97 224.944 54.97C 210.124 54.97 195.434 60.04 194.394 77.33L 209.214 77.33C 209.864 70.05 215.714 66.67 224.034 66.67C 230.014 66.67 237.944 68.1 237.944 75.77C 237.944 84.48 228.454 83.31 217.794 85.26C 205.314 86.69 191.924 89.42 191.924 106.19C 191.924 119.32 202.844 125.82 214.934 125.82C 222.864 125.82 232.354 123.35 238.204 117.63C 239.374 123.74 243.664 125.82 249.644 125.82C 252.114 125.82 256.794 124.91 259.004 124.13L 259.004 113.86C 257.444 114.12 256.274 114.12 255.364 114.12C 252.634 114.12 251.854 112.69 251.854 109.05L 251.854 74.47ZM 267.8 124L 282.62 124L 282.62 84.35C 282.62 74.47 288.99 66.67 298.87 66.67C 307.58 66.67 311.74 71.22 312 81.75L 312 124L 326.82 124L 326.82 77.85C 326.82 62.77 317.59 54.97 303.03 54.97C 294.19 54.97 286.52 59.52 282.1 66.93L 281.84 66.67L 281.84 56.79L 267.8 56.79L 267.8 124ZM 20.02 232.37C 14.14 222.43 11.41 211.79 11.41 200.1C 11.41 188.41 14.42 177.84 20.02 167.83L 13.51 167.83C 7.14 177.63 3.43 188.83 3.43 200.1C 3.43 213.47 7.91 223.48 13.51 232.37L 20.02 232.37ZM 20.0424 188.76L 26.0624 188.76L 26.0624 210.11C 26.2024 216.13 27.7424 219.35 36.0724 219.35C 37.8224 219.35 39.5024 219.07 41.2524 218.93L 41.2524 212.77C 40.1324 213.05 39.0124 213.05 37.8924 213.05C 34.3224 213.05 34.0424 211.37 34.0424 208.08L 34.0424 188.76L 41.2524 188.76L 41.2524 182.81L 34.0424 182.81L 34.0424 171.96L 26.0624 171.96L 26.0624 182.81L 20.0424 182.81L 20.0424 188.76ZM 46.993 219L 54.973 219L 54.973 197.65C 54.973 192.33 58.403 188.13 63.723 188.13C 68.413 188.13 70.653 190.58 70.793 196.25L 70.793 219L 78.773 219L 78.773 194.15C 78.773 186.03 73.803 181.83 65.963 181.83C 61.203 181.83 57.073 184.28 55.113 187.57L 54.973 187.57L 54.973 169.02L 46.993 169.02L 46.993 219ZM 120.018 202.97C 121.348 192.12 114.348 181.83 102.938 181.83C 92.1583 181.83 85.4383 190.65 85.4383 200.94C 85.4383 212.07 91.8083 219.98 103.148 219.98C 111.058 219.98 117.778 215.57 119.528 207.66L 111.968 207.66C 110.568 211.65 107.768 213.68 103.148 213.68C 96.4983 213.68 93.4183 208.64 93.4183 202.97L 120.018 202.97ZM 93.4183 197.72C 93.6283 192.33 97.4083 188.13 102.938 188.13C 108.328 188.13 111.758 192.68 112.038 197.72L 93.4183 197.72ZM 190.297 192.68L 169.017 192.68L 169.017 199.33L 182.317 199.33C 182.177 207.8 177.277 213.19 168.317 213.05C 157.607 213.05 153.127 203.6 153.127 194.01C 153.127 184.42 157.607 174.97 168.317 174.97C 174.617 174.97 180.357 178.33 181.197 184.91L 189.737 184.91C 188.407 173.64 179.237 167.83 168.317 167.83C 153.337 167.83 144.377 179.73 144.377 194.01C 144.377 208.29 153.337 220.19 168.317 220.19C 174.407 220.19 178.677 218.44 183.367 213.12L 184.697 219L 190.297 219L 190.297 192.68ZM 198.682 219L 206.662 219L 206.662 201.78C 206.662 193.8 211.002 189.39 216.462 189.39C 217.582 189.39 218.772 189.6 219.892 189.74L 219.892 182.04C 219.192 181.97 218.702 181.83 216.882 181.83C 211.982 181.83 207.222 185.96 206.312 189.81L 206.172 189.81L 206.172 182.81L 198.682 182.81L 198.682 219ZM 254.891 202.97C 256.221 192.12 249.221 181.83 237.811 181.83C 227.031 181.83 220.311 190.65 220.311 200.94C 220.311 212.07 226.681 219.98 238.021 219.98C 245.931 219.98 252.651 215.57 254.401 207.66L 246.841 207.66C 245.441 211.65 242.641 213.68 238.021 213.68C 231.371 213.68 228.291 208.64 228.291 202.97L 254.891 202.97ZM 228.291 197.72C 228.501 192.33 232.281 188.13 237.811 188.13C 243.201 188.13 246.631 192.68 246.911 197.72L 228.291 197.72ZM 293.788 202.97C 295.118 192.12 288.118 181.83 276.708 181.83C 265.928 181.83 259.208 190.65 259.208 200.94C 259.208 212.07 265.578 219.98 276.918 219.98C 284.828 219.98 291.548 215.57 293.298 207.66L 285.738 207.66C 284.338 211.65 281.538 213.68 276.918 213.68C 270.268 213.68 267.188 208.64 267.188 202.97L 293.788 202.97ZM 267.188 197.72C 267.398 192.33 271.178 188.13 276.708 188.13C 282.098 188.13 285.528 192.68 285.808 197.72L 267.188 197.72ZM 300.064 219L 308.044 219L 308.044 206.05L 312.804 201.43L 323.864 219L 333.594 219L 318.404 196.11L 332.264 182.81L 322.464 182.81L 308.044 197.44L 308.044 169.02L 300.064 169.02L 300.064 219ZM 4.41 301L 12.39 301L 12.39 251.02L 4.41 251.02L 4.41 301ZM 53.9148 284.97C 55.2448 274.12 48.2448 263.83 36.8348 263.83C 26.0548 263.83 19.3348 272.65 19.3348 282.94C 19.3348 294.07 25.7048 301.98 37.0448 301.98C 44.9548 301.98 51.6748 297.57 53.4248 289.66L 45.8648 289.66C 44.4648 293.65 41.6648 295.68 37.0448 295.68C 30.3948 295.68 27.3148 290.64 27.3148 284.97L 53.9148 284.97ZM 27.3148 279.72C 27.5248 274.33 31.3048 270.13 36.8348 270.13C 42.2248 270.13 45.6548 274.68 45.9348 279.72L 27.3148 279.72ZM 56.3413 270.76L 62.3612 270.76L 62.3612 292.11C 62.5013 298.13 64.0413 301.35 72.3713 301.35C 74.1212 301.35 75.8013 301.07 77.5512 300.93L 77.5512 294.77C 76.4312 295.05 75.3113 295.05 74.1913 295.05C 70.6212 295.05 70.3413 293.37 70.3413 290.08L 70.3413 270.76L 77.5512 270.76L 77.5512 264.81L 70.3413 264.81L 70.3413 253.96L 62.3612 253.96L 62.3612 264.81L 56.3413 264.81L 56.3413 270.76ZM 79.6518 270.76L 85.6718 270.76L 85.6718 292.11C 85.8118 298.13 87.3518 301.35 95.6818 301.35C 97.4318 301.35 99.1118 301.07 100.862 300.93L 100.862 294.77C 99.7418 295.05 98.6218 295.05 97.5018 295.05C 93.9318 295.05 93.6518 293.37 93.6518 290.08L 93.6518 270.76L 100.862 270.76L 100.862 264.81L 93.6518 264.81L 93.6518 253.96L 85.6718 253.96L 85.6718 264.81L 79.6518 264.81L 79.6518 270.76ZM 139.432 284.97C 140.762 274.12 133.762 263.83 122.352 263.83C 111.572 263.83 104.852 272.65 104.852 282.94C 104.852 294.07 111.222 301.98 122.562 301.98C 130.472 301.98 137.192 297.57 138.942 289.66L 131.382 289.66C 129.982 293.65 127.182 295.68 122.562 295.68C 115.912 295.68 112.832 290.64 112.832 284.97L 139.432 284.97ZM 112.832 279.72C 113.042 274.33 116.822 270.13 122.352 270.13C 127.742 270.13 131.172 274.68 131.452 279.72L 112.832 279.72ZM 145.499 301L 153.479 301L 153.479 283.78C 153.479 275.8 157.819 271.39 163.279 271.39C 164.399 271.39 165.589 271.6 166.709 271.74L 166.709 264.04C 166.009 263.97 165.519 263.83 163.699 263.83C 158.799 263.83 154.039 267.96 153.129 271.81L 152.989 271.81L 152.989 264.81L 145.499 264.81L 145.499 301ZM 198.341 251.02C 193.511 252.42 189.591 255.99 189.591 261.31L 189.591 270.76L 198.341 270.76L 198.341 261.31L 194.071 261.31C 194.071 258.3 195.541 256.06 198.341 255.08L 198.341 251.02ZM 212.271 251.02C 207.441 252.42 203.521 255.99 203.521 261.31L 203.521 270.76L 212.271 270.76L 212.271 261.31L 208.001 261.31C 208.001 258.3 209.471 256.06 212.271 255.08L 212.271 251.02ZM 220.694 301L 228.674 301L 228.674 279.51C 228.674 273.49 232.454 270.13 236.584 270.13C 241.414 270.13 242.954 272.79 242.954 277.76L 242.954 301L 250.934 301L 250.934 279.79C 250.934 273.7 253.244 270.13 258.634 270.13C 264.864 270.13 265.214 274.12 265.214 279.86L 265.214 301L 273.194 301L 273.194 276.01C 273.194 267.19 268.714 263.83 261.084 263.83C 255.834 263.83 252.404 266.14 249.744 269.85C 248.134 265.72 244.004 263.83 239.594 263.83C 233.854 263.83 230.844 266.28 228.464 269.85L 228.254 269.85L 228.254 264.81L 220.694 264.81L 220.694 301ZM 313.382 264.81L 305.402 264.81L 305.402 285.81C 305.402 291.41 303.162 295.68 296.512 295.68C 292.172 295.68 289.582 293.37 289.582 287L 289.582 264.81L 281.602 264.81L 281.602 287.77C 281.602 297.22 285.662 301.98 295.112 301.98C 299.102 301.98 303.442 299.6 305.402 295.96L 305.542 295.96L 305.542 301L 313.382 301L 313.382 264.81ZM 321.798 270.76C 326.628 269.36 330.548 265.79 330.548 260.47L 330.548 251.02L 321.798 251.02L 321.798 260.47L 326.068 260.47C 326.068 263.48 324.668 265.72 321.798 266.7L 321.798 270.76ZM 335.728 270.76C 340.558 269.36 344.478 265.79 344.478 260.47L 344.478 251.02L 335.728 251.02L 335.728 260.47L 339.998 260.47C 339.998 263.48 338.598 265.72 335.728 266.7L 335.728 270.76ZM 348.141 249.83C 354.021 259.84 356.751 270.48 356.751 282.17C 356.751 293.86 353.741 304.43 348.141 314.37L 354.651 314.37C 361.021 304.64 364.731 293.44 364.731 282.17C 364.731 268.8 360.251 258.79 354.651 249.83L 348.141 249.83Z" transform="translate(2008 11)" fill="#131313"/>
<path id="Number of terms" d="M 9.23 124L 24.7 124L 24.7 55.75L 25.09 55.75L 67.34 124L 84.5 124L 84.5 31.18L 69.03 31.18L 69.03 99.56L 68.77 99.56L 26.39 31.18L 9.23 31.18L 9.23 124ZM 160.638 56.79L 145.818 56.79L 145.818 95.79C 145.818 106.19 141.658 114.12 129.308 114.12C 121.248 114.12 116.438 109.83 116.438 98L 116.438 56.79L 101.618 56.79L 101.618 99.43C 101.618 116.98 109.158 125.82 126.708 125.82C 134.118 125.82 142.178 121.4 145.818 114.64L 146.078 114.64L 146.078 124L 160.638 124L 160.638 56.79ZM 176.267 124L 191.087 124L 191.087 84.09C 191.087 72.91 198.107 66.67 205.777 66.67C 214.747 66.67 217.607 71.61 217.607 80.84L 217.607 124L 232.427 124L 232.427 84.61C 232.427 73.3 236.717 66.67 246.727 66.67C 258.297 66.67 258.947 74.08 258.947 84.74L 258.947 124L 273.767 124L 273.767 77.59C 273.767 61.21 265.447 54.97 251.277 54.97C 241.527 54.97 235.157 59.26 230.217 66.15C 227.227 58.48 219.557 54.97 211.367 54.97C 200.707 54.97 195.117 59.52 190.697 66.15L 190.307 66.15L 190.307 56.79L 176.267 56.79L 176.267 124ZM 341.512 90.46C 341.512 102.16 336.442 114.12 322.922 114.12C 310.962 114.12 304.072 103.98 304.072 90.46C 304.072 76.16 310.442 66.67 322.922 66.67C 335.142 66.67 341.512 78.24 341.512 90.46ZM 289.772 124L 303.812 124L 303.812 114.77L 304.072 114.77C 308.492 123.61 318.242 125.82 327.342 125.82C 347.232 125.82 356.332 108.79 356.332 90.72C 356.332 71.09 346.062 54.97 324.872 54.97C 317.332 54.97 308.882 59 304.852 65.5L 304.592 65.5L 304.592 31.18L 289.772 31.18L 289.772 124ZM 429.825 94.23C 432.295 74.08 419.295 54.97 398.105 54.97C 378.085 54.97 365.605 71.35 365.605 90.46C 365.605 111.13 377.435 125.82 398.495 125.82C 413.185 125.82 425.665 117.63 428.915 102.94L 414.875 102.94C 412.275 110.35 407.075 114.12 398.495 114.12C 386.145 114.12 380.425 104.76 380.425 94.23L 429.825 94.23ZM 380.425 84.48C 380.815 74.47 387.835 66.67 398.105 66.67C 408.115 66.67 414.485 75.12 415.005 84.48L 380.425 84.48ZM 441.091 124L 455.911 124L 455.911 92.02C 455.911 77.2 463.971 69.01 474.111 69.01C 476.191 69.01 478.401 69.4 480.481 69.66L 480.481 55.36C 479.181 55.23 478.271 54.97 474.891 54.97C 465.791 54.97 456.951 62.64 455.261 69.79L 455.001 69.79L 455.001 56.79L 441.091 56.79L 441.091 124ZM 553.786 114.12C 540.526 114.12 534.676 102.03 534.676 90.33C 534.676 78.76 540.526 66.67 553.786 66.67C 567.046 66.67 572.896 78.76 572.896 90.33C 572.896 102.03 567.046 114.12 553.786 114.12ZM 553.786 125.82C 575.366 125.82 587.716 111 587.716 90.33C 587.716 69.79 575.366 54.97 553.786 54.97C 532.206 54.97 519.856 69.79 519.856 90.33C 519.856 111 532.206 125.82 553.786 125.82ZM 593.406 67.84L 604.456 67.84L 604.456 124L 619.276 124L 619.276 67.84L 631.886 67.84L 631.886 56.79L 619.276 56.79L 619.276 49.9C 619.276 44.31 622.526 42.88 626.556 42.88C 629.546 42.88 631.496 43.14 633.446 43.66L 633.446 32.09C 631.106 31.44 627.726 31.18 623.046 31.18C 613.426 31.18 604.456 34.04 604.456 51.2L 604.456 56.79L 593.406 56.79L 593.406 67.84ZM 670.464 67.84L 681.644 67.84L 681.644 107.49C 681.904 118.67 684.764 124.65 700.234 124.65C 703.484 124.65 706.604 124.13 709.854 123.87L 709.854 112.43C 707.774 112.95 705.694 112.95 703.614 112.95C 696.984 112.95 696.464 109.83 696.464 103.72L 696.464 67.84L 709.854 67.84L 709.854 56.79L 696.464 56.79L 696.464 36.64L 681.644 36.64L 681.644 56.79L 670.464 56.79L 670.464 67.84ZM 781.485 94.23C 783.955 74.08 770.955 54.97 749.765 54.97C 729.745 54.97 717.265 71.35 717.265 90.46C 717.265 111.13 729.095 125.82 750.155 125.82C 764.845 125.82 777.325 117.63 780.575 102.94L 766.535 102.94C 763.935 110.35 758.735 114.12 750.155 114.12C 737.805 114.12 732.085 104.76 732.085 94.23L 781.485 94.23ZM 732.085 84.48C 732.475 74.47 739.495 66.67 749.765 66.67C 759.775 66.67 766.145 75.12 766.665 84.48L 732.085 84.48ZM 792.751 124L 807.571 124L 807.571 92.02C 807.571 77.2 815.631 69.01 825.771 69.01C 827.851 69.01 830.061 69.4 832.141 69.66L 832.141 55.36C 830.841 55.23 829.931 54.97 826.551 54.97C 817.451 54.97 808.611 62.64 806.921 69.79L 806.661 69.79L 806.661 56.79L 792.751 56.79L 792.751 124ZM 838.454 124L 853.274 124L 853.274 84.09C 853.274 72.91 860.294 66.67 867.964 66.67C 876.934 66.67 879.794 71.61 879.794 80.84L 879.794 124L 894.614 124L 894.614 84.61C 894.614 73.3 898.904 66.67 908.914 66.67C 920.484 66.67 921.134 74.08 921.134 84.74L 921.134 124L 935.954 124L 935.954 77.59C 935.954 61.21 927.634 54.97 913.464 54.97C 903.714 54.97 897.344 59.26 892.404 66.15C 889.414 58.48 881.744 54.97 873.554 54.97C 862.894 54.97 857.304 59.52 852.884 66.15L 852.494 66.15L 852.494 56.79L 838.454 56.79L 838.454 124ZM 947.93 102.42C 948.19 118.28 960.8 125.82 977.7 125.82C 991.61 125.82 1007.73 119.97 1007.73 103.98C 1007.73 90.72 996.81 86.82 986.02 84.35C 975.1 81.88 964.18 80.84 964.18 73.56C 964.18 67.71 972.11 66.67 976.4 66.67C 982.9 66.67 988.75 68.62 990.05 75.64L 1005.52 75.64C 1003.7 60.69 991.22 54.97 977.44 54.97C 965.22 54.97 949.36 59.52 949.36 74.21C 949.36 87.86 960.02 91.76 970.94 94.1C 981.73 96.57 992.52 97.48 992.91 105.28C 993.3 112.95 983.55 114.12 977.96 114.12C 970.03 114.12 963.53 111 962.75 102.42L 947.93 102.42Z" transform="translate(1037 1379)" fill="#131313"/>
<rect id="Rectangle" width="231" height="276" transform="translate(568 804)" fill="#FCA04A" fill-opacity="0.4"/>
<rect id="Rectangle_2" width="197" height="235" transform="translate(1037 696)" fill="#67D94C" fill-opacity="0.3"/>
<rect id="Rectangle_3" width="183" height="259" transform="translate(1302 696)" fill="#3D99F6" fill-opacity="0.3"/>
<rect id="Rectangle_4" width="183" height="224" transform="translate(1441 1001)" fill="#FF664D" fill-opacity="0.3"/>
<rect id="Rectangle_5" width="171" height="259" transform="translate(1692 703)" fill="#625CDB" fill-opacity="0.3"/>
</g>
</g>
</svg>
